<svg width="548" height="650" viewBox="0 0 548 650" fill="none" xmlns="http://www.w3.org/2000/svg">
<path d="M173.716 578.487C169.288 578.487 164.86 577.636 161.794 575.762L4.939 485.157C1.87342 483.284 0 480.9 0 478.004C0 474.598 2.55465 471.362 6.8124 468.808L305.877 296.113C314.051 291.345 326.314 290.834 333.467 294.921L490.322 385.526C493.388 387.399 495.261 389.784 495.261 392.679C495.261 396.085 492.707 399.321 488.449 401.876L189.214 574.57C184.786 577.125 179.166 578.487 173.716 578.487ZM161.965 575.081C168.777 578.998 180.869 578.487 188.874 573.889L487.938 401.195C492.025 398.81 494.41 395.745 494.41 392.679C494.41 390.124 492.877 387.91 489.811 386.207L332.956 295.602C326.143 291.685 314.051 292.196 306.047 296.795L7.15304 469.489C3.0656 471.873 0.681255 474.939 0.681255 478.004C0.681255 480.559 2.21404 482.773 5.27962 484.476L161.965 575.081Z" fill="#42E8E0"/>
<path d="M494.749 350.953L472.268 354.871L333.295 274.655C326.313 270.567 314.221 271.078 306.046 275.847L40.1919 429.296L0.339355 436.108V450.244C0.339355 452.799 1.87212 455.353 5.10801 457.056L161.963 547.661C168.946 551.749 181.038 551.238 189.213 546.469L488.277 373.775C492.535 371.22 494.919 368.155 494.919 365.089V350.953H494.749Z" fill="url(#paint0_linear_858_19298)"/>
<path d="M161.793 533.355L4.93792 442.751C-2.04478 438.663 -1.19325 431.68 6.81131 427.082L306.046 254.558C314.05 249.96 326.313 249.449 333.295 253.366L490.151 343.971C497.134 348.058 496.282 355.041 488.277 359.639L189.043 532.334C181.038 536.932 168.776 537.443 161.793 533.355Z" fill="#24126A"/>
<path d="M488.107 359.639L189.043 532.334C181.038 536.932 168.776 537.443 161.793 533.526L4.93781 442.921C2.21286 441.388 0.680072 439.174 0.339452 436.96C-0.171478 439.855 1.36131 442.751 4.93781 444.794L161.793 535.399C168.776 539.487 180.868 538.976 189.043 534.207L488.107 361.513C492.876 358.788 495.09 355.041 494.749 351.805C494.238 354.53 492.024 357.425 488.107 359.639Z" fill="white"/>
<path opacity="0.51" d="M162.134 529.949L10.8987 442.58C4.08627 438.663 4.9378 431.85 12.7721 427.422L306.216 257.964C314.05 253.536 325.802 253.025 332.614 256.942L483.849 344.311C490.662 348.228 489.81 355.041 481.976 359.469L188.532 528.927C180.698 533.355 168.946 533.866 162.134 529.949Z" fill="#453C9E"/>
<path opacity="0.8" d="M173.546 529.097C169.118 529.097 165.03 528.245 161.794 526.372L10.5592 439.003C7.49363 437.3 5.79053 434.745 5.79053 432.02C5.79053 428.784 8.17486 425.378 12.4326 422.994L305.877 253.536C313.711 248.937 325.803 248.426 332.615 252.514L483.85 339.883C486.916 341.586 488.619 344.14 488.619 346.865C488.619 350.101 486.235 353.508 481.977 355.892L188.533 525.35C184.446 527.905 178.825 529.097 173.546 529.097ZM162.476 525.521C169.118 529.267 180.699 528.927 188.363 524.499L481.807 355.04C485.724 352.826 487.938 349.761 487.938 346.865C487.938 344.481 486.405 342.267 483.68 340.734L332.445 253.365C325.803 249.618 314.222 249.959 306.558 254.387L13.1139 423.846C9.19673 426.06 6.98269 429.125 6.98269 432.02C6.98269 434.405 8.51548 436.619 11.2404 438.152L162.476 525.521Z" fill="url(#paint1_linear_858_19298)"/>
<g opacity="0.7">
<path opacity="0.5" d="M162.134 526.032L10.8987 438.663C4.08627 434.746 4.9378 427.933 12.7721 423.505L306.216 254.047C314.05 249.619 325.802 249.108 332.614 253.025L483.849 340.394C490.662 344.311 489.81 351.124 481.976 355.552L188.532 525.01C180.698 529.438 168.946 529.949 162.134 526.032Z" fill="url(#paint2_radial_858_19298)"/>
<g opacity="0.1">
<path opacity="0.1" d="M329.208 493.163C329.208 474.088 315.924 451.096 299.404 441.559C291.229 436.79 283.735 436.279 278.285 439.515L272.665 442.751L274.368 442.921C271.473 446.498 269.6 451.948 269.6 458.76C269.6 477.835 282.884 500.827 299.404 510.364C305.024 513.6 310.304 514.792 314.902 514.281L314.732 515.814L320.522 512.408L320.693 512.237C325.972 509.172 329.208 502.53 329.208 493.163Z" fill="#9FFFF8"/>
<path opacity="0.1" d="M323.418 496.569C323.418 515.644 310.134 523.308 293.614 513.77C277.094 504.233 263.81 481.241 263.81 462.166C263.81 443.092 277.094 435.428 293.614 444.965C310.134 454.503 323.418 477.494 323.418 496.569Z" fill="#42E8E0"/>
</g>
</g>
<path opacity="0.4" d="M452.2 355.65C449.8 357.45 446.029 357.45 443.8 355.65C441.4 353.85 441.4 350.925 443.8 349.35C446.2 347.55 449.971 347.55 452.2 349.35C454.6 350.925 454.6 353.85 452.2 355.65Z" fill="#24126A"/>
<path opacity="0.4" d="M419.911 332.71L436.614 341.046C438.701 342.107 438.353 343.926 436.092 344.987C433.656 346.2 430.176 346.351 428.089 345.29L411.386 336.954C409.299 335.893 409.647 334.074 411.908 333.013C414.344 331.8 417.824 331.649 419.911 332.71Z" fill="#24126A"/>
<path opacity="0.4" d="M325.557 273.731L341.663 283.936C343.676 285.235 343.341 287.461 341.16 288.76C338.811 290.245 335.456 290.43 333.443 289.131L317.337 278.926C315.324 277.627 315.659 275.401 317.84 274.102C320.189 272.803 323.544 272.618 325.557 273.731Z" fill="#24126A"/>
<path d="M452.254 348.1C449.842 349.3 446.05 349.3 443.81 348.1C441.397 346.9 441.397 344.95 443.81 343.9C446.222 342.7 450.014 342.7 452.254 343.9C454.495 345.1 454.667 346.9 452.254 348.1Z" fill="#42E8E0"/>
<path d="M419.911 325.811L436.614 335.339C438.701 336.551 438.353 338.63 436.092 339.843C433.656 341.228 430.176 341.402 428.089 340.189L411.386 330.661C409.299 329.449 409.647 327.37 411.908 326.157C414.344 324.772 417.824 324.598 419.911 325.811Z" fill="#42E8E0"/>
<path d="M325.557 269.76L341.663 278.692C343.676 279.829 343.341 281.778 341.16 282.915C338.811 284.214 335.456 284.377 333.443 283.24L317.337 274.308C315.324 273.171 315.659 271.222 317.84 270.085C320.189 268.786 323.544 268.623 325.557 269.76Z" fill="#42E8E0"/>
<g opacity="0.3">
<path opacity="0.3" d="M543.289 555.155V547.491L541.245 546.299C540.734 549.875 536.477 552.26 532.9 552.771L508.716 566.906L498.157 570.653L464.606 553.282L465.457 552.771C462.562 551.408 461.029 548.343 459.496 545.618L457.282 546.98L455.92 547.321V555.155C455.92 556.688 456.942 558.221 458.815 559.242L492.537 578.658C496.454 580.872 502.925 580.872 506.843 578.658L540.564 559.242C542.437 558.05 543.459 556.688 543.459 555.155C543.289 555.325 543.289 555.155 543.289 555.155Z" fill="url(#paint3_linear_858_19298)"/>
<path opacity="0.3" d="M532.729 552.771L508.545 566.906L499.349 570.142V580.531C501.903 580.531 504.458 580.02 506.502 578.828L540.223 559.413C542.096 558.221 543.118 556.858 543.118 555.325V555.155V547.491L541.245 546.469H541.075C540.393 550.046 536.306 552.26 532.729 552.771Z" fill="#0F054C"/>
<g opacity="0.3">
<path opacity="0.3" d="M492.366 571.164L458.645 551.749C454.728 549.535 454.728 545.788 458.645 543.403L492.366 523.988C496.283 521.774 502.755 521.774 506.672 523.988L540.394 543.403C544.311 545.618 544.311 549.364 540.394 551.749L506.672 571.164C502.755 573.378 496.283 573.378 492.366 571.164Z" fill="url(#paint4_linear_858_19298)"/>
</g>
<g opacity="0.3">
<path opacity="0.3" d="M492.366 571.164L458.645 551.749C454.728 549.535 454.728 545.788 458.645 543.403L492.366 523.988C496.283 521.774 502.755 521.774 506.672 523.988L540.394 543.403C544.311 545.618 544.311 549.364 540.394 551.749L506.672 571.164C502.755 573.378 496.283 573.378 492.366 571.164Z" fill="#0F054C"/>
</g>
</g>
<path d="M499.519 546.468C497.135 546.468 494.921 545.957 493.218 544.936L459.497 525.52C457.793 524.498 456.771 523.136 456.771 521.603C456.771 520.07 457.793 518.708 459.497 517.686L493.218 498.271C496.794 496.227 502.415 496.227 505.991 498.271L539.712 517.686C541.416 518.708 542.437 520.07 542.437 521.603C542.437 523.136 541.416 524.498 539.712 525.52L505.991 544.936C504.118 545.957 501.733 546.468 499.519 546.468ZM499.519 497.419C497.305 497.419 495.091 497.93 493.388 498.782L459.667 518.197C458.134 519.048 457.282 520.241 457.282 521.603C457.282 522.795 458.134 523.987 459.667 525.009L493.388 544.425C496.794 546.298 502.074 546.298 505.48 544.425L539.202 525.009C540.734 524.158 541.586 522.966 541.586 521.603C541.586 520.241 540.734 519.219 539.202 518.197L505.48 498.782C503.777 497.93 501.733 497.419 499.519 497.419Z" fill="#42E8E0"/>
<path opacity="0.4" d="M543.288 514.28V502.699L541.244 501.507C540.733 505.083 536.476 507.468 532.899 507.979L508.715 522.114L498.156 525.861L464.605 508.49L465.456 507.979C462.561 506.616 461.028 503.551 459.496 500.826L457.282 502.188L455.919 502.529V514.28C455.919 515.813 456.941 517.346 458.814 518.368L492.536 537.783C496.453 539.997 502.925 539.997 506.842 537.783L540.563 518.368C542.436 517.175 543.458 515.813 543.458 514.28C543.288 514.45 543.288 514.28 543.288 514.28Z" fill="#42E8E0"/>
<path d="M543.288 504.061V496.397L541.244 495.205C540.733 498.782 536.476 501.166 532.899 501.677L508.715 515.813L498.156 519.559L464.605 502.188L465.456 501.677C462.561 500.314 461.028 497.249 459.496 494.524L457.282 495.886L455.919 496.227V504.061C455.919 505.594 456.941 507.127 458.814 508.149L492.536 527.564C496.453 529.778 502.925 529.778 506.842 527.564L540.563 508.149C542.436 506.957 543.458 505.594 543.458 504.061C543.288 504.061 543.288 504.061 543.288 504.061Z" fill="url(#paint5_linear_858_19298)"/>
<path opacity="0.3" d="M532.728 501.677L508.544 515.813L499.348 519.049V529.437C501.902 529.437 504.457 528.927 506.501 527.734L540.222 508.319C542.095 507.127 543.117 505.764 543.117 504.232V504.061V496.397L541.244 495.375H541.074C540.392 498.782 536.305 501.166 532.728 501.677Z" fill="#0F054C"/>
<path d="M492.365 519.9L458.644 500.485C454.727 498.271 454.727 494.524 458.644 492.14L492.365 472.724C496.282 470.51 502.754 470.51 506.671 472.724L540.393 492.14C544.31 494.354 544.31 498.101 540.393 500.485L506.671 519.9C502.754 522.285 496.282 522.285 492.365 519.9Z" fill="url(#paint6_linear_858_19298)"/>
<path d="M540.223 500.485L506.672 519.9C502.755 522.114 496.283 522.114 492.366 519.9L458.645 500.485C456.942 499.463 455.92 498.1 455.75 496.908C455.579 498.611 456.431 500.314 458.645 501.507L492.366 520.922C496.283 523.136 502.755 523.136 506.672 520.922L540.394 501.507C542.608 500.314 543.63 498.611 543.289 496.908C543.119 498.1 542.097 499.463 540.223 500.485Z" fill="white"/>
<g opacity="0.3">
<path opacity="0.3" d="M393.245 600.628V592.964L391.201 591.772C390.52 595.348 386.433 597.732 382.856 598.243L358.672 612.379L348.113 616.126L314.562 598.754L315.413 598.243C312.518 596.881 310.985 593.815 309.452 591.09L307.238 592.453L305.876 592.793V600.628C305.876 602.16 306.898 603.693 308.771 604.715L342.493 624.13C346.41 626.345 352.881 626.345 356.799 624.13L390.52 604.715C392.393 603.523 393.415 602.16 393.415 600.628C393.245 600.628 393.245 600.628 393.245 600.628Z" fill="url(#paint7_linear_858_19298)"/>
<path opacity="0.3" d="M382.856 598.243L358.672 612.379L349.476 615.615V626.003C352.03 626.003 354.585 625.492 356.629 624.3L390.35 604.885C392.223 603.693 393.245 602.33 393.245 600.798V600.627V592.963L391.372 591.941H391.202C390.52 595.348 386.263 597.732 382.856 598.243Z" fill="#0F054C"/>
<g opacity="0.3">
<path opacity="0.3" d="M342.322 616.466L308.601 597.051C304.684 594.837 304.684 591.09 308.601 588.706L342.322 569.29C346.239 567.076 352.711 567.076 356.628 569.29L390.35 588.706C394.267 590.92 394.267 594.667 390.35 597.051L356.628 616.466C352.711 618.851 346.239 618.851 342.322 616.466Z" fill="url(#paint8_linear_858_19298)"/>
</g>
<g opacity="0.3">
<path opacity="0.3" d="M342.322 616.466L308.601 597.051C304.684 594.837 304.684 591.09 308.601 588.706L342.322 569.29C346.239 567.076 352.711 567.076 356.628 569.29L390.35 588.706C394.267 590.92 394.267 594.667 390.35 597.051L356.628 616.466C352.711 618.851 346.239 618.851 342.322 616.466Z" fill="#0F054C"/>
</g>
</g>
<path d="M349.475 588.195C347.091 588.195 344.877 587.684 343.174 586.662L309.453 567.247C307.749 566.225 306.728 564.862 306.728 563.33C306.728 561.797 307.749 560.434 309.453 559.413L343.174 539.997C346.75 537.953 352.371 537.953 355.947 539.997L389.668 559.413C391.372 560.434 392.393 561.797 392.393 563.33C392.393 564.862 391.372 566.225 389.668 567.247L355.947 586.662C354.074 587.684 351.689 588.195 349.475 588.195ZM343.344 586.151C346.75 588.025 352.03 588.025 355.436 586.151L389.158 566.736C390.69 565.884 391.542 564.692 391.542 563.33C391.542 562.137 390.69 560.945 389.158 559.923L355.436 540.508C352.03 538.635 346.75 538.635 343.344 540.508L309.623 559.923C308.09 560.775 307.238 561.967 307.238 563.33C307.238 564.522 308.09 565.714 309.623 566.736L343.344 586.151Z" fill="#42E8E0"/>
<path opacity="0.4" d="M393.245 556.006V544.425L391.201 543.233C390.52 546.81 386.433 549.194 382.856 549.705L358.672 563.84L348.113 567.587L314.562 550.216L315.413 549.705C312.518 548.342 310.985 545.277 309.452 542.552L307.238 543.914L305.876 544.255V556.006C305.876 557.539 306.898 559.072 308.771 560.094L342.493 579.509C346.41 581.723 352.881 581.723 356.799 579.509L390.52 560.094C392.393 558.902 393.415 557.539 393.415 556.006C393.245 556.006 393.245 556.006 393.245 556.006Z" fill="#42E8E0"/>
<path d="M393.245 545.617V537.953L391.201 536.761C390.52 540.337 386.433 542.722 382.856 543.233L358.672 557.368L348.113 561.115L314.562 543.744L315.413 543.233C312.518 541.87 310.985 538.805 309.452 536.08L307.238 537.442L305.876 537.783V545.617C305.876 547.15 306.898 548.683 308.771 549.704L342.493 569.12C346.41 571.334 352.881 571.334 356.799 569.12L390.52 549.704C392.393 548.512 393.415 547.15 393.415 545.617C393.245 545.787 393.245 545.787 393.245 545.617Z" fill="url(#paint9_linear_858_19298)"/>
<path opacity="0.3" d="M382.856 543.403L358.672 557.538L349.476 560.774V571.163C352.03 571.163 354.585 570.652 356.629 569.46L390.35 550.045C392.223 548.852 393.245 547.49 393.245 545.957V545.787V538.123L391.372 537.101H391.202C390.52 540.507 386.263 542.892 382.856 543.403Z" fill="#0F054C"/>
<path d="M342.322 561.626L308.601 542.211C304.684 539.997 304.684 536.25 308.601 533.865L342.322 514.45C346.239 512.236 352.711 512.236 356.628 514.45L390.35 533.865C394.267 536.079 394.267 539.826 390.35 542.211L356.628 561.626C352.711 563.84 346.239 563.84 342.322 561.626Z" fill="url(#paint10_linear_858_19298)"/>
<path d="M349.475 558.049C347.432 558.049 345.388 557.538 343.685 556.687L317.287 541.529C315.754 540.678 314.902 539.315 314.902 538.123C314.902 536.761 315.754 535.568 317.287 534.717L343.685 519.559C346.921 517.686 352.03 517.686 355.095 519.559L381.494 534.717C383.026 535.568 383.878 536.931 383.878 538.123C383.878 539.486 383.026 540.678 381.494 541.529L355.095 556.687C353.563 557.709 351.519 558.049 349.475 558.049ZM344.025 556.176C347.091 557.879 351.86 557.879 354.925 556.176L381.323 541.018C382.686 540.167 383.537 539.145 383.537 538.123C383.537 536.931 382.686 535.909 381.323 535.228L354.925 520.07C351.86 518.367 347.091 518.367 344.025 520.07L317.627 535.228C316.265 536.079 315.413 537.101 315.413 538.123C315.413 539.315 316.265 540.337 317.627 541.018L344.025 556.176Z" fill="#5351AF"/>
<path d="M390.35 542.211L356.628 561.627C352.711 563.841 346.239 563.841 342.322 561.627L308.601 542.211C306.898 541.189 305.876 539.827 305.706 538.635C305.535 540.338 306.387 542.041 308.601 543.233L342.322 562.648C346.239 564.863 352.711 564.863 356.628 562.648L390.35 543.233C392.564 542.041 393.586 540.338 393.245 538.635C393.075 539.827 392.053 541.189 390.35 542.211Z" fill="white"/>
<g opacity="0.3">
<path opacity="0.3" d="M105.08 329.835V322.171L103.036 320.979C102.525 324.556 98.2675 326.94 94.691 327.451L70.507 341.587L59.9478 345.333L26.3968 327.962L27.2483 327.451C24.353 326.088 22.8202 323.023 21.2875 320.298L19.0734 321.66L17.7109 322.001V329.835C17.7109 331.368 18.7328 332.901 20.6062 333.923L54.3276 353.338C58.2447 355.552 64.7165 355.552 68.6336 353.338L102.355 333.923C104.228 332.73 105.25 331.368 105.25 329.835C105.08 329.835 105.08 329.835 105.08 329.835Z" fill="url(#paint11_linear_858_19298)"/>
<path opacity="0.3" d="M94.6918 327.451L70.5078 341.587L61.311 344.822V355.211C63.8657 355.211 66.4204 354.7 68.4641 353.508L102.185 334.093C104.059 332.901 105.081 331.538 105.081 330.006V329.835V322.171L103.207 321.149H103.037C102.356 324.556 98.098 326.94 94.6918 327.451Z" fill="#0F054C"/>
<g opacity="0.3">
<path opacity="0.3" d="M54.1574 345.674L20.6063 326.258C16.6892 324.044 16.6892 320.298 20.6063 317.913L54.3276 298.498C58.2448 296.284 64.7166 296.284 68.6337 298.498L102.355 317.913C106.272 320.127 106.272 323.874 102.355 326.088L68.6337 345.503C64.5463 348.058 58.0745 348.058 54.1574 345.674Z" fill="url(#paint12_linear_858_19298)"/>
</g>
<g opacity="0.3">
<path opacity="0.3" d="M54.1574 345.674L20.6063 326.258C16.6892 324.044 16.6892 320.298 20.6063 317.913L54.3276 298.498C58.2448 296.284 64.7166 296.284 68.6337 298.498L102.355 317.913C106.272 320.127 106.272 323.874 102.355 326.088L68.6337 345.503C64.5463 348.058 58.0745 348.058 54.1574 345.674Z" fill="#0F054C"/>
</g>
</g>
<path d="M329.207 367.984C329.207 348.91 315.923 325.918 299.403 316.381C291.228 311.612 283.734 311.101 278.284 314.337L272.664 317.573L274.367 317.743C271.472 321.32 269.599 326.769 269.599 333.582C269.599 352.657 282.883 375.648 299.403 385.186C305.023 388.422 310.303 389.614 314.901 389.103L314.731 390.636L320.521 387.229L320.692 387.059C325.971 383.823 329.207 377.181 329.207 367.984Z" fill="#9FFFF8"/>
<path d="M323.417 371.22C323.417 390.295 310.133 397.959 293.613 388.422C277.093 378.884 263.809 355.893 263.809 336.818C263.809 317.743 277.093 310.079 293.613 319.617C310.133 329.154 323.417 352.316 323.417 371.22Z" fill="#42E8E0"/>
<path d="M259.553 285.894C270.623 270.396 273.177 243.828 265.173 226.626C261.256 217.94 255.465 213.342 249.164 212.661L242.692 212.15L243.884 213.172C239.286 214.364 234.858 217.77 230.94 223.39C219.87 238.889 217.316 265.457 225.32 282.658C228.045 288.619 231.622 292.706 235.539 294.75L234.517 295.942L241.159 296.453H241.5C247.801 296.964 254.103 293.388 259.553 285.894Z" fill="#9FFFF8"/>
<path d="M253.08 285.213C242.01 300.711 226.682 299.179 218.848 281.977C211.014 264.776 213.568 238.208 224.468 222.709C235.538 207.211 250.866 208.744 258.7 225.945C266.535 243.317 263.98 269.715 253.08 285.213Z" fill="#42E8E0"/>
<g opacity="0.1">
<path opacity="0.1" d="M269.601 410.902C269.601 391.828 256.316 368.836 239.796 359.299C231.622 354.53 224.128 354.019 218.678 357.255L213.058 360.491L214.761 360.661C211.866 364.237 209.992 369.687 209.992 376.5C209.992 395.575 223.276 418.566 239.796 428.104C245.417 431.34 250.696 432.532 255.295 432.021L255.124 433.554L260.915 430.147L261.085 429.977C266.365 426.741 269.601 420.269 269.601 410.902Z" fill="#9FFFF8"/>
<path opacity="0.1" d="M263.981 414.138C263.981 433.213 250.696 440.877 234.176 431.34C217.656 421.802 204.372 398.81 204.372 379.736C204.372 360.661 217.656 352.997 234.176 362.534C250.696 372.072 263.981 395.234 263.981 414.138Z" fill="#42E8E0"/>
</g>
<path opacity="0.4" d="M236 441C215.705 441 195.578 436.397 180.147 427.361C165.219 418.496 157 406.903 157 394.457C157 382.012 165.219 370.248 180.147 361.554C211.009 343.482 261.159 343.482 291.853 361.554C306.781 370.419 315 382.012 315 394.457C315 406.903 306.781 418.666 291.853 427.361L291.686 427.02L291.853 427.361C276.422 436.397 256.295 441 236 441ZM236 348.426C215.873 348.426 195.745 352.859 180.482 361.895C165.722 370.589 157.503 382.012 157.503 394.287C157.503 406.562 165.722 417.984 180.482 426.679C211.176 444.751 260.992 444.751 291.686 426.679C306.446 417.984 314.665 406.562 314.665 394.287C314.665 382.012 306.446 370.589 291.686 361.895C276.255 353.029 256.127 348.426 236 348.426Z" fill="#42E8E0"/>
<path opacity="0.2" d="M236.585 454C210.637 454 184.69 448.254 164.848 436.93C145.684 425.944 135 411.239 135 395.521C135 379.803 145.515 365.099 164.848 354.113C204.363 331.296 268.637 331.296 308.152 354.113C327.316 365.099 338 379.803 338 395.521C338 411.239 327.485 425.944 308.152 436.93C288.48 448.254 262.532 454 236.585 454ZM236.585 337.549C210.807 337.549 184.86 343.127 165.187 354.62C146.193 365.606 135.678 380.141 135.678 395.521C135.678 410.901 146.193 425.437 165.187 436.423C204.532 459.07 268.637 459.07 307.982 436.423C326.977 425.437 337.491 410.901 337.491 395.521C337.491 380.141 326.977 365.606 307.982 354.62C288.31 343.296 262.532 337.549 236.585 337.549Z" fill="#42E8E0"/>
<path d="M236.585 433C220.347 433 204.109 429.403 191.631 422.208C179.666 415.185 173 405.935 173 396C173 386.065 179.666 376.815 191.631 369.792C216.416 355.403 256.584 355.403 281.369 369.792C293.334 376.815 300 386.065 300 396C300 405.935 293.334 415.185 281.369 422.208L281.198 421.866L281.369 422.208C269.062 429.403 252.824 433 236.585 433ZM236.585 359.856C220.518 359.856 204.28 363.454 191.973 370.477C180.179 377.329 173.513 386.407 173.513 396.171C173.513 405.935 180.008 415.014 191.973 421.866C216.587 436.083 256.584 436.083 281.198 421.866C292.992 415.014 299.658 405.935 299.658 396.171C299.658 386.407 293.163 377.329 281.198 370.477C268.891 363.454 252.824 359.856 236.585 359.856Z" fill="#42E8E0"/>
<path d="M269.6 410.902C269.6 391.828 256.316 368.836 239.795 359.299C231.621 354.53 224.127 354.019 218.677 357.255L213.057 360.491L214.76 360.661C211.865 364.237 209.991 369.687 209.991 376.5C209.991 395.575 223.275 418.566 239.795 428.104C245.416 431.34 250.695 432.532 255.294 432.021L255.123 433.554L260.914 430.147L261.084 429.977C266.364 426.741 269.6 420.269 269.6 410.902Z" fill="#9FFFF8"/>
<path d="M263.98 414.138C263.98 433.213 250.695 440.877 234.175 431.34C217.655 421.802 204.371 398.81 204.371 379.736C204.371 360.661 217.655 352.997 234.175 362.534C250.695 372.072 263.98 395.234 263.98 414.138Z" fill="#42E8E0"/>
<path opacity="0.4" d="M156.003 492.992L62.5027 439.003C59.7777 437.471 59.7777 433.383 62.5027 431.85L76.8087 423.505C81.5774 420.78 87.5383 420.78 92.3069 423.505L185.807 477.493C188.532 479.026 188.532 483.114 185.807 484.646L171.501 492.992C166.732 495.717 160.942 495.717 156.003 492.992Z" fill="#24126A"/>
<path d="M109.338 437.811L94.3506 429.125L97.2459 427.422L112.233 436.108L109.338 437.811Z" fill="#42E8E0"/>
<path d="M151.404 462.847L146.806 460.122L149.871 458.419L154.47 461.144L151.404 462.847Z" fill="#42E8E0"/>
<path d="M117.853 442.92L113.255 440.366L116.32 438.663L120.919 441.217L117.853 442.92Z" fill="#42E8E0"/>
<path d="M163.837 482.262C161.112 482.262 158.387 481.581 156.003 480.218L62.3322 426.23C60.9697 425.378 60.1182 424.016 60.1182 422.313C60.1182 420.61 60.9697 419.247 62.3322 418.396L76.6382 410.051C81.5772 407.326 87.5381 407.326 92.477 410.051L185.977 464.039C187.34 464.89 188.191 466.253 188.191 467.956C188.191 469.659 187.34 471.022 185.977 471.873L171.671 480.218C169.287 481.581 166.562 482.262 163.837 482.262ZM84.4725 408.688C81.9178 408.688 79.1929 409.369 76.9788 410.732L62.6728 419.077C61.4806 419.758 60.7994 420.95 60.7994 422.313C60.7994 423.675 61.4806 424.868 62.6728 425.549L156.173 479.537C160.771 482.262 166.562 482.262 171.331 479.537L185.637 471.192C186.829 470.511 187.51 469.318 187.51 467.956C187.51 466.593 186.829 465.401 185.637 464.72L92.1364 410.732C89.7521 409.369 87.1974 408.688 84.4725 408.688Z" fill="#42E8E0"/>
<defs>
<linearGradient id="paint0_linear_858_19298" x1="0.362688" y1="411.119" x2="494.754" y2="411.119" gradientUnits="userSpaceOnUse">
<stop stop-color="#BCBEFF"/>
<stop offset="0.151" stop-color="#A3A7F5"/>
<stop offset="0.3866" stop-color="#8289E8"/>
<stop offset="0.6124" stop-color="#6A73DF"/>
<stop offset="0.8221" stop-color="#5C66D9"/>
<stop offset="1" stop-color="#5761D7"/>
</linearGradient>
<linearGradient id="paint1_linear_858_19298" x1="316.42" y1="481.062" x2="178.415" y2="297.923" gradientUnits="userSpaceOnUse">
<stop stop-color="#42E8E0"/>
<stop offset="0.1055" stop-color="#37B6BF"/>
<stop offset="0.2197" stop-color="#2C87A1"/>
<stop offset="0.338" stop-color="#235F87"/>
<stop offset="0.4587" stop-color="#1C3F72"/>
<stop offset="0.5824" stop-color="#162561"/>
<stop offset="0.7105" stop-color="#121355"/>
<stop offset="0.8458" stop-color="#10084E"/>
<stop offset="1" stop-color="#0F054C"/>
</linearGradient>
<radialGradient id="paint2_radial_858_19298" cx="0" cy="0" r="1" gradientUnits="userSpaceOnUse" gradientTransform="translate(174.999 418.113) scale(386.963)">
<stop stop-color="#42E8E0"/>
<stop offset="0.1055" stop-color="#37B6BF"/>
<stop offset="0.2197" stop-color="#2C87A1"/>
<stop offset="0.338" stop-color="#235F87"/>
<stop offset="0.4587" stop-color="#1C3F72"/>
<stop offset="0.5824" stop-color="#162561"/>
<stop offset="0.7105" stop-color="#121355"/>
<stop offset="0.8458" stop-color="#10084E"/>
<stop offset="1" stop-color="#0F054C"/>
</radialGradient>
<linearGradient id="paint3_linear_858_19298" x1="464.378" y1="532.355" x2="533.881" y2="572.483" gradientUnits="userSpaceOnUse">
<stop stop-color="#BCBEFF"/>
<stop offset="0.2271" stop-color="#AAADF8"/>
<stop offset="0.6802" stop-color="#7C83E5"/>
<stop offset="1" stop-color="#5761D7"/>
</linearGradient>
<linearGradient id="paint4_linear_858_19298" x1="455.663" y1="547.523" x2="543.263" y2="547.523" gradientUnits="userSpaceOnUse">
<stop stop-color="#E9E9FD"/>
<stop offset="0.3601" stop-color="#D3D2F9"/>
<stop offset="0.7062" stop-color="#C5C4F7"/>
<stop offset="1" stop-color="#C0BFF6"/>
</linearGradient>
<linearGradient id="paint5_linear_858_19298" x1="464.377" y1="481.197" x2="533.88" y2="521.324" gradientUnits="userSpaceOnUse">
<stop stop-color="#BCBEFF"/>
<stop offset="0.2271" stop-color="#AAADF8"/>
<stop offset="0.6802" stop-color="#7C83E5"/>
<stop offset="1" stop-color="#5761D7"/>
</linearGradient>
<linearGradient id="paint6_linear_858_19298" x1="455.662" y1="496.365" x2="543.262" y2="496.365" gradientUnits="userSpaceOnUse">
<stop stop-color="#E9E9FD"/>
<stop offset="0.3601" stop-color="#D3D2F9"/>
<stop offset="0.7062" stop-color="#C5C4F7"/>
<stop offset="1" stop-color="#C0BFF6"/>
</linearGradient>
<linearGradient id="paint7_linear_858_19298" x1="314.387" y1="577.746" x2="383.89" y2="617.874" gradientUnits="userSpaceOnUse">
<stop stop-color="#BCBEFF"/>
<stop offset="0.2271" stop-color="#AAADF8"/>
<stop offset="0.6802" stop-color="#7C83E5"/>
<stop offset="1" stop-color="#5761D7"/>
</linearGradient>
<linearGradient id="paint8_linear_858_19298" x1="305.672" y1="592.914" x2="393.272" y2="592.914" gradientUnits="userSpaceOnUse">
<stop stop-color="#E9E9FD"/>
<stop offset="0.3601" stop-color="#D3D2F9"/>
<stop offset="0.7062" stop-color="#C5C4F7"/>
<stop offset="1" stop-color="#C0BFF6"/>
</linearGradient>
<linearGradient id="paint9_linear_858_19298" x1="314.387" y1="522.875" x2="383.89" y2="563.003" gradientUnits="userSpaceOnUse">
<stop stop-color="#BCBEFF"/>
<stop offset="0.2271" stop-color="#AAADF8"/>
<stop offset="0.6802" stop-color="#7C83E5"/>
<stop offset="1" stop-color="#5761D7"/>
</linearGradient>
<linearGradient id="paint10_linear_858_19298" x1="305.672" y1="538.043" x2="393.272" y2="538.043" gradientUnits="userSpaceOnUse">
<stop stop-color="#E9E9FD"/>
<stop offset="0.3601" stop-color="#D3D2F9"/>
<stop offset="0.7062" stop-color="#C5C4F7"/>
<stop offset="1" stop-color="#C0BFF6"/>
</linearGradient>
<linearGradient id="paint11_linear_858_19298" x1="26.2779" y1="306.979" x2="95.781" y2="347.107" gradientUnits="userSpaceOnUse">
<stop stop-color="#BCBEFF"/>
<stop offset="0.2271" stop-color="#AAADF8"/>
<stop offset="0.6802" stop-color="#7C83E5"/>
<stop offset="1" stop-color="#5761D7"/>
</linearGradient>
<linearGradient id="paint12_linear_858_19298" x1="17.563" y1="322.147" x2="105.163" y2="322.147" gradientUnits="userSpaceOnUse">
<stop stop-color="#E9E9FD"/>
<stop offset="0.3601" stop-color="#D3D2F9"/>
<stop offset="0.7062" stop-color="#C5C4F7"/>
<stop offset="1" stop-color="#C0BFF6"/>
</linearGradient>
</defs>
</svg>
