<svg width="548" height="650" viewBox="0 0 548 650" fill="none" xmlns="http://www.w3.org/2000/svg">
<g clip-path="url(#clip0_858_19297)">
<path d="M-140.7 545.9L286.5 299.3L673.2 522.6L246 769.2L-140.7 545.9Z" stroke="#758D9E" stroke-width="0.1949" stroke-miterlimit="10"/>
<path d="M235.6 763.2L662.8 516.5" stroke="#758D9E" stroke-width="0.1949" stroke-miterlimit="10"/>
<path d="M225.1 757.1L652.3 510.5" stroke="#758D9E" stroke-width="0.1949" stroke-miterlimit="10"/>
<path d="M214.6 751.1L641.9 504.5" stroke="#758D9E" stroke-width="0.1949" stroke-miterlimit="10"/>
<path d="M204.2 745.1L631.4 498.4" stroke="#758D9E" stroke-width="0.1949" stroke-miterlimit="10"/>
<path d="M193.7 739L621 492.4" stroke="#758D9E" stroke-width="0.1949" stroke-miterlimit="10"/>
<path d="M183.3 733L610.5 486.3" stroke="#758D9E" stroke-width="0.1949" stroke-miterlimit="10"/>
<path d="M172.8 727L600 480.3" stroke="#758D9E" stroke-width="0.1949" stroke-miterlimit="10"/>
<path d="M162.4 720.9L589.6 474.3" stroke="#758D9E" stroke-width="0.1949" stroke-miterlimit="10"/>
<path d="M151.9 714.9L579.1 468.2" stroke="#758D9E" stroke-width="0.1949" stroke-miterlimit="10"/>
<path d="M141.5 708.9L568.7 462.2" stroke="#758D9E" stroke-width="0.1949" stroke-miterlimit="10"/>
<path d="M131 702.8L558.2 456.2" stroke="#758D9E" stroke-width="0.1949" stroke-miterlimit="10"/>
<path d="M120.6 696.8L547.8 450.1" stroke="#758D9E" stroke-width="0.1949" stroke-miterlimit="10"/>
<path d="M110.1 690.8L537.3 444.1" stroke="#758D9E" stroke-width="0.1949" stroke-miterlimit="10"/>
<path d="M99.6997 684.7L526.9 438.1" stroke="#758D9E" stroke-width="0.1949" stroke-miterlimit="10"/>
<path d="M89.1997 678.7L516.4 432" stroke="#758D9E" stroke-width="0.1949" stroke-miterlimit="10"/>
<path d="M78.7998 672.6L506 426" stroke="#758D9E" stroke-width="0.1949" stroke-miterlimit="10"/>
<path d="M68.2998 666.6L495.5 420" stroke="#758D9E" stroke-width="0.1949" stroke-miterlimit="10"/>
<path d="M57.8999 660.6L485.1 413.9" stroke="#758D9E" stroke-width="0.1949" stroke-miterlimit="10"/>
<path d="M47.3999 654.5L474.6 407.9" stroke="#758D9E" stroke-width="0.1949" stroke-miterlimit="10"/>
<path d="M37 648.5L464.2 401.9" stroke="#758D9E" stroke-width="0.1949" stroke-miterlimit="10"/>
<path d="M26.5 642.5L453.7 395.8" stroke="#758D9E" stroke-width="0.1949" stroke-miterlimit="10"/>
<path d="M16.0996 636.4L443.3 389.8" stroke="#758D9E" stroke-width="0.1949" stroke-miterlimit="10"/>
<path d="M5.59961 630.4L432.8 383.8" stroke="#758D9E" stroke-width="0.1949" stroke-miterlimit="10"/>
<path d="M-4.80029 624.4L422.4 377.7" stroke="#758D9E" stroke-width="0.1949" stroke-miterlimit="10"/>
<path d="M-15.3003 618.3L411.9 371.7" stroke="#758D9E" stroke-width="0.1949" stroke-miterlimit="10"/>
<path d="M-25.7002 612.3L401.5 365.7" stroke="#758D9E" stroke-width="0.1949" stroke-miterlimit="10"/>
<path d="M-36.2002 606.3L391 359.6" stroke="#758D9E" stroke-width="0.1949" stroke-miterlimit="10"/>
<path d="M-46.7002 600.2L380.6 353.6" stroke="#758D9E" stroke-width="0.1949" stroke-miterlimit="10"/>
<path d="M-57.1001 594.2L370.1 347.6" stroke="#758D9E" stroke-width="0.1949" stroke-miterlimit="10"/>
<path d="M-67.6001 588.2L359.6 341.5" stroke="#758D9E" stroke-width="0.1949" stroke-miterlimit="10"/>
<path d="M-78 582.1L349.2 335.5" stroke="#758D9E" stroke-width="0.1949" stroke-miterlimit="10"/>
<path d="M-88.5 576.1L338.7 329.5" stroke="#758D9E" stroke-width="0.1949" stroke-miterlimit="10"/>
<path d="M-98.9004 570.1L328.3 323.4" stroke="#758D9E" stroke-width="0.1949" stroke-miterlimit="10"/>
<path d="M-109.4 564L317.8 317.4" stroke="#758D9E" stroke-width="0.1949" stroke-miterlimit="10"/>
<path d="M-119.8 558L307.4 311.3" stroke="#758D9E" stroke-width="0.1949" stroke-miterlimit="10"/>
<path d="M-130.3 552L296.9 305.3" stroke="#758D9E" stroke-width="0.1949" stroke-miterlimit="10"/>
<path d="M274.9 305.9L661.7 529.2" stroke="#758D9E" stroke-width="0.1949" stroke-miterlimit="10"/>
<path d="M263.4 312.6L650.1 535.9" stroke="#758D9E" stroke-width="0.1949" stroke-miterlimit="10"/>
<path d="M251.8 319.3L638.6 542.6" stroke="#758D9E" stroke-width="0.1949" stroke-miterlimit="10"/>
<path d="M240.3 325.9L627 549.2" stroke="#758D9E" stroke-width="0.1949" stroke-miterlimit="10"/>
<path d="M228.8 332.6L615.5 555.9" stroke="#758D9E" stroke-width="0.1949" stroke-miterlimit="10"/>
<path d="M217.2 339.3L603.9 562.6" stroke="#758D9E" stroke-width="0.1949" stroke-miterlimit="10"/>
<path d="M205.7 345.9L592.4 569.2" stroke="#758D9E" stroke-width="0.1949" stroke-miterlimit="10"/>
<path d="M194.1 352.6L580.8 575.9" stroke="#758D9E" stroke-width="0.1949" stroke-miterlimit="10"/>
<path d="M182.6 359.3L569.3 582.5" stroke="#758D9E" stroke-width="0.1949" stroke-miterlimit="10"/>
<path d="M171 365.9L557.8 589.2" stroke="#758D9E" stroke-width="0.1949" stroke-miterlimit="10"/>
<path d="M159.5 372.6L546.2 595.9" stroke="#758D9E" stroke-width="0.1949" stroke-miterlimit="10"/>
<path d="M147.9 379.3L534.7 602.5" stroke="#758D9E" stroke-width="0.1949" stroke-miterlimit="10"/>
<path d="M136.4 385.9L523.1 609.2" stroke="#758D9E" stroke-width="0.1949" stroke-miterlimit="10"/>
<path d="M124.8 392.6L511.6 615.9" stroke="#758D9E" stroke-width="0.1949" stroke-miterlimit="10"/>
<path d="M113.3 399.3L500 622.5" stroke="#758D9E" stroke-width="0.1949" stroke-miterlimit="10"/>
<path d="M101.7 405.9L488.5 629.2" stroke="#758D9E" stroke-width="0.1949" stroke-miterlimit="10"/>
<path d="M90.1997 412.6L476.9 635.9" stroke="#758D9E" stroke-width="0.1949" stroke-miterlimit="10"/>
<path d="M78.6997 419.3L465.4 642.5" stroke="#758D9E" stroke-width="0.1949" stroke-miterlimit="10"/>
<path d="M67.0996 425.9L453.8 649.2" stroke="#758D9E" stroke-width="0.1949" stroke-miterlimit="10"/>
<path d="M55.5996 432.6L442.3 655.9" stroke="#758D9E" stroke-width="0.1949" stroke-miterlimit="10"/>
<path d="M44 439.3L430.7 662.5" stroke="#758D9E" stroke-width="0.1949" stroke-miterlimit="10"/>
<path d="M32.5 445.9L419.2 669.2" stroke="#758D9E" stroke-width="0.1949" stroke-miterlimit="10"/>
<path d="M20.8999 452.6L407.7 675.9" stroke="#758D9E" stroke-width="0.1949" stroke-miterlimit="10"/>
<path d="M9.3999 459.3L396.1 682.5" stroke="#758D9E" stroke-width="0.1949" stroke-miterlimit="10"/>
<path d="M-2.2002 465.9L384.6 689.2" stroke="#758D9E" stroke-width="0.1949" stroke-miterlimit="10"/>
<path d="M-13.7002 472.6L373 695.9" stroke="#758D9E" stroke-width="0.1949" stroke-miterlimit="10"/>
<path d="M-25.3003 479.3L361.5 702.5" stroke="#758D9E" stroke-width="0.1949" stroke-miterlimit="10"/>
<path d="M-36.8003 485.9L349.9 709.2" stroke="#758D9E" stroke-width="0.1949" stroke-miterlimit="10"/>
<path d="M-48.4004 492.6L338.4 715.9" stroke="#758D9E" stroke-width="0.1949" stroke-miterlimit="10"/>
<path d="M-59.9004 499.3L326.8 722.5" stroke="#758D9E" stroke-width="0.1949" stroke-miterlimit="10"/>
<path d="M-71.4004 505.9L315.3 729.2" stroke="#758D9E" stroke-width="0.1949" stroke-miterlimit="10"/>
<path d="M-83 512.6L303.7 735.9" stroke="#758D9E" stroke-width="0.1949" stroke-miterlimit="10"/>
<path d="M-94.5 519.3L292.2 742.5" stroke="#758D9E" stroke-width="0.1949" stroke-miterlimit="10"/>
<path d="M-106.1 525.9L280.6 749.2" stroke="#758D9E" stroke-width="0.1949" stroke-miterlimit="10"/>
<path d="M-117.6 532.6L269.1 755.9" stroke="#758D9E" stroke-width="0.1949" stroke-miterlimit="10"/>
<path d="M-129.2 539.3L257.6 762.5" stroke="#758D9E" stroke-width="0.1949" stroke-miterlimit="10"/>
<path d="M405.2 469.4L286.5 537.9L167.8 469.4L286.5 400.9L405.2 469.4Z" fill="#A5B7C6"/>
<path d="M405.2 426.2L286.5 494.7L167.8 426.2L286.5 357.7L405.2 426.2Z" fill="url(#paint0_linear_858_19297)"/>
<path d="M286.5 494.7V528L167.8 459.5V426.2L286.5 494.7Z" fill="url(#paint1_linear_858_19297)"/>
<path d="M405.201 426.2V459.5L286.5 528V494.7L405.201 426.2Z" fill="url(#paint2_linear_858_19297)"/>
<path d="M405.2 426.2L286.5 494.7L167.8 426.2L286.5 357.7L405.2 426.2Z" stroke="white" stroke-width="2" stroke-miterlimit="10" stroke-linecap="round" stroke-linejoin="round"/>
<path d="M405.2 393.4L286.5 461.9L167.8 393.4L286.5 324.9L405.2 393.4Z" fill="url(#paint3_linear_858_19297)"/>
<path opacity="0.5" d="M375.401 393.4L286.5 444.8L197.5 393.4L286.5 342L375.401 393.4Z" fill="url(#paint4_radial_858_19297)"/>
<path d="M286.5 461.9V471.8L167.8 403.2V393.4L286.5 461.9Z" fill="url(#paint5_linear_858_19297)"/>
<path d="M405.201 393.4V403.2L286.5 471.8V461.9L405.201 393.4Z" fill="url(#paint6_linear_858_19297)"/>
<path d="M257.8 354.8L250 350.3L248.4 351.2L256.2 355.7L257.8 354.8ZM298.3 336.1L296.7 335.2L288.9 339.7L290.5 340.6L298.3 336.1ZM247.4 360.9L239.6 356.4L238 357.3L245.8 361.8L247.4 360.9ZM242.1 363.9L234.3 359.4L232.7 360.3L240.5 364.8L242.1 363.9ZM278.8 342.7L271 338.2L269.4 339.1L277.2 343.6L278.8 342.7ZM193.5 394.8L185.7 399.3L187.3 400.2L195.1 395.7L193.5 394.8ZM263.1 351.8L255.3 347.3L253.7 348.2L261.5 352.7L263.1 351.8ZM236.9 366.9L229.1 362.4L227.5 363.3L235.3 367.8L236.9 366.9ZM268.3 348.8L260.5 344.3L258.9 345.2L266.7 349.7L268.3 348.8ZM252.6 357.8L244.8 353.3L243.2 354.2L251 358.7L252.6 357.8ZM200.3 388.1L192.5 383.6L190.9 384.5L198.7 389L200.3 388.1ZM205.5 385L197.7 380.5L196.1 381.4L203.9 385.9L205.5 385ZM195 391.1L187.2 386.6L185.6 387.5L193.4 392L195 391.1ZM210.7 382L202.9 377.5L201.3 378.4L209.1 382.9L210.7 382ZM216 379L208.2 374.5L206.6 375.4L214.4 379.9L216 379ZM226.4 373L218.6 368.5L217 369.4L224.8 373.9L226.4 373ZM221.2 376L213.4 371.5L211.8 372.4L219.6 376.9L221.2 376ZM231.7 369.9L223.9 365.4L222.3 366.3L230.1 370.8L231.7 369.9ZM273.5 345.8L265.7 341.3L264.1 342.2L271.9 346.7L273.5 345.8ZM353.3 376.9L361.1 372.4L359.5 371.5L351.7 376L353.3 376.9ZM358.5 379.9L366.3 375.4L364.7 374.5L357 379L358.5 379.9ZM363.8 382.9L371.6 378.4L370 377.5L362.2 382L363.8 382.9ZM348.1 373.8L355.9 369.3L354.3 368.4L346.5 372.9L348.1 373.8ZM374.2 389L382 384.5L380.4 383.6L372.6 388.1L374.2 389ZM379.5 392L387.3 387.5L385.7 386.6L377.9 391.1L379.5 392ZM342.8 370.8L350.6 366.3L349 365.4L341.2 369.9L342.8 370.8ZM369 385.9L376.8 381.4L375.2 380.5L367.4 385L369 385.9ZM332.4 364.8L340.2 360.3L338.6 359.4L330.8 363.9L332.4 364.8ZM306.2 349.7L314 345.2L312.4 344.3L304.6 348.8L306.2 349.7ZM311.5 352.7L319.3 348.2L317.7 347.3L309.9 351.8L311.5 352.7ZM301 346.7L308.8 342.2L307.2 341.3L299.4 345.8L301 346.7ZM316.7 355.7L324.5 351.2L322.9 350.3L315.1 354.8L316.7 355.7ZM321.9 358.7L329.7 354.2L328.1 353.3L320.3 357.8L321.9 358.7ZM295.8 343.6L303.6 339.1L302 338.2L294.2 342.7L295.8 343.6ZM337.6 367.8L345.4 363.3L343.8 362.4L336 366.9L337.6 367.8ZM327.2 361.8L335 357.3L333.4 356.4L325.6 360.9L327.2 361.8ZM377.9 395.7L385.7 400.2L387.3 399.3L379.5 394.8L377.9 395.7ZM315.1 432L322.9 436.5L324.5 435.6L316.7 431.1L315.1 432ZM320.4 429L328.2 433.5L329.8 432.6L322 428.1L320.4 429ZM325.6 426L333.4 430.5L335 429.6L327.2 425.1L325.6 426ZM309.9 435L317.7 439.5L319.3 438.6L311.5 434.1L309.9 435ZM304.7 438L312.5 442.5L314.1 441.6L306.3 437.1L304.7 438ZM294.2 444.1L302 448.6L303.6 447.7L295.8 443.2L294.2 444.1ZM330.8 422.9L338.6 427.4L340.2 426.5L332.4 422L330.8 422.9ZM299.4 441.1L307.2 445.6L308.8 444.7L301 440.2L299.4 441.1ZM362.2 404.8L370 409.3L371.6 408.4L363.8 403.9L362.2 404.8ZM289 447.1L296.8 451.6L298.4 450.7L290.6 446.2L289 447.1ZM367.5 401.8L375.3 406.3L376.9 405.4L369.1 400.9L367.5 401.8ZM198.7 397.9L190.9 402.4L192.5 403.3L200.3 398.8L198.7 397.9ZM357 407.8L364.8 412.3L366.4 411.4L358.6 406.9L357 407.8ZM351.8 410.8L359.6 415.3L361.2 414.4L353.4 409.9L351.8 410.8ZM336.1 419.9L343.9 424.4L345.5 423.5L337.7 419L336.1 419.9ZM341.3 416.9L349.1 421.4L350.7 420.5L342.9 416L341.3 416.9ZM346.5 413.9L354.3 418.4L355.9 417.5L348.1 413L346.5 413.9ZM372.7 398.8L380.5 403.3L382.1 402.4L374.3 397.9L372.7 398.8ZM219.7 409.9L211.9 414.4L213.5 415.3L221.3 410.8L219.7 409.9ZM240.6 422L232.8 426.5L234.4 427.4L242.2 422.9L240.6 422ZM230.1 416L222.3 420.5L223.9 421.4L231.7 416.9L230.1 416ZM235.4 419L227.6 423.5L229.2 424.4L237 419.9L235.4 419ZM224.9 413L217.1 417.5L218.7 418.4L226.5 413.9L224.9 413ZM204 400.9L196.2 405.4L197.8 406.3L205.6 401.8L204 400.9ZM209.2 403.9L201.4 408.4L203 409.3L210.8 404.8L209.2 403.9ZM214.4 406.9L206.6 411.4L208.2 412.3L216 407.8L214.4 406.9ZM256.3 431.1L248.5 435.6L250.1 436.5L257.9 432L256.3 431.1ZM272 440.2L264.2 444.7L265.8 445.6L273.6 441.1L272 440.2ZM266.8 437.1L259 441.6L260.6 442.5L268.4 438L266.8 437.1ZM277.2 443.2L269.4 447.7L271 448.6L278.8 444.1L277.2 443.2ZM245.8 425.1L238 429.6L239.6 430.5L247.4 426L245.8 425.1ZM274.7 450.7L276.3 451.6L284.1 447.1L282.5 446.2L274.7 450.7ZM251.1 428.1L243.3 432.6L244.9 433.5L252.7 429L251.1 428.1ZM261.5 434.1L253.7 438.6L255.3 439.5L263.1 435L261.5 434.1ZM274.7 336.1L282.5 340.6L284.1 339.7L276.3 335.2L274.7 336.1Z" fill="white"/>
<path d="M294.3 384.6L284.3 390.4L278.6 387.1L289.9 380.6L285.9 378.3L269.6 387.7L291.2 400.2L296.2 397.3L288.3 392.8L298.3 387L294.3 384.6ZM259.5 393.5L272.6 401.1L248.8 399.7L244.7 402.1L266.3 414.6L271.2 411.7L258.1 404.1L282 405.5L286.1 403.1L264.5 390.6L259.5 393.5ZM303 373.1L309.9 369.1L305.8 366.7L287 377.6L291.1 380L298 376L315.5 386.1L320.5 383.2L303 373.1Z" fill="white"/>
<path d="M405.2 393.4L286.5 461.9L167.8 393.4L286.5 324.9L405.2 393.4Z" stroke="white" stroke-width="0.8976" stroke-miterlimit="10" stroke-linecap="round" stroke-linejoin="round"/>
<g style="mix-blend-mode:overlay">
<path d="M458.9 413.2L432.1 428.6L405.3 413.2L432.1 397.7L458.9 413.2Z" fill="#C3D3DD"/>
</g>
<path d="M453.3 383.5L432.1 395.7L410.9 383.5L432.1 371.3L453.3 383.5Z" fill="url(#paint7_linear_858_19297)"/>
<path d="M447.9 383.5L432.1 392.6L416.2 383.5L432.1 374.3L447.9 383.5Z" fill="white" fill-opacity="0.3"/>
<path d="M453.3 383.5V407.2L432.1 419.4V395.7L453.3 383.5Z" fill="url(#paint8_linear_858_19297)"/>
<path d="M432.1 395.7V419.4L410.9 407.2V383.5L432.1 395.7Z" fill="url(#paint9_linear_858_19297)"/>
<g style="mix-blend-mode:screen">
<path d="M448 299H416V384H448V299Z" fill="url(#paint10_linear_858_19297)"/>
</g>
<g style="mix-blend-mode:overlay">
<path d="M522.7 519.4L489 538.9L455.3 519.4L489 500L522.7 519.4Z" fill="#C3D3DD"/>
</g>
<path d="M515.6 482.1L489 497.5L462.4 482.1L489 466.7L515.6 482.1Z" fill="url(#paint11_linear_858_19297)"/>
<path d="M509 482.1L489 493.6L469 482.1L489 470.6L509 482.1Z" fill="white" fill-opacity="0.3"/>
<path d="M515.6 482.1V511.9L489 527.2V497.5L515.6 482.1Z" fill="url(#paint12_linear_858_19297)"/>
<path d="M489 497.5V527.2L462.4 511.9V482.1L489 497.5Z" fill="url(#paint13_linear_858_19297)"/>
<g style="mix-blend-mode:screen">
<path d="M509 292H469V482H509V292Z" fill="url(#paint14_linear_858_19297)"/>
</g>
<g style="mix-blend-mode:overlay">
<path d="M420.3 568.7L375.4 594.6L330.5 568.7L375.4 542.8L420.3 568.7Z" fill="#C3D3DD"/>
</g>
<path d="M410.9 518.9L375.4 539.4L339.9 518.9L375.4 498.4L410.9 518.9Z" fill="url(#paint15_linear_858_19297)"/>
<path d="M402 518.9L375.4 534.2L348.8 518.9L375.4 503.5L402 518.9Z" fill="white" fill-opacity="0.3"/>
<path d="M410.9 518.9V558.6L375.4 579.1V539.4L410.9 518.9Z" fill="url(#paint16_linear_858_19297)"/>
<path d="M375.4 539.4V579.1L339.9 558.6V518.9L375.4 539.4Z" fill="url(#paint17_linear_858_19297)"/>
<g style="mix-blend-mode:screen">
<path d="M402 107.3H348.8V518.9H402V107.3Z" fill="url(#paint18_linear_858_19297)"/>
</g>
<g style="mix-blend-mode:overlay">
<path d="M108.1 413.2L134.8 428.6L161.6 413.2L134.8 397.7L108.1 413.2Z" fill="#C3D3DD"/>
</g>
<path d="M113.7 383.5L134.8 395.7L156 383.5L134.8 371.3L113.7 383.5Z" fill="url(#paint19_linear_858_19297)"/>
<path d="M119 383.5L134.8 392.6L150.7 383.5L134.8 374.3L119 383.5Z" fill="white" fill-opacity="0.3"/>
<path d="M113.7 383.5V407.2L134.8 419.4V395.7L113.7 383.5Z" fill="url(#paint20_linear_858_19297)"/>
<path d="M134.8 395.7V419.4L156 407.2V383.5L134.8 395.7Z" fill="url(#paint21_linear_858_19297)"/>
<g style="mix-blend-mode:screen">
<path d="M150.7 237.8H119V383.5H150.7V237.8Z" fill="url(#paint22_linear_858_19297)"/>
</g>
<g style="mix-blend-mode:overlay">
<path d="M44.2002 519.4L77.9002 538.9L111.6 519.4L77.9002 500L44.2002 519.4Z" fill="#C3D3DD"/>
</g>
<path d="M51.3003 482.1L77.9003 497.5L104.6 482.1L77.9003 466.7L51.3003 482.1Z" fill="url(#paint23_linear_858_19297)"/>
<path d="M58 482.1L77.9 493.6L97.9 482.1L77.9 470.6L58 482.1Z" fill="white" fill-opacity="0.3"/>
<path d="M51.3003 482.1V511.9L77.9003 527.2V497.5L51.3003 482.1Z" fill="url(#paint24_linear_858_19297)"/>
<path d="M77.9004 497.5V527.2L104.6 511.9V482.1L77.9004 497.5Z" fill="url(#paint25_linear_858_19297)"/>
<g style="mix-blend-mode:screen">
<path d="M97.9 112.7H58V482.1H97.9V112.7Z" fill="url(#paint26_linear_858_19297)"/>
</g>
<g style="mix-blend-mode:overlay">
<path d="M146.6 568.7L191.5 594.6L236.4 568.7L191.5 542.8L146.6 568.7Z" fill="#C3D3DD"/>
</g>
<path d="M156 518.9L191.5 539.4L227 518.9L191.5 498.4L156 518.9Z" fill="url(#paint27_linear_858_19297)"/>
<path d="M164.9 518.9L191.5 534.2L218.1 518.9L191.5 503.5L164.9 518.9Z" fill="white" fill-opacity="0.3"/>
<path d="M156 518.9V558.6L191.5 579.1V539.4L156 518.9Z" fill="url(#paint28_linear_858_19297)"/>
<path d="M191.5 539.4V579.1L227 558.6V518.9L191.5 539.4Z" fill="url(#paint29_linear_858_19297)"/>
<g style="mix-blend-mode:screen">
<path d="M218.1 107.3H164.9V518.9H218.1V107.3Z" fill="url(#paint30_linear_858_19297)"/>
</g>
<g style="mix-blend-mode:screen">
<path d="M334.9 341.1C347.161 341.1 357.1 331.16 357.1 318.9C357.1 306.639 347.161 296.7 334.9 296.7C322.639 296.7 312.7 306.639 312.7 318.9C312.7 331.16 322.639 341.1 334.9 341.1Z" fill="url(#paint31_radial_858_19297)"/>
</g>
<g style="mix-blend-mode:screen">
<path d="M252.6 522.2C264.861 522.2 274.8 512.261 274.8 500C274.8 487.739 264.861 477.8 252.6 477.8C240.339 477.8 230.4 487.739 230.4 500C230.4 512.261 240.339 522.2 252.6 522.2Z" fill="url(#paint32_radial_858_19297)"/>
</g>
<g style="mix-blend-mode:screen">
<path d="M108.9 311.1C114.091 311.1 118.3 306.891 118.3 301.7C118.3 296.508 114.091 292.3 108.9 292.3C103.709 292.3 99.5 296.508 99.5 301.7C99.5 306.891 103.709 311.1 108.9 311.1Z" fill="url(#paint33_radial_858_19297)"/>
</g>
<g style="mix-blend-mode:screen">
<path d="M421.5 476.1C426.692 476.1 430.9 471.891 430.9 466.7C430.9 461.508 426.692 457.3 421.5 457.3C416.309 457.3 412.1 461.508 412.1 466.7C412.1 471.891 416.309 476.1 421.5 476.1Z" fill="url(#paint34_radial_858_19297)"/>
</g>
<g style="mix-blend-mode:screen">
<path d="M144.3 448.9C149.491 448.9 153.7 444.691 153.7 439.5C153.7 434.308 149.491 430.1 144.3 430.1C139.108 430.1 134.9 434.308 134.9 439.5C134.9 444.691 139.108 448.9 144.3 448.9Z" fill="url(#paint35_radial_858_19297)"/>
</g>
</g>
<defs>
<linearGradient id="paint0_linear_858_19297" x1="167.808" y1="426.174" x2="405.163" y2="426.174" gradientUnits="userSpaceOnUse">
<stop stop-color="#5192A8"/>
<stop offset="0.3366" stop-color="#35568A"/>
<stop offset="0.6376" stop-color="#1F2773"/>
<stop offset="0.8679" stop-color="#110B64"/>
<stop offset="1" stop-color="#0C005F"/>
</linearGradient>
<linearGradient id="paint1_linear_858_19297" x1="120.497" y1="414.324" x2="264.285" y2="498.967" gradientUnits="userSpaceOnUse">
<stop stop-color="#81E6EB"/>
<stop offset="1" stop-color="#477EC7"/>
</linearGradient>
<linearGradient id="paint2_linear_858_19297" x1="186.331" y1="468.337" x2="473.995" y2="484.151" gradientUnits="userSpaceOnUse">
<stop stop-color="#5192A8"/>
<stop offset="0.3366" stop-color="#35568A"/>
<stop offset="0.6376" stop-color="#1F2773"/>
<stop offset="0.8679" stop-color="#110B64"/>
<stop offset="1" stop-color="#0C005F"/>
</linearGradient>
<linearGradient id="paint3_linear_858_19297" x1="167.808" y1="393.408" x2="405.163" y2="393.408" gradientUnits="userSpaceOnUse">
<stop stop-color="#81E6EB"/>
<stop offset="0.6823" stop-color="#4073A3"/>
<stop offset="1" stop-color="#244284"/>
</linearGradient>
<radialGradient id="paint4_radial_858_19297" cx="0" cy="0" r="1" gradientUnits="userSpaceOnUse" gradientTransform="translate(259.747 403.959) scale(142.776 142.94)">
<stop stop-color="#42E8E0"/>
<stop offset="0.1055" stop-color="#37B6BF"/>
<stop offset="0.2197" stop-color="#2C87A1"/>
<stop offset="0.338" stop-color="#235F87"/>
<stop offset="0.4587" stop-color="#1C3F72"/>
<stop offset="0.5824" stop-color="#162561"/>
<stop offset="0.7105" stop-color="#121355"/>
<stop offset="0.8458" stop-color="#10084E"/>
<stop offset="1" stop-color="#0F054C"/>
</radialGradient>
<linearGradient id="paint5_linear_858_19297" x1="128.76" y1="374.666" x2="261.407" y2="452.75" gradientUnits="userSpaceOnUse">
<stop stop-color="#81E6EB"/>
<stop offset="1" stop-color="#477EC7"/>
</linearGradient>
<linearGradient id="paint6_linear_858_19297" x1="281.521" y1="468.967" x2="406.099" y2="398.478" gradientUnits="userSpaceOnUse">
<stop stop-color="#5192A8"/>
<stop offset="0.3366" stop-color="#35568A"/>
<stop offset="0.6376" stop-color="#1F2773"/>
<stop offset="0.8679" stop-color="#110B64"/>
<stop offset="1" stop-color="#0C005F"/>
</linearGradient>
<linearGradient id="paint7_linear_858_19297" x1="410.925" y1="383.48" x2="453.252" y2="383.48" gradientUnits="userSpaceOnUse">
<stop stop-color="#85FFEF"/>
<stop offset="0.0429164" stop-color="#7FF7EC"/>
<stop offset="0.7074" stop-color="#247DC2"/>
<stop offset="1" stop-color="#004CB1"/>
</linearGradient>
<linearGradient id="paint8_linear_858_19297" x1="437.526" y1="387.206" x2="450.485" y2="423.036" gradientUnits="userSpaceOnUse">
<stop stop-color="#2585CD"/>
<stop offset="0.613" stop-color="#18317D"/>
<stop offset="1" stop-color="#11004F"/>
</linearGradient>
<linearGradient id="paint9_linear_858_19297" x1="423.918" y1="389.019" x2="418.969" y2="414.487" gradientUnits="userSpaceOnUse">
<stop stop-color="#85FFEF"/>
<stop offset="0.13" stop-color="#73E4E8"/>
<stop offset="0.7338" stop-color="#216AC6"/>
<stop offset="1" stop-color="#0039B9"/>
</linearGradient>
<linearGradient id="paint10_linear_858_19297" x1="432.038" y1="385.702" x2="432.038" y2="303.637" gradientUnits="userSpaceOnUse">
<stop stop-color="#5995B6"/>
<stop offset="0.0579814" stop-color="#548CAB"/>
<stop offset="0.712" stop-color="#182831"/>
<stop offset="1"/>
</linearGradient>
<linearGradient id="paint11_linear_858_19297" x1="462.369" y1="482.078" x2="515.631" y2="482.078" gradientUnits="userSpaceOnUse">
<stop stop-color="#85FFEF"/>
<stop offset="0.0429164" stop-color="#7FF7EC"/>
<stop offset="0.7074" stop-color="#247DC2"/>
<stop offset="1" stop-color="#004CB1"/>
</linearGradient>
<linearGradient id="paint12_linear_858_19297" x1="495.842" y1="486.766" x2="512.15" y2="531.853" gradientUnits="userSpaceOnUse">
<stop stop-color="#2585CD"/>
<stop offset="0.613" stop-color="#18317D"/>
<stop offset="1" stop-color="#11004F"/>
</linearGradient>
<linearGradient id="paint13_linear_858_19297" x1="478.719" y1="489.047" x2="472.491" y2="521.096" gradientUnits="userSpaceOnUse">
<stop stop-color="#85FFEF"/>
<stop offset="0.13" stop-color="#73E4E8"/>
<stop offset="0.7338" stop-color="#216AC6"/>
<stop offset="1" stop-color="#0039B9"/>
</linearGradient>
<linearGradient id="paint14_linear_858_19297" x1="489.05" y1="485.822" x2="489.05" y2="302.326" gradientUnits="userSpaceOnUse">
<stop stop-color="#5995B6"/>
<stop offset="0.0579814" stop-color="#548CAB"/>
<stop offset="0.712" stop-color="#182831"/>
<stop offset="1"/>
</linearGradient>
<linearGradient id="paint15_linear_858_19297" x1="339.909" y1="518.876" x2="410.925" y2="518.876" gradientUnits="userSpaceOnUse">
<stop stop-color="#85FFEF"/>
<stop offset="0.0429164" stop-color="#7FF7EC"/>
<stop offset="0.7074" stop-color="#247DC2"/>
<stop offset="1" stop-color="#004CB1"/>
</linearGradient>
<linearGradient id="paint16_linear_858_19297" x1="384.54" y1="525.127" x2="406.284" y2="585.243" gradientUnits="userSpaceOnUse">
<stop stop-color="#2585CD"/>
<stop offset="0.613" stop-color="#18317D"/>
<stop offset="1" stop-color="#11004F"/>
</linearGradient>
<linearGradient id="paint17_linear_858_19297" x1="361.709" y1="528.168" x2="353.406" y2="570.9" gradientUnits="userSpaceOnUse">
<stop stop-color="#85FFEF"/>
<stop offset="0.13" stop-color="#73E4E8"/>
<stop offset="0.7338" stop-color="#216AC6"/>
<stop offset="1" stop-color="#0039B9"/>
</linearGradient>
<linearGradient id="paint18_linear_858_19297" x1="375.415" y1="527.178" x2="375.415" y2="129.689" gradientUnits="userSpaceOnUse">
<stop stop-color="#5995B6"/>
<stop offset="0.0579814" stop-color="#548CAB"/>
<stop offset="0.712" stop-color="#182831"/>
<stop offset="1"/>
</linearGradient>
<linearGradient id="paint19_linear_858_19297" x1="156.006" y1="383.48" x2="113.68" y2="383.48" gradientUnits="userSpaceOnUse">
<stop stop-color="#85FFEF"/>
<stop offset="0.0429164" stop-color="#7FF7EC"/>
<stop offset="0.7074" stop-color="#247DC2"/>
<stop offset="1" stop-color="#004CB1"/>
</linearGradient>
<linearGradient id="paint20_linear_858_19297" x1="129.406" y1="387.206" x2="116.446" y2="423.036" gradientUnits="userSpaceOnUse">
<stop stop-color="#2585CD"/>
<stop offset="0.613" stop-color="#18317D"/>
<stop offset="1" stop-color="#11004F"/>
</linearGradient>
<linearGradient id="paint21_linear_858_19297" x1="143.013" y1="389.019" x2="147.962" y2="414.487" gradientUnits="userSpaceOnUse">
<stop stop-color="#85FFEF"/>
<stop offset="0.13" stop-color="#73E4E8"/>
<stop offset="0.7338" stop-color="#216AC6"/>
<stop offset="1" stop-color="#0039B9"/>
</linearGradient>
<linearGradient id="paint22_linear_858_19297" x1="134.844" y1="386.418" x2="134.844" y2="245.748" gradientUnits="userSpaceOnUse">
<stop stop-color="#5995B6"/>
<stop offset="0.0579814" stop-color="#548CAB"/>
<stop offset="0.712" stop-color="#182831"/>
<stop offset="1"/>
</linearGradient>
<linearGradient id="paint23_linear_858_19297" x1="104.562" y1="482.078" x2="51.2999" y2="482.078" gradientUnits="userSpaceOnUse">
<stop stop-color="#85FFEF"/>
<stop offset="0.0429164" stop-color="#7FF7EC"/>
<stop offset="0.7074" stop-color="#247DC2"/>
<stop offset="1" stop-color="#004CB1"/>
</linearGradient>
<linearGradient id="paint24_linear_858_19297" x1="71.0889" y1="486.766" x2="54.7808" y2="531.853" gradientUnits="userSpaceOnUse">
<stop stop-color="#2585CD"/>
<stop offset="0.613" stop-color="#18317D"/>
<stop offset="1" stop-color="#11004F"/>
</linearGradient>
<linearGradient id="paint25_linear_858_19297" x1="88.2123" y1="489.047" x2="94.4397" y2="521.095" gradientUnits="userSpaceOnUse">
<stop stop-color="#85FFEF"/>
<stop offset="0.13" stop-color="#73E4E8"/>
<stop offset="0.7338" stop-color="#216AC6"/>
<stop offset="1" stop-color="#0039B9"/>
</linearGradient>
<linearGradient id="paint26_linear_858_19297" x1="77.931" y1="489.53" x2="77.931" y2="132.776" gradientUnits="userSpaceOnUse">
<stop stop-color="#5995B6"/>
<stop offset="0.0579814" stop-color="#548CAB"/>
<stop offset="0.712" stop-color="#182831"/>
<stop offset="1"/>
</linearGradient>
<linearGradient id="paint27_linear_858_19297" x1="227.022" y1="518.876" x2="156.006" y2="518.876" gradientUnits="userSpaceOnUse">
<stop stop-color="#85FFEF"/>
<stop offset="0.0429164" stop-color="#7FF7EC"/>
<stop offset="0.7074" stop-color="#247DC2"/>
<stop offset="1" stop-color="#004CB1"/>
</linearGradient>
<linearGradient id="paint28_linear_858_19297" x1="182.391" y1="525.127" x2="160.646" y2="585.243" gradientUnits="userSpaceOnUse">
<stop stop-color="#2585CD"/>
<stop offset="0.613" stop-color="#18317D"/>
<stop offset="1" stop-color="#11004F"/>
</linearGradient>
<linearGradient id="paint29_linear_858_19297" x1="205.222" y1="528.169" x2="213.525" y2="570.9" gradientUnits="userSpaceOnUse">
<stop stop-color="#85FFEF"/>
<stop offset="0.13" stop-color="#73E4E8"/>
<stop offset="0.7338" stop-color="#216AC6"/>
<stop offset="1" stop-color="#0039B9"/>
</linearGradient>
<linearGradient id="paint30_linear_858_19297" x1="191.516" y1="527.178" x2="191.516" y2="129.689" gradientUnits="userSpaceOnUse">
<stop stop-color="#5995B6"/>
<stop offset="0.0579814" stop-color="#548CAB"/>
<stop offset="0.712" stop-color="#182831"/>
<stop offset="1"/>
</linearGradient>
<radialGradient id="paint31_radial_858_19297" cx="0" cy="0" r="1" gradientUnits="userSpaceOnUse" gradientTransform="translate(334.903 318.935) scale(22.2284)">
<stop stop-color="#00FFFF"/>
<stop offset="0.0799246" stop-color="#00DBDB"/>
<stop offset="0.2207" stop-color="#00A2A2"/>
<stop offset="0.3619" stop-color="#007070"/>
<stop offset="0.5002" stop-color="#004848"/>
<stop offset="0.635" stop-color="#002929"/>
<stop offset="0.7653" stop-color="#001212"/>
<stop offset="0.8892" stop-color="#000505"/>
<stop offset="1"/>
</radialGradient>
<radialGradient id="paint32_radial_858_19297" cx="0" cy="0" r="1" gradientUnits="userSpaceOnUse" gradientTransform="translate(252.606 499.99) scale(22.2284)">
<stop stop-color="#00FFFF"/>
<stop offset="0.0799246" stop-color="#00DBDB"/>
<stop offset="0.2207" stop-color="#00A2A2"/>
<stop offset="0.3619" stop-color="#007070"/>
<stop offset="0.5002" stop-color="#004848"/>
<stop offset="0.635" stop-color="#002929"/>
<stop offset="0.7653" stop-color="#001212"/>
<stop offset="0.8892" stop-color="#000505"/>
<stop offset="1"/>
</radialGradient>
<radialGradient id="paint33_radial_858_19297" cx="0" cy="0" r="1" gradientUnits="userSpaceOnUse" gradientTransform="translate(108.874 301.656) scale(9.42379)">
<stop stop-color="#00FFFF"/>
<stop offset="0.0799246" stop-color="#00DBDB"/>
<stop offset="0.2207" stop-color="#00A2A2"/>
<stop offset="0.3619" stop-color="#007070"/>
<stop offset="0.5002" stop-color="#004848"/>
<stop offset="0.635" stop-color="#002929"/>
<stop offset="0.7653" stop-color="#001212"/>
<stop offset="0.8892" stop-color="#000505"/>
<stop offset="1"/>
</radialGradient>
<radialGradient id="paint34_radial_858_19297" cx="0" cy="0" r="1" gradientUnits="userSpaceOnUse" gradientTransform="translate(421.507 466.702) scale(9.42382)">
<stop stop-color="#00FFFF"/>
<stop offset="0.0799246" stop-color="#00DBDB"/>
<stop offset="0.2207" stop-color="#00A2A2"/>
<stop offset="0.3619" stop-color="#007070"/>
<stop offset="0.5002" stop-color="#004848"/>
<stop offset="0.635" stop-color="#002929"/>
<stop offset="0.7653" stop-color="#001212"/>
<stop offset="0.8892" stop-color="#000505"/>
<stop offset="1"/>
</radialGradient>
<radialGradient id="paint35_radial_858_19297" cx="0" cy="0" r="1" gradientUnits="userSpaceOnUse" gradientTransform="translate(144.268 439.488) scale(9.42381)">
<stop stop-color="#00FFFF"/>
<stop offset="0.0799246" stop-color="#00DBDB"/>
<stop offset="0.2207" stop-color="#00A2A2"/>
<stop offset="0.3619" stop-color="#007070"/>
<stop offset="0.5002" stop-color="#004848"/>
<stop offset="0.635" stop-color="#002929"/>
<stop offset="0.7653" stop-color="#001212"/>
<stop offset="0.8892" stop-color="#000505"/>
<stop offset="1"/>
</radialGradient>
<clipPath id="clip0_858_19297">
<rect width="548" height="650" fill="white"/>
</clipPath>
</defs>
</svg>
