<svg width="549" height="650" viewBox="0 0 549 650" fill="none" xmlns="http://www.w3.org/2000/svg">
<path d="M170.145 579.373C165.808 579.373 161.471 578.539 158.468 576.704L4.83744 487.962C1.83489 486.127 0 483.792 0 480.956C0 477.62 2.50213 474.45 6.67234 471.948L299.588 302.971C307.595 298.3 319.605 297.8 326.611 301.803L480.242 390.546C483.244 392.38 485.079 394.716 485.079 397.552C485.079 400.888 482.577 404.057 478.407 406.559L185.324 575.536C180.987 578.038 175.483 579.373 170.145 579.373ZM158.802 576.037C165.474 579.873 177.317 579.373 185.157 574.869L478.073 405.725C482.077 403.39 484.412 400.387 484.412 397.385C484.412 394.883 482.911 392.714 479.908 391.046L326.277 302.304C319.605 298.467 307.762 298.968 299.922 303.472L7.17277 472.615C3.16936 474.951 0.834043 477.953 0.834043 480.956C0.834043 483.458 2.33531 485.626 5.33787 487.295L158.802 576.037Z" fill="#42E8E0"/>
<path d="M484.579 356.518L462.56 360.354L326.444 281.787C319.605 277.784 307.762 278.284 299.755 282.955L39.3667 433.083L0.333496 439.755V453.6C0.333496 456.102 1.83478 458.604 5.00414 460.272L158.635 549.015C165.474 553.018 177.317 552.518 185.324 547.847L478.073 378.87C482.243 376.368 484.579 373.365 484.579 370.363V356.518Z" fill="url(#paint0_linear_858_19295)"/>
<path d="M158.635 535.169L5.00425 446.427C-1.8349 442.424 -1.00086 435.585 6.83914 431.081L299.755 261.937C307.595 257.433 319.605 256.933 326.444 260.769L480.075 349.512C486.914 353.515 486.08 360.354 478.24 364.858L185.157 534.002C177.317 538.672 165.474 539.173 158.635 535.169Z" fill="#24126A"/>
<path d="M478.073 365.025L185.157 534.002C177.317 538.505 165.307 539.006 158.468 535.169L5.00391 446.427C2.33497 444.926 0.833697 442.757 0.50008 440.589C-0.00034585 443.425 1.50093 446.26 5.00391 448.262L158.635 537.004C165.474 541.008 177.317 540.507 185.324 535.837L478.073 366.693C482.744 364.024 484.912 360.354 484.578 357.185C484.078 359.854 481.909 362.689 478.073 365.025Z" fill="white"/>
<path opacity="0.51" d="M158.969 531.667L10.8426 446.094C4.17026 442.257 5.0043 435.585 12.6775 431.248L300.089 265.273C307.762 260.936 319.272 260.436 325.944 264.273L474.07 349.845C480.742 353.682 479.908 360.354 472.235 364.691L184.824 530.666C176.984 535.003 165.474 535.503 158.969 531.667Z" fill="#453C9E"/>
<path opacity="0.5" d="M158.969 527.829L10.8426 442.256C4.17026 438.42 5.0043 431.748 12.6775 427.411L300.089 261.436C307.762 257.099 319.272 256.599 325.944 260.435L474.07 346.008C480.742 349.845 479.908 356.517 472.235 360.854L184.824 526.828C176.984 531.165 165.474 531.666 158.969 527.829Z" fill="url(#paint1_radial_858_19295)"/>
<path opacity="0.8" d="M170.145 530.999C165.808 530.999 161.804 530.165 158.635 528.33L10.509 442.757C7.50646 441.089 5.83838 438.587 5.83838 435.918C5.83838 432.749 8.17369 429.412 12.3439 427.077L299.755 261.103C307.428 256.599 319.272 256.098 325.944 260.102L474.07 345.675C477.072 347.343 478.741 349.845 478.741 352.514C478.741 355.683 476.405 359.019 472.235 361.355L184.824 527.329C180.654 529.664 175.316 530.999 170.145 530.999ZM159.135 527.496C165.641 531.166 176.984 530.832 184.49 526.495L471.901 360.521C475.738 358.352 477.906 355.349 477.906 352.514C477.906 350.178 476.405 348.01 473.736 346.509L325.61 260.936C319.105 257.266 307.762 257.6 300.255 261.937L12.8443 427.911C9.00774 430.08 6.83923 433.082 6.83923 435.918C6.83923 438.253 8.3405 440.422 11.0094 441.923L159.135 527.496Z" fill="url(#paint2_linear_858_19295)"/>
<path d="M170.144 530.832C165.807 530.832 161.804 529.998 158.801 528.163L10.6755 442.59C7.67297 440.922 6.00488 438.42 6.00488 435.918C6.00488 432.749 8.3402 429.579 12.5104 427.244L299.921 261.27C307.595 256.766 319.271 256.265 326.11 260.269L474.236 345.842C477.239 347.51 478.907 350.012 478.907 352.514C478.907 355.683 476.572 358.853 472.401 361.188L184.99 527.162C180.653 529.498 175.149 530.832 170.144 530.832ZM159.135 527.663C165.641 531.499 176.984 530.999 184.657 526.662L472.068 360.688C475.904 358.352 478.24 355.516 478.24 352.514C478.24 350.179 476.738 348.01 473.903 346.342L325.777 260.769C319.271 256.933 307.928 257.433 300.255 261.77L12.844 427.745C9.00743 430.08 6.67212 432.916 6.67212 435.918C6.67212 438.253 8.17339 440.422 11.0091 442.09L159.135 527.663Z" fill="#42E8E0"/>
<path d="M19.35 447.261C19.1832 447.261 19.1832 447.261 19.0164 447.094C18.8496 446.927 19.0164 446.76 19.1832 446.593C25.6887 442.924 31.527 434.917 33.6955 426.576L60.5517 319.986C63.8878 306.808 74.23 297.8 81.7364 297.633C85.573 297.467 88.5755 299.802 89.7432 303.805L97.2495 327.826C98.0836 330.328 99.5849 332.163 101.753 332.997C104.256 333.998 107.592 333.497 111.095 331.496L116.433 328.493C122.604 324.99 128.276 317.484 130.444 309.644C134.114 297.133 143.956 288.793 150.962 288.292C154.632 287.959 157.467 289.793 158.969 293.13L167.309 311.312C168.31 313.313 169.811 314.815 171.646 315.482C174.148 316.316 177.318 315.816 180.487 313.981L186.659 310.478C193.164 306.808 199.17 298.468 201.004 290.127L227.861 174.862C230.863 161.851 241.372 152.51 249.045 152.01C252.882 151.843 255.884 153.845 257.219 157.848L298.087 272.946C298.921 275.281 300.422 277.116 302.591 277.783C305.093 278.784 308.429 278.284 311.765 276.282L332.783 264.439C332.95 264.272 333.117 264.439 333.284 264.605C333.45 264.772 333.284 264.939 333.117 265.106L312.099 276.949C308.596 278.951 305.093 279.451 302.257 278.45C300.089 277.616 298.421 275.782 297.42 273.113L256.552 158.015C255.217 154.345 252.548 152.51 249.045 152.677C241.706 153.01 231.53 162.352 228.528 175.029L201.672 290.294C199.67 298.801 193.832 307.142 186.993 310.978L180.821 314.481C177.484 316.316 174.148 316.983 171.313 316.149C169.144 315.482 167.476 313.981 166.475 311.645L158.135 293.463C156.633 290.294 154.131 288.793 150.795 288.959C143.956 289.46 134.448 297.633 130.945 309.81C128.61 317.817 122.938 325.49 116.599 329.16L111.261 332.163C107.592 334.165 104.089 334.665 101.42 333.664C99.0844 332.83 97.4164 330.828 96.5823 327.993L89.0759 303.972C87.9083 300.136 85.2393 298.134 81.7364 298.134C74.5636 298.301 64.2215 307.308 61.0521 319.986L34.1959 426.576C32.1942 435.25 26.1891 443.424 19.35 447.261Z" fill="#42E8E0"/>
<path d="M41.869 460.439C41.7022 460.439 41.7022 460.439 41.5354 460.272C41.3686 460.105 41.5354 459.938 41.7022 459.771C48.2077 456.102 54.046 448.095 56.2145 439.754L83.0707 333.164C86.4069 319.986 96.749 310.978 104.255 310.811C108.092 310.645 111.095 312.98 112.262 316.983L119.769 341.004C120.603 343.506 122.104 345.341 124.272 346.175C126.775 347.176 130.111 346.675 133.614 344.673L138.952 341.671C145.123 338.168 150.795 330.662 152.964 322.822C156.633 310.311 166.475 301.97 173.481 301.47C177.151 301.136 179.986 302.971 181.488 306.307L189.828 324.49C190.829 326.491 192.33 327.993 194.165 328.66C196.667 329.494 199.837 328.993 203.006 327.159L209.178 323.656C215.684 319.986 221.689 311.645 223.523 303.305L250.38 188.04C253.382 175.029 263.891 165.688 271.564 165.188C271.731 165.188 271.898 165.188 272.065 165.188C275.735 165.188 278.404 167.189 279.738 171.026L320.606 286.124C321.44 288.459 322.941 290.294 325.11 290.961C327.612 291.962 330.948 291.462 334.284 289.46L355.469 277.45C355.636 277.283 355.803 277.45 355.969 277.616C356.136 277.783 355.97 277.95 355.803 278.117L334.618 290.127C331.115 292.129 327.612 292.629 324.776 291.628C322.608 290.794 320.94 288.959 319.939 286.29L279.071 171.193C277.736 167.523 275.067 165.688 271.564 165.855C264.225 166.188 254.049 175.53 251.047 188.207L224.524 303.472C222.523 311.979 216.684 320.319 209.845 324.156L203.673 327.659C200.337 329.494 197.001 330.161 194.165 329.327C191.997 328.66 190.329 327.159 189.328 324.823L180.987 306.641C179.486 303.472 176.984 301.97 173.648 302.137C166.809 302.638 157.301 310.811 153.798 322.988C151.462 330.995 145.791 338.668 139.452 342.338L134.114 345.341C130.444 347.342 126.941 347.843 124.272 346.842C121.937 346.008 120.269 344.006 119.435 341.17L111.929 317.15C110.761 313.313 108.092 311.145 104.589 311.312C97.4163 311.479 87.0741 320.486 83.9048 333.164L57.0486 439.754C54.7133 448.428 48.7082 456.769 41.869 460.439Z" fill="#42E8E0"/>
<path d="M276.402 167.022H276.235L253.549 153.677C253.382 153.511 253.382 153.344 253.382 153.177C253.549 153.01 253.716 153.01 253.883 153.01L276.569 166.355C276.736 166.522 276.736 166.689 276.736 166.855C276.569 166.855 276.569 167.022 276.402 167.022Z" fill="#42E8E0"/>
<path d="M178.819 303.639H178.652L155.633 290.127C155.466 289.96 155.466 289.794 155.466 289.627C155.633 289.46 155.799 289.46 155.966 289.46L178.986 302.971C179.153 303.138 179.153 303.305 179.153 303.472C178.986 303.639 178.986 303.639 178.819 303.639Z" fill="#42E8E0"/>
<path d="M109.093 312.98H108.926L84.9056 298.968C84.7388 298.801 84.7388 298.634 84.7388 298.468C84.9056 298.301 85.0724 298.301 85.2392 298.301L109.26 312.313C109.426 312.48 109.426 312.646 109.426 312.813C109.26 312.813 109.093 312.98 109.093 312.98Z" fill="#42E8E0"/>
<path d="M19.35 447.261C19.1832 447.261 19.1832 447.261 19.0164 447.094C18.8496 446.927 19.0164 446.76 19.1832 446.593C25.6887 442.924 31.527 434.917 33.6955 426.576L60.5517 319.986C63.8878 306.808 74.23 297.8 81.7364 297.633C85.573 297.467 88.5755 299.802 89.7432 303.805L97.2495 327.826C98.0836 330.328 99.5849 332.163 101.753 332.997C104.256 333.998 107.592 333.497 111.095 331.496L116.433 328.493C122.604 324.99 128.276 317.484 130.444 309.644C134.114 297.133 143.956 288.793 150.962 288.292C154.632 287.959 157.467 289.793 158.969 293.13L167.309 311.312C168.31 313.313 169.811 314.815 171.646 315.482C174.148 316.316 177.318 315.816 180.487 313.981L186.659 310.478C193.164 306.808 199.17 298.468 201.004 290.127L227.861 174.862C230.863 161.851 241.372 152.51 249.045 152.01C252.882 151.843 255.884 153.845 257.219 157.848L298.087 272.946C298.921 275.281 300.422 277.116 302.591 277.783C305.093 278.784 308.429 278.284 311.765 276.282L332.783 264.439C332.95 264.272 333.117 264.439 333.284 264.605C333.45 264.772 333.284 264.939 333.117 265.106L312.099 276.949C308.596 278.951 305.093 279.451 302.257 278.45C300.089 277.616 298.421 275.782 297.42 273.113L256.552 158.015C255.217 154.345 252.548 152.51 249.045 152.677C241.706 153.01 231.53 162.352 228.528 175.029L201.672 290.294C199.67 298.801 193.832 307.142 186.993 310.978L180.821 314.481C177.484 316.316 174.148 316.983 171.313 316.149C169.144 315.482 167.476 313.981 166.475 311.645L158.135 293.463C156.633 290.294 154.131 288.793 150.795 288.959C143.956 289.46 134.448 297.633 130.945 309.81C128.61 317.817 122.938 325.49 116.599 329.16L111.261 332.163C107.592 334.165 104.089 334.665 101.42 333.664C99.0844 332.83 97.4164 330.828 96.5823 327.993L89.0759 303.972C87.9083 300.136 85.2393 298.134 81.7364 298.134C74.5636 298.301 64.2215 307.308 61.0521 319.986L34.1959 426.576C32.1942 435.25 26.1891 443.424 19.35 447.261Z" fill="#42E8E0"/>
<path d="M41.869 460.439C41.7022 460.439 41.7022 460.439 41.5354 460.272C41.3686 460.105 41.5354 459.938 41.7022 459.771C48.2077 456.102 54.046 448.095 56.2145 439.754L83.0707 333.164C86.4069 319.986 96.749 310.978 104.255 310.811C108.092 310.645 111.095 312.98 112.262 316.983L119.769 341.004C120.603 343.506 122.104 345.341 124.272 346.175C126.775 347.176 130.111 346.675 133.614 344.673L138.952 341.671C145.123 338.168 150.795 330.662 152.964 322.822C156.633 310.311 166.475 301.97 173.481 301.47C177.151 301.136 179.986 302.971 181.488 306.307L189.828 324.49C190.829 326.491 192.33 327.993 194.165 328.66C196.667 329.494 199.837 328.993 203.006 327.159L209.178 323.656C215.684 319.986 221.689 311.645 223.523 303.305L250.38 188.04C253.382 175.029 263.891 165.688 271.564 165.188C271.731 165.188 271.898 165.188 272.065 165.188C275.735 165.188 278.404 167.189 279.738 171.026L320.606 286.124C321.44 288.459 322.941 290.294 325.11 290.961C327.612 291.962 330.948 291.462 334.284 289.46L355.469 277.45C355.636 277.283 355.803 277.45 355.969 277.616C356.136 277.783 355.97 277.95 355.803 278.117L334.618 290.127C331.115 292.129 327.612 292.629 324.776 291.628C322.608 290.794 320.94 288.959 319.939 286.29L279.071 171.193C277.736 167.523 275.067 165.688 271.564 165.855C264.225 166.188 254.049 175.53 251.047 188.207L224.524 303.472C222.523 311.979 216.684 320.319 209.845 324.156L203.673 327.659C200.337 329.494 197.001 330.161 194.165 329.327C191.997 328.66 190.329 327.159 189.328 324.823L180.987 306.641C179.486 303.472 176.984 301.97 173.648 302.137C166.809 302.638 157.301 310.811 153.798 322.988C151.462 330.995 145.791 338.668 139.452 342.338L134.114 345.341C130.444 347.342 126.941 347.843 124.272 346.842C121.937 346.008 120.269 344.006 119.435 341.17L111.929 317.15C110.761 313.313 108.092 311.145 104.589 311.312C97.4163 311.479 87.0741 320.486 83.9048 333.164L57.0486 439.754C54.7133 448.428 48.7082 456.769 41.869 460.439Z" fill="#42E8E0"/>
<path opacity="0.5" d="M333.284 264.772L312.266 276.616C305.927 280.285 300.256 278.784 298.087 273.113L257.219 158.015C252.548 144.837 232.865 156.513 228.528 175.029L201.672 290.294C199.67 298.634 193.832 307.142 187.159 310.811L180.987 314.314C174.982 317.65 169.478 316.65 167.309 311.645L158.969 293.463C153.798 282.12 135.949 292.629 131.112 309.81C128.776 317.817 123.105 325.324 116.933 328.827L111.595 331.829C105.09 335.499 99.2513 333.998 97.4164 327.826L89.91 303.805C85.573 290.294 65.8896 301.303 61.2189 319.986L34.3627 426.576C32.1942 434.917 26.3559 443.09 19.6836 446.76L333.284 264.772Z" fill="url(#paint3_linear_858_19295)"/>
<path opacity="0.5" d="M356.303 277.45L334.952 289.46C328.613 293.13 322.942 291.628 320.773 285.957L279.905 170.859C275.234 157.681 255.551 169.358 251.214 187.873L224.358 303.138C222.356 311.479 216.518 319.986 209.845 323.656L203.673 327.159C197.668 330.495 192.164 329.494 189.995 324.49L181.655 306.307C176.484 294.964 158.635 305.473 153.798 322.655C151.462 330.662 145.791 338.168 139.619 341.671L134.281 344.673C127.776 348.343 121.937 346.842 120.102 340.67L112.596 316.65C108.259 303.138 88.5756 314.147 83.9049 332.83L57.0488 439.421C54.8803 447.761 49.042 455.935 42.3696 459.604L356.303 277.45Z" fill="url(#paint4_linear_858_19295)"/>
<g style="mix-blend-mode:screen" opacity="0.8">
<path d="M382.216 589.26L242.636 508.461L408.564 412.637L548.145 493.269L382.216 589.26Z" fill="url(#paint5_radial_858_19295)"/>
</g>
<path d="M408.672 412.773L242.654 508.527L242.987 509.105L409.006 413.35L408.672 412.773Z" fill="#42E8E0"/>
<g opacity="0.4">
<g opacity="0.4">
<path opacity="0.4" d="M106.09 436.085L116.433 430.08C117.1 429.747 116.933 429.079 116.266 428.746L111.762 426.244C111.095 425.91 109.927 425.743 109.427 426.077L99.0844 432.082C98.4172 432.416 98.584 433.083 99.2512 433.416L103.755 435.919C104.422 436.419 105.423 436.586 106.09 436.085Z" fill="#24126A"/>
<path opacity="0.4" d="M117.434 442.758L127.776 436.753C128.443 436.419 128.276 435.752 127.609 435.418L123.105 432.916C122.438 432.582 121.27 432.416 120.77 432.749L110.428 438.754C109.76 439.088 109.927 439.755 110.594 440.089L115.098 442.591C115.766 443.091 116.933 443.258 117.434 442.758Z" fill="#24126A"/>
<path opacity="0.4" d="M128.943 449.597L139.285 443.592C139.952 443.258 139.785 442.591 139.118 442.258L134.614 439.755C133.947 439.422 132.78 439.255 132.279 439.589L121.937 445.594C121.27 445.927 121.437 446.595 122.104 446.928L126.608 449.43C127.275 449.764 128.276 449.931 128.943 449.597Z" fill="#24126A"/>
<path opacity="0.4" d="M140.286 456.269L150.628 450.264C151.296 449.931 151.129 449.264 150.462 448.93L145.958 446.428C145.29 446.094 144.123 445.927 143.622 446.261L133.28 452.266C132.613 452.6 132.78 453.267 133.447 453.601L137.951 456.103C138.618 456.436 139.786 456.603 140.286 456.269Z" fill="#24126A"/>
<path opacity="0.4" d="M151.796 462.942L162.138 456.937C162.805 456.603 162.639 455.936 161.971 455.602L157.467 453.1C156.8 452.767 155.633 452.6 155.132 452.933L144.79 458.938C144.123 459.272 144.29 459.939 144.957 460.273L149.461 462.775C150.128 463.109 151.129 463.275 151.796 462.942Z" fill="#24126A"/>
<path opacity="0.4" d="M163.306 469.614L173.648 463.609C174.315 463.275 174.148 462.608 173.481 462.274L168.977 459.772C168.31 459.438 167.142 459.272 166.642 459.605L156.3 465.61C155.633 465.944 155.799 466.611 156.467 466.945L160.97 469.447C161.638 469.78 162.638 469.947 163.306 469.614Z" fill="#24126A"/>
<path opacity="0.4" d="M174.649 476.286L184.991 470.281C185.658 469.947 185.491 469.28 184.824 468.946L180.32 466.444C179.653 466.111 178.485 465.944 177.985 466.278L167.643 472.283C166.975 472.616 167.142 473.283 167.809 473.617L172.313 476.119C172.98 476.62 173.981 476.62 174.649 476.286Z" fill="#24126A"/>
<path opacity="0.4" d="M186.158 482.958L196.5 476.953C197.168 476.62 197.001 475.952 196.334 475.619L191.83 473.117C191.163 472.783 189.995 472.616 189.494 472.95L179.152 478.955C178.485 479.289 178.652 479.956 179.319 480.289L183.823 482.792C184.49 483.292 185.491 483.292 186.158 482.958Z" fill="#24126A"/>
</g>
<g opacity="0.4">
<path opacity="0.4" d="M87.9083 447.595L98.2504 441.59C98.9176 441.256 98.7508 440.589 98.0836 440.255L93.5797 437.753C92.9125 437.419 91.7449 437.253 91.2444 437.586L80.9023 443.591C80.2351 443.925 80.4019 444.592 81.0691 444.926L85.5729 447.428C86.2402 447.928 87.4078 447.928 87.9083 447.595Z" fill="#24126A"/>
<path opacity="0.4" d="M99.418 454.267L109.76 448.262C110.427 447.928 110.261 447.261 109.593 446.927L105.09 444.425C104.422 444.092 103.255 443.925 102.754 444.259L92.4121 450.264C91.7448 450.597 91.9116 451.264 92.5789 451.598L97.0827 454.1C97.7499 454.601 98.7508 454.601 99.418 454.267Z" fill="#24126A"/>
<path opacity="0.4" d="M110.761 460.939L121.103 454.934C121.77 454.601 121.603 453.933 120.936 453.6L116.432 451.098C115.765 450.764 114.597 450.597 114.097 450.931L103.755 456.936C103.088 457.27 103.254 457.937 103.922 458.27L108.425 460.773C109.093 461.273 110.26 461.273 110.761 460.939Z" fill="#24126A"/>
<path opacity="0.4" d="M122.271 467.612L132.613 461.607C133.28 461.273 133.113 460.606 132.446 460.272L127.942 457.77C127.275 457.436 126.107 457.27 125.607 457.603L115.265 463.608C114.597 463.942 114.764 464.609 115.431 464.943L119.935 467.445C120.602 467.945 121.603 467.945 122.271 467.612Z" fill="#24126A"/>
<path opacity="0.4" d="M133.614 474.284L143.956 468.279C144.623 467.945 144.456 467.278 143.789 466.945L139.285 464.442C138.618 464.109 137.45 463.942 136.95 464.276L126.608 470.281C125.941 470.614 126.107 471.282 126.775 471.615L131.279 474.117C131.946 474.618 133.113 474.618 133.614 474.284Z" fill="#24126A"/>
<path opacity="0.4" d="M145.124 480.956L155.466 474.951C156.133 474.618 155.966 473.95 155.299 473.617L150.795 471.115C150.128 470.781 148.96 470.614 148.46 470.948L138.118 476.953C137.45 477.287 137.617 477.954 138.284 478.288L142.788 480.79C143.456 481.29 144.456 481.457 145.124 480.956Z" fill="#24126A"/>
<path opacity="0.4" d="M156.633 487.629L166.975 481.624C167.643 481.29 167.476 480.623 166.809 480.289L162.305 477.787C161.638 477.453 160.47 477.287 159.97 477.62L149.627 483.625C148.96 483.959 149.127 484.626 149.794 484.96L154.298 487.462C154.798 487.962 155.966 488.129 156.633 487.629Z" fill="#24126A"/>
<path opacity="0.4" d="M167.976 494.301L178.318 488.296C178.986 487.962 178.819 487.295 178.151 486.962L173.648 484.459C172.98 484.126 171.813 483.959 171.312 484.293L160.97 490.298C160.303 490.631 160.47 491.299 161.137 491.632L165.641 494.134C166.308 494.635 167.309 494.802 167.976 494.301Z" fill="#24126A"/>
</g>
<g opacity="0.4">
<path opacity="0.4" d="M78.4 460.94L88.7421 454.935C89.4093 454.601 89.2425 453.934 88.5753 453.6L84.0715 451.098C83.4042 450.765 82.2366 450.598 81.7361 450.931L71.394 456.936C70.7268 457.27 70.8936 457.937 71.5608 458.271L76.0646 460.773C76.7319 461.274 77.7327 461.273 78.4 460.94Z" fill="#24126A"/>
<path opacity="0.4" d="M89.7432 467.612L100.085 461.607C100.753 461.274 100.586 460.606 99.9185 460.273L95.4147 457.771C94.7475 457.437 93.5798 457.27 93.0794 457.604L82.7373 463.609C82.07 463.942 82.2368 464.61 82.9041 464.943L87.4079 467.445C88.0751 467.946 89.2428 467.946 89.7432 467.612Z" fill="#24126A"/>
<path opacity="0.4" d="M101.252 474.285L111.595 468.28C112.262 467.946 112.095 467.279 111.428 466.945L106.924 464.443C106.257 464.109 105.089 463.942 104.589 464.276L94.2465 470.281C93.5793 470.615 93.7461 471.282 94.4133 471.616L98.9172 474.118C99.5844 474.618 100.585 474.618 101.252 474.285Z" fill="#24126A"/>
<path opacity="0.4" d="M112.596 480.957L122.938 474.952C123.605 474.618 123.438 473.951 122.771 473.617L118.267 471.115C117.6 470.782 116.432 470.615 115.932 470.948L105.59 476.954C104.923 477.287 105.089 477.954 105.757 478.288L110.26 480.79C110.928 481.291 112.095 481.457 112.596 480.957Z" fill="#24126A"/>
<path opacity="0.4" d="M124.106 487.629L134.448 481.624C135.115 481.291 134.948 480.623 134.281 480.29L129.777 477.788C129.11 477.454 127.942 477.287 127.442 477.621L117.1 483.626C116.432 483.96 116.599 484.627 117.266 484.96L121.77 487.463C122.437 487.963 123.438 488.13 124.106 487.629Z" fill="#24126A"/>
<path opacity="0.4" d="M135.448 494.302L145.79 488.297C146.458 487.963 146.291 487.296 145.624 486.962L141.12 484.46C140.453 484.126 139.285 483.96 138.784 484.293L128.442 490.298C127.775 490.632 127.942 491.299 128.609 491.633L133.113 494.135C133.78 494.635 134.948 494.802 135.448 494.302Z" fill="#24126A"/>
<path opacity="0.4" d="M146.958 501.141L157.3 495.135C157.967 494.802 157.801 494.135 157.133 493.801L152.63 491.299C151.962 490.965 150.795 490.798 150.294 491.132L139.952 497.137C139.285 497.471 139.452 498.138 140.119 498.472L144.623 500.974C145.29 501.307 146.291 501.474 146.958 501.141Z" fill="#24126A"/>
</g>
</g>
<path d="M105.089 431.414C104.589 431.414 104.088 431.247 103.588 431.081L99.0842 428.578C98.5838 428.245 98.417 427.911 98.417 427.578C98.417 427.244 98.5838 426.91 98.9174 426.743L109.26 420.738C109.927 420.405 111.094 420.405 111.928 420.905L116.432 423.407C116.933 423.741 117.1 424.075 117.1 424.408C117.1 424.742 116.933 425.075 116.599 425.242L106.257 431.247C105.923 431.414 105.423 431.414 105.089 431.414ZM110.427 421.072C110.094 421.072 109.76 421.072 109.593 421.239L99.251 427.244C99.0842 427.244 98.9174 427.411 98.9174 427.578C98.9174 427.744 99.0842 427.911 99.4178 428.078L103.922 430.58C104.589 430.914 105.423 430.914 105.923 430.747L116.266 424.742C116.432 424.742 116.599 424.575 116.599 424.408C116.599 424.241 116.432 424.075 116.099 423.908L111.595 421.406C111.261 421.072 110.761 421.072 110.427 421.072Z" fill="#42E8E0"/>
<path d="M116.432 438.087C115.932 438.087 115.431 437.92 114.931 437.753L110.427 435.251C109.927 434.918 109.76 434.584 109.76 434.25C109.76 433.917 109.927 433.583 110.26 433.416L120.602 427.411C121.27 427.078 122.437 427.078 123.271 427.578L127.775 430.08C128.276 430.414 128.442 430.747 128.442 431.081C128.442 431.415 128.276 431.748 127.942 431.915L117.6 437.92C117.266 438.087 116.933 438.087 116.432 438.087ZM121.77 427.745C121.436 427.745 121.103 427.745 120.936 427.912L110.594 433.917C110.427 433.917 110.26 434.084 110.26 434.25C110.26 434.417 110.427 434.584 110.761 434.751L115.264 437.253C115.932 437.587 116.766 437.587 117.266 437.42L127.608 431.415C127.775 431.415 127.942 431.248 127.942 431.081C127.942 430.914 127.775 430.747 127.441 430.581L122.938 428.078C122.604 427.745 122.27 427.745 121.77 427.745Z" fill="#42E8E0"/>
<path d="M127.942 444.759C127.441 444.759 126.941 444.592 126.441 444.425L121.937 441.923C121.436 441.589 121.27 441.256 121.27 440.922C121.27 440.589 121.436 440.255 121.77 440.088L132.112 434.083C132.779 433.749 133.947 433.749 134.781 434.25L139.285 436.752C139.785 437.086 139.952 437.419 139.952 437.753C139.952 438.087 139.785 438.42 139.452 438.587L129.11 444.592C128.776 444.759 128.275 444.759 127.942 444.759ZM133.28 434.417C132.946 434.417 132.613 434.417 132.446 434.584L122.104 440.589C121.937 440.589 121.77 440.755 121.77 440.922C121.77 441.089 121.937 441.256 122.27 441.423L126.774 443.925C127.441 444.258 128.275 444.258 128.776 444.092L139.118 438.086C139.285 438.086 139.452 437.92 139.452 437.753C139.452 437.586 139.285 437.419 138.951 437.252L134.447 434.75C134.114 434.417 133.613 434.417 133.28 434.417Z" fill="#42E8E0"/>
<path d="M139.285 451.431C138.785 451.431 138.284 451.264 137.784 451.098L133.28 448.595C132.78 448.262 132.613 447.928 132.613 447.595C132.613 447.261 132.78 446.927 133.113 446.761L143.455 440.755C144.123 440.422 145.29 440.422 146.124 440.922L150.628 443.424C151.129 443.758 151.295 444.092 151.295 444.425C151.295 444.759 151.129 445.092 150.795 445.259L140.453 451.264C140.119 451.431 139.786 451.431 139.285 451.431ZM144.623 441.089C144.289 441.089 143.956 441.089 143.789 441.256L133.447 447.261C133.28 447.261 133.113 447.428 133.113 447.595C133.113 447.761 133.28 447.928 133.614 448.095L138.117 450.597C138.785 450.931 139.619 450.931 140.119 450.764L150.461 444.759C150.628 444.759 150.795 444.592 150.795 444.425C150.795 444.258 150.628 444.092 150.295 443.925L145.791 441.423C145.457 441.089 145.123 441.089 144.623 441.089Z" fill="#42E8E0"/>
<path d="M150.795 458.271C150.294 458.271 149.794 458.104 149.294 457.937L144.79 455.435C144.289 455.101 144.123 454.768 144.123 454.434C144.123 454.1 144.289 453.767 144.623 453.6L154.965 447.595C155.632 447.261 156.8 447.261 157.634 447.762L162.138 450.264C162.638 450.597 162.805 450.931 162.805 451.265C162.805 451.598 162.638 451.932 162.305 452.099L151.963 458.104C151.629 458.104 151.129 458.271 150.795 458.271ZM156.133 447.762C155.799 447.762 155.466 447.762 155.299 447.928L144.957 453.934C144.79 453.934 144.623 454.1 144.623 454.267C144.623 454.434 144.79 454.601 145.123 454.768L149.627 457.27C150.294 457.603 151.129 457.603 151.629 457.437L161.971 451.431C162.138 451.431 162.305 451.265 162.305 451.098C162.305 450.931 162.138 450.764 161.804 450.597L157.3 448.095C156.967 447.762 156.466 447.762 156.133 447.762Z" fill="#42E8E0"/>
<path d="M162.138 464.943C161.637 464.943 161.137 464.776 160.636 464.609L156.133 462.107C155.632 461.774 155.465 461.44 155.465 461.106C155.465 460.773 155.632 460.439 155.966 460.272L166.308 454.267C166.975 453.934 168.143 453.934 168.977 454.434L173.481 456.936C173.981 457.27 174.148 457.603 174.148 457.937C174.148 458.271 173.981 458.604 173.647 458.771L163.305 464.776C162.972 464.776 162.638 464.943 162.138 464.943ZM167.476 454.434C167.142 454.434 166.808 454.434 166.641 454.601L156.299 460.606C156.133 460.606 155.966 460.773 155.966 460.94C155.966 461.106 156.133 461.273 156.466 461.44L160.97 463.942C161.637 464.276 162.471 464.276 162.972 464.109L173.314 458.104C173.481 458.104 173.647 457.937 173.647 457.77C173.647 457.603 173.481 457.437 173.147 457.27L168.643 454.768C168.31 454.434 167.976 454.434 167.476 454.434Z" fill="#42E8E0"/>
<path d="M173.647 471.615C173.147 471.615 172.647 471.448 172.146 471.282L167.642 468.78C167.142 468.446 166.975 468.112 166.975 467.779C166.975 467.445 167.142 467.111 167.476 466.945L177.818 460.94C178.485 460.606 179.653 460.606 180.487 461.106L184.99 463.608C185.491 463.942 185.658 464.276 185.658 464.609C185.658 464.943 185.491 465.277 185.157 465.443L174.815 471.448C174.481 471.448 173.981 471.615 173.647 471.615ZM178.985 461.106C178.652 461.106 178.318 461.106 178.151 461.273L167.809 467.278C167.642 467.278 167.476 467.445 167.476 467.612C167.476 467.779 167.642 467.946 167.976 468.112L172.48 470.614C173.147 470.948 173.981 470.948 174.481 470.781L184.824 464.776C184.99 464.776 185.157 464.609 185.157 464.443C185.157 464.276 184.99 464.109 184.657 463.942L180.153 461.44C179.819 461.273 179.319 461.106 178.985 461.106Z" fill="#42E8E0"/>
<path d="M184.991 478.287C184.49 478.287 183.99 478.12 183.489 477.954L178.986 475.451C178.485 475.118 178.318 474.784 178.318 474.451C178.318 474.117 178.485 473.783 178.819 473.617L189.161 467.611C189.828 467.278 190.996 467.278 191.83 467.778L196.334 470.28C196.834 470.614 197.001 470.948 197.001 471.281C197.001 471.615 196.834 471.948 196.5 472.115L186.158 478.12C185.992 478.12 185.491 478.287 184.991 478.287ZM190.329 467.778C189.995 467.778 189.661 467.778 189.495 467.945L179.152 473.95C178.986 473.95 178.819 474.117 178.819 474.284C178.819 474.451 178.986 474.617 179.319 474.784L183.823 477.286C184.49 477.62 185.324 477.62 185.825 477.453L196.167 471.448C196.334 471.448 196.5 471.281 196.5 471.114C196.5 470.948 196.334 470.781 196 470.614L191.496 468.112C191.329 467.945 190.829 467.778 190.329 467.778Z" fill="#42E8E0"/>
<path d="M86.9072 442.923C86.4068 442.923 85.9064 442.757 85.4059 442.59L80.9021 440.088C80.4017 439.754 80.2349 439.42 80.2349 439.087C80.2349 438.753 80.4017 438.42 80.7353 438.253L91.0774 432.248C91.7447 431.914 92.9123 431.914 93.7464 432.414L98.2502 434.917C98.7506 435.25 98.9174 435.584 98.9174 435.917C98.9174 436.251 98.7506 436.585 98.417 436.751L88.0749 442.757C87.7412 442.923 87.4076 442.923 86.9072 442.923ZM92.2451 432.414C91.9115 432.414 91.5778 432.414 91.411 432.581L81.0689 438.586C80.9021 438.586 80.7353 438.753 80.7353 438.92C80.7353 439.087 80.9021 439.254 81.2357 439.42L85.7395 441.923C86.4068 442.256 87.2408 442.256 87.7412 442.089L98.0834 436.084C98.2502 436.084 98.417 435.917 98.417 435.751C98.417 435.584 98.2502 435.417 97.9166 435.25L93.4127 432.748C93.0791 432.581 92.7455 432.414 92.2451 432.414Z" fill="#42E8E0"/>
<path d="M98.417 449.596C97.9165 449.596 97.4161 449.429 96.9157 449.262L92.4119 446.76C91.9114 446.426 91.7446 446.093 91.7446 445.759C91.7446 445.426 91.9114 445.092 92.245 444.925L102.587 438.92C103.254 438.586 104.422 438.586 105.256 439.087L109.76 441.589C110.26 441.923 110.427 442.256 110.427 442.59C110.427 442.923 110.26 443.257 109.927 443.424L99.5846 449.429C99.251 449.596 98.7506 449.596 98.417 449.596ZM103.755 439.087C103.421 439.087 103.088 439.087 102.921 439.254L92.5787 445.259C92.4119 445.259 92.245 445.426 92.245 445.592C92.245 445.759 92.4119 445.926 92.7455 446.093L97.2493 448.595C97.9165 448.929 98.7506 448.929 99.251 448.762L109.593 442.757C109.76 442.757 109.927 442.59 109.927 442.423C109.927 442.256 109.76 442.089 109.426 441.923L104.923 439.42C104.589 439.254 104.088 439.087 103.755 439.087Z" fill="#42E8E0"/>
<path d="M109.76 456.269C109.259 456.269 108.759 456.102 108.258 455.935L103.755 453.433C103.254 453.099 103.087 452.766 103.087 452.432C103.087 452.098 103.254 451.765 103.588 451.598L113.93 445.593C114.597 445.259 115.765 445.259 116.599 445.76L121.103 448.262C121.603 448.595 121.77 448.929 121.77 449.263C121.77 449.596 121.603 449.93 121.27 450.097L110.927 456.102C110.594 456.269 110.26 456.269 109.76 456.269ZM115.098 445.926C114.764 445.926 114.43 445.926 114.264 446.093L103.921 452.098C103.755 452.098 103.588 452.265 103.588 452.432C103.588 452.599 103.755 452.766 104.088 452.932L108.592 455.435C109.259 455.768 110.093 455.768 110.594 455.601L120.936 449.596C121.103 449.596 121.27 449.429 121.27 449.263C121.27 449.096 121.103 448.929 120.769 448.762L116.265 446.26C115.932 445.926 115.598 445.926 115.098 445.926Z" fill="#42E8E0"/>
<path d="M121.27 462.94C120.769 462.94 120.269 462.774 119.768 462.607L115.264 460.105C114.764 459.771 114.597 459.438 114.597 459.104C114.597 458.77 114.764 458.437 115.098 458.27L125.44 452.265C126.107 451.931 127.275 451.931 128.109 452.432L132.612 454.934C133.113 455.267 133.28 455.601 133.28 455.935C133.28 456.268 133.113 456.602 132.779 456.769L122.437 462.774C122.104 462.94 121.603 462.94 121.27 462.94ZM126.607 452.598C126.274 452.598 125.94 452.598 125.773 452.765L115.431 458.77C115.264 458.77 115.098 458.937 115.098 459.104C115.098 459.271 115.264 459.437 115.598 459.604L120.102 462.106C120.769 462.44 121.603 462.44 122.104 462.273L132.446 456.268C132.612 456.268 132.779 456.101 132.779 455.935C132.779 455.768 132.612 455.601 132.279 455.434L127.775 452.932C127.441 452.598 126.941 452.598 126.607 452.598Z" fill="#42E8E0"/>
<path d="M132.613 469.613C132.112 469.613 131.612 469.446 131.112 469.279L126.608 466.777C126.107 466.443 125.94 466.11 125.94 465.776C125.94 465.443 126.107 465.109 126.441 464.942L136.783 458.937C137.45 458.603 138.618 458.603 139.452 459.104L143.956 461.606C144.456 461.94 144.623 462.273 144.623 462.607C144.623 462.94 144.456 463.274 144.123 463.441L133.78 469.446C133.447 469.613 133.113 469.613 132.613 469.613ZM137.951 459.271C137.617 459.271 137.283 459.271 137.117 459.438L126.774 465.443C126.608 465.443 126.441 465.609 126.441 465.776C126.441 465.943 126.608 466.11 126.941 466.277L131.445 468.779C132.112 469.112 132.946 469.112 133.447 468.946L143.789 462.94C143.956 462.94 144.123 462.774 144.123 462.607C144.123 462.44 143.956 462.273 143.622 462.106L139.118 459.604C138.785 459.271 138.451 459.271 137.951 459.271Z" fill="#42E8E0"/>
<path d="M144.123 476.285C143.622 476.285 143.122 476.118 142.621 475.952L138.117 473.449C137.617 473.116 137.45 472.782 137.45 472.449C137.45 472.115 137.617 471.781 137.951 471.615L148.293 465.609C148.96 465.276 150.128 465.276 150.962 465.776L155.466 468.278C155.966 468.612 156.133 468.946 156.133 469.279C156.133 469.613 155.966 469.947 155.632 470.113L145.29 476.118C144.957 476.285 144.456 476.285 144.123 476.285ZM149.46 465.943C149.127 465.943 148.793 465.943 148.626 466.11L138.284 472.115C138.117 472.115 137.951 472.282 137.951 472.449C137.951 472.615 138.117 472.782 138.451 472.949L142.955 475.451C143.622 475.785 144.456 475.785 144.957 475.618L155.299 469.613C155.466 469.613 155.632 469.446 155.632 469.279C155.632 469.112 155.466 468.946 155.132 468.779L150.628 466.277C150.294 465.943 149.794 465.943 149.46 465.943Z" fill="#42E8E0"/>
<path d="M155.465 482.958C154.965 482.958 154.464 482.791 153.964 482.624L149.46 480.122C148.96 479.788 148.793 479.455 148.793 479.121C148.793 478.787 148.96 478.454 149.293 478.287L159.636 472.282C160.303 471.948 161.47 471.948 162.304 472.449L166.808 474.951C167.309 475.284 167.476 475.618 167.476 475.952C167.476 476.285 167.309 476.619 166.975 476.786L156.633 482.791C156.299 482.958 155.966 482.958 155.465 482.958ZM160.803 472.615C160.47 472.615 160.136 472.615 159.969 472.782L149.627 478.787C149.46 478.787 149.293 478.954 149.293 479.121C149.293 479.288 149.46 479.455 149.794 479.621L154.298 482.124C154.965 482.457 155.799 482.457 156.299 482.29L166.641 476.285C166.808 476.285 166.975 476.118 166.975 475.952C166.975 475.785 166.808 475.618 166.475 475.451L161.971 472.949C161.637 472.615 161.304 472.615 160.803 472.615Z" fill="#42E8E0"/>
<path d="M166.975 489.63C166.475 489.63 165.974 489.463 165.474 489.296L160.97 486.794C160.47 486.461 160.303 486.127 160.303 485.793C160.303 485.46 160.47 485.126 160.803 484.959L171.145 478.954C171.813 478.621 172.98 478.621 173.814 479.121L178.318 481.623C178.818 481.957 178.985 482.29 178.985 482.624C178.985 482.958 178.818 483.291 178.485 483.458L168.143 489.463C167.809 489.63 167.309 489.63 166.975 489.63ZM172.313 479.288C171.979 479.288 171.646 479.288 171.479 479.455L161.137 485.46C160.97 485.46 160.803 485.627 160.803 485.793C160.803 485.96 160.97 486.127 161.304 486.294L165.807 488.796C166.475 489.129 167.309 489.13 167.809 488.963L178.151 482.958C178.318 482.958 178.485 482.791 178.485 482.624C178.485 482.457 178.318 482.29 177.984 482.124L173.481 479.621C173.147 479.288 172.647 479.288 172.313 479.288Z" fill="#42E8E0"/>
<path d="M77.2324 456.268C76.732 456.268 76.2316 456.101 75.7311 455.934L71.2273 453.432C70.7269 453.099 70.5601 452.765 70.5601 452.432C70.5601 452.098 70.7269 451.764 71.0605 451.597L81.4026 445.592C82.0698 445.259 83.2375 445.259 84.0716 445.759L88.5754 448.261C89.0758 448.595 89.2426 448.929 89.2426 449.262C89.2426 449.596 89.0758 449.929 88.7422 450.096L78.4001 456.101C78.2333 456.268 77.7328 456.268 77.2324 456.268ZM82.7371 445.926C82.4035 445.926 82.0699 445.926 81.903 446.093L71.5609 452.098C71.3941 452.098 71.2273 452.265 71.2273 452.432C71.2273 452.598 71.3941 452.765 71.7277 452.932L76.2316 455.434C76.8988 455.768 77.7328 455.768 78.2333 455.601L88.5754 449.596C88.7422 449.596 88.909 449.429 88.909 449.262C88.909 449.095 88.7422 448.929 88.4086 448.762L83.9047 446.26C83.5711 445.926 83.0707 445.926 82.7371 445.926Z" fill="#42E8E0"/>
<path d="M88.7422 462.94C88.2417 462.94 87.7413 462.774 87.2409 462.607L82.7371 460.105C82.2366 459.771 82.0698 459.438 82.0698 459.104C82.0698 458.77 82.2366 458.437 82.5703 458.27L92.9124 452.265C93.5796 451.931 94.7473 451.931 95.5813 452.432L100.085 454.934C100.586 455.267 100.752 455.601 100.752 455.935C100.752 456.268 100.586 456.602 100.252 456.769L89.9098 462.774C89.5762 462.94 89.2426 462.94 88.7422 462.94ZM94.08 452.598C93.7464 452.598 93.4128 452.598 93.246 452.765L82.9039 458.77C82.7371 458.77 82.5703 458.937 82.5703 459.104C82.5703 459.271 82.7371 459.437 83.0707 459.604L87.5745 462.106C88.2417 462.44 89.0758 462.44 89.5762 462.273L99.9183 456.268C100.085 456.268 100.252 456.101 100.252 455.935C100.252 455.768 100.085 455.601 99.7515 455.434L95.2477 452.932C94.9141 452.598 94.5805 452.598 94.08 452.598Z" fill="#42E8E0"/>
<path d="M100.252 469.612C99.7515 469.612 99.2511 469.446 98.7507 469.279L94.2468 466.777C93.7464 466.443 93.5796 466.109 93.5796 465.776C93.5796 465.442 93.7464 465.109 94.08 464.942L104.422 458.937C105.089 458.603 106.257 458.603 107.091 459.103L111.595 461.606C112.095 461.939 112.262 462.273 112.262 462.606C112.262 462.94 112.095 463.274 111.762 463.44L101.42 469.446C101.086 469.612 100.586 469.612 100.252 469.612ZM105.59 459.27C105.256 459.27 104.923 459.27 104.756 459.437L94.4136 465.442C94.2468 465.442 94.08 465.609 94.08 465.776C94.08 465.943 94.2468 466.109 94.5804 466.276L99.0843 468.778C99.7515 469.112 100.586 469.112 101.086 468.945L111.428 462.94C111.595 462.94 111.762 462.773 111.762 462.606C111.762 462.44 111.595 462.273 111.261 462.106L106.757 459.604C106.424 459.27 105.923 459.27 105.59 459.27Z" fill="#42E8E0"/>
<path d="M111.595 476.285C111.095 476.285 110.594 476.118 110.094 475.952L105.59 473.449C105.09 473.116 104.923 472.782 104.923 472.449C104.923 472.115 105.09 471.781 105.423 471.615L115.765 465.609C116.433 465.276 117.6 465.276 118.434 465.776L122.938 468.278C123.439 468.612 123.605 468.946 123.605 469.279C123.605 469.613 123.439 469.947 123.105 470.113L112.763 476.118C112.429 476.285 112.096 476.285 111.595 476.285ZM116.933 465.943C116.599 465.943 116.266 465.943 116.099 466.11L105.757 472.115C105.59 472.115 105.423 472.282 105.423 472.449C105.423 472.615 105.59 472.782 105.924 472.949L110.428 475.451C111.095 475.785 111.929 475.785 112.429 475.618L122.771 469.613C122.938 469.613 123.105 469.446 123.105 469.279C123.105 469.112 122.938 468.946 122.605 468.779L118.101 466.277C117.767 465.943 117.433 465.943 116.933 465.943Z" fill="#42E8E0"/>
<path d="M123.105 482.958C122.605 482.958 122.104 482.791 121.604 482.624L117.1 480.122C116.599 479.788 116.433 479.455 116.433 479.121C116.433 478.787 116.599 478.454 116.933 478.287L127.275 472.282C127.942 471.948 129.11 471.948 129.944 472.449L134.448 474.951C134.948 475.284 135.115 475.618 135.115 475.952C135.115 476.285 134.948 476.619 134.615 476.786L124.273 482.791C123.939 482.958 123.439 482.958 123.105 482.958ZM128.443 472.615C128.109 472.615 127.776 472.615 127.609 472.782L117.267 478.787C117.1 478.787 116.933 478.954 116.933 479.121C116.933 479.288 117.1 479.455 117.433 479.621L121.937 482.124C122.605 482.457 123.439 482.457 123.939 482.29L134.281 476.285C134.448 476.285 134.615 476.118 134.615 475.952C134.615 475.785 134.448 475.618 134.114 475.451L129.611 472.949C129.277 472.615 128.776 472.615 128.443 472.615Z" fill="#42E8E0"/>
<path d="M134.448 489.63C133.947 489.63 133.447 489.463 132.946 489.296L128.443 486.794C127.942 486.461 127.775 486.127 127.775 485.793C127.775 485.46 127.942 485.126 128.276 484.959L138.618 478.954C139.285 478.621 140.453 478.621 141.287 479.121L145.791 481.623C146.291 481.957 146.458 482.29 146.458 482.624C146.458 482.958 146.291 483.291 145.958 483.458L135.615 489.463C135.282 489.63 134.948 489.63 134.448 489.63ZM139.786 479.288C139.452 479.288 139.118 479.288 138.952 479.455L128.609 485.46C128.443 485.46 128.276 485.627 128.276 485.793C128.276 485.96 128.443 486.127 128.776 486.294L133.28 488.796C133.947 489.129 134.781 489.13 135.282 488.963L145.624 482.958C145.791 482.958 145.958 482.791 145.958 482.624C145.958 482.457 145.791 482.29 145.457 482.124L140.953 479.621C140.62 479.288 140.286 479.288 139.786 479.288Z" fill="#42E8E0"/>
<path d="M145.957 496.302C145.457 496.302 144.957 496.136 144.456 495.969L139.952 493.467C139.452 493.133 139.285 492.799 139.285 492.466C139.285 492.132 139.452 491.798 139.786 491.632L150.128 485.627C150.795 485.293 151.963 485.293 152.797 485.793L157.3 488.295C157.801 488.629 157.968 488.963 157.968 489.296C157.968 489.63 157.801 489.964 157.467 490.13L147.125 496.135C146.792 496.302 146.291 496.302 145.957 496.302ZM151.295 485.96C150.962 485.96 150.628 485.96 150.461 486.127L140.119 492.132C139.952 492.132 139.786 492.299 139.786 492.466C139.786 492.633 139.952 492.799 140.286 492.966L144.79 495.468C145.457 495.802 146.291 495.802 146.792 495.635L157.134 489.63C157.3 489.63 157.467 489.463 157.467 489.296C157.467 489.13 157.3 488.963 156.967 488.796L152.463 486.294C152.129 485.96 151.629 485.96 151.295 485.96Z" fill="#42E8E0"/>
<path opacity="0.4" d="M394.836 329.994L332.95 294.13C329.114 291.962 329.614 288.125 333.951 285.623C338.288 283.121 344.961 282.787 348.63 284.956L410.683 320.82C414.52 322.988 414.019 326.825 409.682 329.327C405.178 331.829 398.673 332.163 394.836 329.994Z" fill="#42E8E0"/>
<path opacity="0.4" d="M370.315 363.189L333.784 342.004C329.948 339.836 330.448 335.999 334.785 333.497C339.122 330.995 345.795 330.662 349.464 332.83L385.995 354.015C389.832 356.183 389.332 360.02 384.995 362.522C380.658 365.024 374.152 365.358 370.315 363.189Z" fill="#42E8E0"/>
<path opacity="0.4" d="M314.434 414.566L298.921 405.559C295.084 403.39 295.585 399.554 299.922 397.051C304.259 394.549 310.931 394.216 314.601 396.384L330.114 405.392C333.951 407.56 333.45 411.397 329.113 413.899C324.943 416.401 318.271 416.735 314.434 414.566Z" fill="#42E8E0"/>
<path opacity="0.4" d="M394.836 369.027L332.95 333.163C329.113 330.995 329.614 327.158 333.951 324.656C338.288 322.154 344.96 321.82 348.63 323.989L410.683 359.853C414.519 362.021 414.019 365.858 409.682 368.36C405.178 370.862 398.672 371.196 394.836 369.027Z" fill="#24126A"/>
<path opacity="0.4" d="M303.425 383.206L231.197 341.504C227.36 339.335 227.861 335.499 232.198 332.997C236.535 330.495 243.207 330.161 246.877 332.33L319.105 374.032C322.942 376.2 322.441 380.037 318.104 382.539C313.767 385.041 307.262 385.375 303.425 383.206Z" fill="#24126A"/>
<path opacity="0.4" d="M314.434 423.741L298.921 414.733C295.084 412.565 295.585 408.728 299.922 406.226C304.259 403.724 310.931 403.391 314.601 405.559L330.114 414.567C333.951 416.735 333.45 420.572 329.113 423.074C324.943 425.576 318.271 425.91 314.434 423.741Z" fill="#24126A"/>
<path opacity="0.4" d="M190.662 380.871L175.149 371.863C171.312 369.694 171.813 365.858 176.15 363.356C180.487 360.854 187.159 360.52 190.829 362.688L206.342 371.696C210.179 373.865 209.678 377.701 205.341 380.203C201.004 382.872 194.499 383.206 190.662 380.871Z" fill="#24126A"/>
<path d="M373.151 265.773C370.649 265.773 368.314 265.273 366.646 264.272L321.607 238.25C319.939 237.249 318.938 235.914 318.938 234.246C318.938 232.411 320.273 230.576 322.775 229.242C327.279 226.74 333.951 226.406 337.788 228.575L382.826 254.597C384.494 255.598 385.495 256.932 385.495 258.6C385.495 260.435 384.161 262.27 381.658 263.604C379.156 264.939 375.987 265.773 373.151 265.773ZM366.812 263.604C370.482 265.773 376.988 265.439 381.325 262.937C383.493 261.603 384.828 259.935 384.828 258.433C384.828 257.099 383.994 255.931 382.493 254.93L337.454 228.908C333.784 226.74 327.279 227.073 322.942 229.575C320.773 230.91 319.439 232.578 319.439 234.079C319.439 235.414 320.273 236.581 321.774 237.582L366.812 263.604Z" fill="#42E8E0"/>
<path d="M309.93 368.361C307.428 368.361 305.093 367.86 303.425 366.859L231.197 325.157C229.529 324.156 228.528 322.822 228.528 321.154C228.528 319.319 229.862 317.484 232.364 316.15C236.868 313.647 243.541 313.314 247.377 315.482L319.605 357.184C321.273 358.185 322.274 359.52 322.274 361.188C322.274 363.023 320.94 364.858 318.438 366.192C315.936 367.527 312.766 368.361 309.93 368.361ZM240.538 314.482C237.702 314.482 234.7 315.149 232.364 316.483C230.196 317.818 228.861 319.486 228.861 320.987C228.861 322.322 229.696 323.489 231.197 324.49L303.425 366.192C307.095 368.361 313.6 368.027 317.937 365.525C320.106 364.19 321.44 362.522 321.44 361.021C321.44 359.687 320.606 358.519 319.105 357.518L246.877 315.816C245.209 314.982 243.04 314.482 240.538 314.482Z" fill="#42E8E0"/>
<path d="M401.341 331.829C398.839 331.829 396.504 331.329 394.836 330.328L332.783 294.464C331.115 293.463 330.114 292.129 330.114 290.46C330.114 288.626 331.449 286.791 333.951 285.456C338.455 282.954 345.127 282.62 348.964 284.789L411.016 320.653C412.684 321.654 413.685 322.988 413.685 324.656C413.685 326.491 412.351 328.326 409.849 329.66C407.347 330.995 404.177 331.829 401.341 331.829ZM395.003 329.66C398.673 331.829 405.178 331.495 409.515 328.993C411.684 327.659 413.018 325.991 413.018 324.489C413.018 323.155 412.184 321.987 410.683 320.986L348.63 285.123C344.96 282.954 338.455 283.288 334.118 285.79C331.949 287.124 330.615 288.792 330.615 290.294C330.615 291.628 331.449 292.796 332.95 293.797L395.003 329.66Z" fill="#42E8E0"/>
<path d="M376.654 365.024C374.152 365.024 371.816 364.523 370.148 363.523L333.617 342.338C331.949 341.337 330.948 340.003 330.948 338.335C330.948 336.5 332.283 334.665 334.785 333.33C339.289 330.828 345.961 330.495 349.798 332.663L386.329 353.848C387.997 354.849 388.998 356.183 388.998 357.851C388.998 359.686 387.663 361.521 385.161 362.855C382.826 364.19 379.656 365.024 376.654 365.024ZM343.125 331.829C340.29 331.829 337.287 332.496 334.952 333.831C332.783 335.165 331.449 336.833 331.449 338.335C331.449 339.669 332.283 340.837 333.784 341.837L370.315 363.022C373.985 365.191 380.49 364.857 384.827 362.355C386.996 361.02 388.33 359.352 388.33 357.851C388.33 356.517 387.496 355.349 385.995 354.348L349.464 333.163C347.796 332.163 345.461 331.829 343.125 331.829Z" fill="#42E8E0"/>
<path opacity="0.4" d="M370.315 390.379L333.784 369.194C329.948 367.026 330.448 363.189 334.785 360.687C339.122 358.185 345.795 357.851 349.464 360.02L385.995 381.205C389.832 383.373 389.332 387.21 384.995 389.712C380.658 392.381 374.152 392.548 370.315 390.379Z" fill="#24126A"/>
<path d="M320.94 416.234C318.438 416.234 316.103 415.734 314.435 414.733L298.921 405.725C297.253 404.724 296.252 403.39 296.252 401.722C296.252 399.887 297.587 398.052 300.089 396.717C304.593 394.215 311.265 393.882 315.102 396.05L330.615 405.058C332.283 406.059 333.284 407.393 333.284 409.061C333.284 410.896 331.949 412.731 329.447 414.066C326.945 415.567 323.943 416.234 320.94 416.234ZM308.429 395.216C305.594 395.216 302.591 395.883 300.256 397.218C298.087 398.552 296.753 400.22 296.753 401.722C296.753 403.056 297.587 404.224 299.088 405.225L314.601 414.232C318.271 416.401 324.777 416.067 329.114 413.565C331.282 412.231 332.617 410.563 332.617 409.061C332.617 407.727 331.783 406.559 330.281 405.558L314.768 396.551C312.933 395.717 310.765 395.216 308.429 395.216Z" fill="#42E8E0"/>
<path d="M197.001 378.202C194.499 378.202 192.164 377.702 190.496 376.701L174.982 367.693C173.314 366.693 172.313 365.358 172.313 363.69C172.313 361.855 173.648 360.02 176.15 358.686C180.654 356.184 187.326 355.85 191.163 358.018L206.676 367.026C208.344 368.027 209.345 369.361 209.345 371.03C209.345 372.864 208.011 374.699 205.508 376.034C203.173 377.535 200.004 378.202 197.001 378.202ZM184.491 357.184C181.655 357.184 178.652 357.852 176.317 359.186C174.148 360.521 172.814 362.189 172.814 363.69C172.814 365.024 173.648 366.192 175.149 367.193L190.662 376.201C194.332 378.369 200.838 378.036 205.175 375.533C207.343 374.199 208.678 372.531 208.678 371.03C208.678 369.695 207.844 368.527 206.342 367.527L190.829 358.519C189.161 357.685 186.826 357.184 184.491 357.184Z" fill="#42E8E0"/>
<g style="mix-blend-mode:screen" opacity="0.5">
<path d="M413.852 323.489V235.748H330.281V290.294C330.281 291.795 331.115 293.296 333.117 294.464L393.835 329.494C398.006 331.829 405.178 331.662 410.016 328.827C412.518 327.492 413.852 325.491 413.852 323.489Z" fill="url(#paint6_radial_858_19295)"/>
</g>
<path opacity="0.4" d="M221.021 468.612L127.775 414.733C121.437 411.063 122.271 404.725 129.61 400.388C136.95 396.218 148.126 395.717 154.465 399.387L247.711 453.266C254.049 456.936 253.215 463.275 245.876 467.612C238.536 471.949 227.527 472.282 221.021 468.612Z" fill="#24126A"/>
<path opacity="0.4" d="M227.518 455.54C225.35 456.874 221.847 456.874 219.678 455.54C217.51 454.205 217.51 452.204 219.678 451.036C221.847 449.702 225.35 449.702 227.518 451.036C229.687 452.204 229.687 454.372 227.518 455.54Z" fill="#42E8E0"/>
<path opacity="0.4" d="M214.507 447.867C212.338 449.201 208.835 449.201 206.667 447.867C204.498 446.532 204.498 444.53 206.667 443.363C208.835 442.195 212.338 442.028 214.507 443.363C216.675 444.697 216.675 446.699 214.507 447.867Z" fill="#42E8E0"/>
<path opacity="0.4" d="M180.311 428.85C178.143 430.185 174.64 430.185 172.471 428.85C170.303 427.516 170.303 425.514 172.471 424.347C174.64 423.012 178.143 423.012 180.311 424.347C182.48 425.514 182.48 427.683 180.311 428.85Z" fill="#42E8E0"/>
<path opacity="0.4" d="M167.3 421.844C165.131 423.179 161.628 423.179 159.46 421.844C157.291 420.51 157.291 418.508 159.46 417.34C161.628 416.006 165.131 416.006 167.3 417.34C169.468 418.508 169.468 420.51 167.3 421.844Z" fill="#42E8E0"/>
<path opacity="0.4" d="M153.956 414.505C151.787 415.839 148.284 415.839 146.116 414.505C143.947 413.17 143.947 411.169 146.116 410.001C148.284 408.666 151.787 408.666 153.956 410.001C156.124 411.335 156.124 413.337 153.956 414.505Z" fill="#42E8E0"/>
<path opacity="0.4" d="M191.487 430.518L202.83 437.024C204.665 438.191 204.498 440.026 202.33 441.194C200.161 442.528 196.825 442.528 194.99 441.527L183.647 435.022C181.812 433.854 181.979 432.019 184.148 430.852C186.316 429.517 189.652 429.517 191.487 430.518Z" fill="#42E8E0"/>
<g opacity="0.8">
<path opacity="0.8" d="M286.411 505.643L287.912 505.476C288.079 505.31 288.246 505.31 288.412 505.143L406.846 436.751C409.849 434.916 415.187 435.25 418.857 437.252L487.915 477.119C488.916 477.619 489.583 478.287 490.084 478.954L490.918 478.787V481.122C490.918 482.29 490.251 483.291 488.916 484.125L370.482 552.516C367.48 554.351 362.142 554.018 358.472 552.016L289.413 512.149C287.411 510.981 286.411 509.48 286.411 508.145V505.643Z" fill="#9FFFF8"/>
<path opacity="0.8" d="M370.482 550.015L488.916 481.623C491.919 479.788 491.585 476.786 488.082 474.784L418.857 434.75C415.354 432.748 410.016 432.414 406.846 434.249L288.412 502.641C285.41 504.476 285.743 507.478 289.246 509.48L358.305 549.347C361.975 551.516 367.313 551.683 370.482 550.015Z" fill="#42E8E0"/>
<path opacity="0.8" d="M351.299 545.343L480.909 470.613L467.064 462.606L337.621 537.337L351.299 545.343Z" fill="#24126A"/>
</g>
<g opacity="0.1">
<path opacity="0.1" d="M414.353 506.811C414.353 491.298 403.51 472.615 390.166 464.942C383.493 461.105 377.488 460.772 372.984 463.274L368.481 465.943L369.815 466.11C367.48 469.112 365.979 473.449 365.979 478.954C365.979 494.467 376.821 513.15 390.166 520.823C394.836 523.492 399.007 524.493 402.676 523.992L402.51 525.16L407.18 522.491L407.347 522.324C411.684 519.822 414.353 514.484 414.353 506.811Z" fill="#9FFFF8"/>
<path opacity="0.1" d="M409.682 509.48C409.682 524.993 398.84 531.165 385.495 523.492C372.15 515.818 361.308 496.969 361.308 481.623C361.308 466.276 372.15 459.938 385.495 467.611C398.84 475.284 409.682 494.133 409.682 509.48Z" fill="#42E8E0"/>
</g>
<path d="M414.353 506.811C414.353 491.298 403.51 472.615 390.166 464.942C383.493 461.105 377.488 460.772 372.984 463.274L368.481 465.943L369.815 466.11C367.48 469.112 365.979 473.449 365.979 478.954C365.979 494.467 376.821 513.15 390.166 520.823C394.836 523.492 399.007 524.493 402.676 523.992L402.51 525.16L407.18 522.491L407.347 522.324C411.684 519.822 414.353 514.484 414.353 506.811Z" fill="#9FFFF8"/>
<path d="M409.682 509.48C409.682 524.993 398.84 531.165 385.495 523.492C372.15 515.818 361.308 496.969 361.308 481.623C361.308 466.276 372.15 459.938 385.495 467.611C398.84 475.284 409.682 494.133 409.682 509.48Z" fill="#42E8E0"/>
<defs>
<linearGradient id="paint0_linear_858_19295" x1="0.41223" y1="415.378" x2="484.639" y2="415.378" gradientUnits="userSpaceOnUse">
<stop stop-color="#BCBEFF"/>
<stop offset="0.151" stop-color="#A3A7F5"/>
<stop offset="0.3866" stop-color="#8289E8"/>
<stop offset="0.6124" stop-color="#6A73DF"/>
<stop offset="0.8221" stop-color="#5C66D9"/>
<stop offset="1" stop-color="#5761D7"/>
</linearGradient>
<radialGradient id="paint1_radial_858_19295" cx="0" cy="0" r="1" gradientUnits="userSpaceOnUse" gradientTransform="translate(171.569 422.129) scale(379.007)">
<stop stop-color="#42E8E0"/>
<stop offset="0.1055" stop-color="#37B6BF"/>
<stop offset="0.2197" stop-color="#2C87A1"/>
<stop offset="0.338" stop-color="#235F87"/>
<stop offset="0.4587" stop-color="#1C3F72"/>
<stop offset="0.5824" stop-color="#162561"/>
<stop offset="0.7105" stop-color="#121355"/>
<stop offset="0.8458" stop-color="#10084E"/>
<stop offset="1" stop-color="#0F054C"/>
</radialGradient>
<linearGradient id="paint2_linear_858_19295" x1="309.971" y1="483.883" x2="174.803" y2="304.508" gradientUnits="userSpaceOnUse">
<stop stop-color="#42E8E0"/>
<stop offset="0.1055" stop-color="#37B6BF"/>
<stop offset="0.2197" stop-color="#2C87A1"/>
<stop offset="0.338" stop-color="#235F87"/>
<stop offset="0.4587" stop-color="#1C3F72"/>
<stop offset="0.5824" stop-color="#162561"/>
<stop offset="0.7105" stop-color="#121355"/>
<stop offset="0.8458" stop-color="#10084E"/>
<stop offset="1" stop-color="#0F054C"/>
</linearGradient>
<linearGradient id="paint3_linear_858_19295" x1="98.1444" y1="218.627" x2="252.955" y2="490.425" gradientUnits="userSpaceOnUse">
<stop stop-color="#42E8E0"/>
<stop offset="0.1055" stop-color="#37B6BF"/>
<stop offset="0.2197" stop-color="#2C87A1"/>
<stop offset="0.338" stop-color="#235F87"/>
<stop offset="0.4587" stop-color="#1C3F72"/>
<stop offset="0.5824" stop-color="#162561"/>
<stop offset="0.7105" stop-color="#121355"/>
<stop offset="0.8458" stop-color="#10084E"/>
<stop offset="1" stop-color="#0F054C"/>
</linearGradient>
<linearGradient id="paint4_linear_858_19295" x1="129.099" y1="263.853" x2="240.183" y2="430.25" gradientUnits="userSpaceOnUse">
<stop stop-color="#42E8E0"/>
<stop offset="0.1055" stop-color="#37B6BF"/>
<stop offset="0.2197" stop-color="#2C87A1"/>
<stop offset="0.338" stop-color="#235F87"/>
<stop offset="0.4587" stop-color="#1C3F72"/>
<stop offset="0.5824" stop-color="#162561"/>
<stop offset="0.7105" stop-color="#121355"/>
<stop offset="0.8458" stop-color="#10084E"/>
<stop offset="1" stop-color="#0F054C"/>
</linearGradient>
<radialGradient id="paint5_radial_858_19295" cx="0" cy="0" r="1" gradientUnits="userSpaceOnUse" gradientTransform="translate(305.387 446.642) rotate(30.0271) scale(244.575 211.924)">
<stop stop-color="#42E8E0"/>
<stop offset="0.1055" stop-color="#37B6BF"/>
<stop offset="0.2197" stop-color="#2C87A1"/>
<stop offset="0.338" stop-color="#235F87"/>
<stop offset="0.4587" stop-color="#1C3F72"/>
<stop offset="0.5824" stop-color="#162561"/>
<stop offset="0.7105" stop-color="#121355"/>
<stop offset="0.8458" stop-color="#10084E"/>
<stop offset="1" stop-color="#0F054C"/>
</radialGradient>
<radialGradient id="paint6_radial_858_19295" cx="0" cy="0" r="1" gradientUnits="userSpaceOnUse" gradientTransform="translate(361.801 325.058) scale(96.2078)">
<stop stop-color="#42E8E0"/>
<stop offset="0.1055" stop-color="#37B6BF"/>
<stop offset="0.2197" stop-color="#2C87A1"/>
<stop offset="0.338" stop-color="#235F87"/>
<stop offset="0.4587" stop-color="#1C3F72"/>
<stop offset="0.5824" stop-color="#162561"/>
<stop offset="0.7105" stop-color="#121355"/>
<stop offset="0.8458" stop-color="#10084E"/>
<stop offset="1" stop-color="#0F054C"/>
</radialGradient>
</defs>
</svg>
