<svg width="661" height="650" viewBox="0 0 661 650" fill="none" xmlns="http://www.w3.org/2000/svg">
<path d="M452.67 566.925C450.943 566.925 449.001 566.493 447.49 565.414L351.228 509.743L351.876 508.449L448.137 564.119C450.943 565.846 454.396 565.846 457.202 564.119L540.298 516.217L540.946 517.511L457.85 565.414C456.339 566.493 454.612 566.925 452.67 566.925Z" fill="#42E8E0"/>
<path d="M272.449 585.913C270.722 585.913 268.78 585.482 267.053 584.403L159.352 522.043L443.605 357.62L444.252 358.915L162.158 522.043L267.7 583.108C270.506 584.834 273.96 584.834 276.765 583.108L357.271 537.147L357.919 538.442L277.413 584.403C276.118 585.482 274.175 585.913 272.449 585.913Z" fill="#42E8E0"/>
<path opacity="0.3" d="M290.147 526.79L153.741 448.031C152.014 447.168 152.23 445.442 154.172 444.363L358.351 326.332C360.293 325.253 363.099 325.038 364.826 326.117L501.232 404.875C502.959 405.739 502.743 407.465 500.801 408.544L296.622 526.574C294.68 527.653 291.874 527.869 290.147 526.79Z" fill="#0B0244"/>
<path d="M494.326 383.73L488.498 384.808L354.897 307.776C353.171 306.697 350.149 306.913 348.206 307.992L148.992 423.217L138.848 424.943V428.18C138.848 428.827 139.28 429.474 139.927 429.906L278.061 509.744C279.787 510.823 282.809 510.607 284.751 509.528L492.599 389.34C493.678 388.692 494.326 387.829 494.326 387.182V383.73V383.73Z" fill="#312A91"/>
<path opacity="0.5" d="M494.326 383.73L488.498 384.808L354.897 307.776C353.171 306.697 350.149 306.913 348.206 307.992L148.992 423.217L138.848 424.943V428.18C138.848 428.827 139.28 429.474 139.927 429.906L278.061 509.744C279.787 510.823 282.809 510.607 284.751 509.528L492.599 389.34C493.678 388.692 494.326 387.829 494.326 387.182V383.73V383.73Z" fill="url(#paint0_radial_858_19296)"/>
<path d="M492.815 387.398L284.967 507.586C283.025 508.665 280.003 508.881 278.276 507.802L140.143 427.964C139.28 427.532 139.064 426.885 139.064 426.238V427.101C139.064 427.748 139.496 428.395 140.143 428.827L278.276 508.665C280.003 509.744 283.025 509.528 284.967 508.449L492.815 388.261C493.894 387.613 494.541 386.75 494.541 386.103V385.24C494.326 385.887 493.894 386.75 492.815 387.398Z" fill="url(#paint1_radial_858_19296)"/>
<path d="M278.276 506.291L140.143 426.453C138.416 425.374 138.632 423.648 140.575 422.569L348.422 302.381C350.365 301.302 353.386 301.086 355.113 302.165L493.246 382.003C494.973 383.082 494.757 384.808 492.815 385.887L284.967 506.075C283.025 507.154 280.003 507.37 278.276 506.291Z" fill="#312A91"/>
<path opacity="0.7" d="M278.276 506.291L140.143 426.453C138.416 425.374 138.632 423.648 140.575 422.569L348.422 302.381C350.365 301.302 353.386 301.086 355.113 302.165L493.246 382.003C494.973 383.082 494.757 384.808 492.815 385.887L284.967 506.075C283.025 507.154 280.003 507.37 278.276 506.291Z" fill="url(#paint2_linear_858_19296)"/>
<g opacity="0.4">
<path opacity="0.5" d="M494.326 383.082L488.498 384.161L354.897 307.128C353.171 306.049 350.149 306.265 348.206 307.344L149.208 422.354L139.064 424.08V424.727C139.064 425.374 139.496 426.022 140.143 426.453L278.276 506.291C280.003 507.37 283.025 507.154 284.967 506.075L492.815 385.887C493.894 385.24 494.541 384.377 494.541 383.729V383.082H494.326Z" fill="url(#paint3_radial_858_19296)"/>
<path opacity="0.7" d="M278.276 505.644L140.143 425.806C138.416 424.727 138.632 423.001 140.575 421.922L348.422 301.734C350.365 300.655 353.386 300.439 355.113 301.518L493.246 381.356C494.973 382.435 494.757 384.161 492.815 385.24L284.967 505.428C283.025 506.507 280.003 506.723 278.276 505.644Z" fill="url(#paint4_radial_858_19296)"/>
<path opacity="0.4" d="M278.276 505.644L140.143 425.806C138.416 424.727 138.632 423.001 140.575 421.922L348.422 301.734C350.365 300.655 353.386 300.439 355.113 301.518L493.246 381.356C494.973 382.435 494.757 384.161 492.815 385.24L284.967 505.428C283.025 506.507 280.003 506.723 278.276 505.644Z" fill="#312A91"/>
</g>
<path opacity="0.5" d="M278.276 505.644L140.143 425.806C138.416 424.727 138.632 423.001 140.575 421.922L348.422 301.734C350.365 300.655 353.386 300.439 355.113 301.518L493.246 381.356C494.973 382.435 494.757 384.161 492.815 385.24L284.967 505.428C283.025 506.507 280.003 506.723 278.276 505.644Z" fill="url(#paint5_radial_858_19296)"/>
<path opacity="0.5" d="M278.276 505.644L140.143 425.806C138.416 424.727 138.632 423.001 140.575 421.922L348.422 301.734C350.365 300.655 353.386 300.439 355.113 301.518L493.246 381.356C494.973 382.435 494.757 384.161 492.815 385.24L284.967 505.428C283.025 506.507 280.003 506.723 278.276 505.644Z" fill="url(#paint6_radial_858_19296)"/>
<path opacity="0.9" d="M279.14 505.644L141.006 425.806C139.064 424.727 138.848 423.432 141.438 421.922L349.285 301.734C350.149 301.302 351.228 300.871 352.307 300.871C351.012 300.871 349.501 301.086 348.422 301.734L140.575 421.922C138.632 423.001 138.416 424.727 140.143 425.806L278.276 505.644C279.14 506.291 280.435 506.291 281.946 506.291C280.866 506.291 279.787 506.075 279.14 505.644Z" fill="url(#paint7_radial_858_19296)"/>
<path d="M346.696 294.613L329.645 148.1C329.645 147.884 329.429 147.452 329.429 147.237L330.94 146.589L327.486 144.647C325.976 143.784 324.249 143.784 322.522 144.647L116.833 263.541C114.891 264.62 113.811 266.778 114.027 269.151L131.078 415.664C131.294 417.39 132.373 418.901 133.884 419.548L137.121 421.49L136.69 419.764C137.121 419.764 137.769 419.548 138.201 419.117L343.89 300.223C345.832 298.928 346.911 296.771 346.696 294.613Z" fill="#312A91"/>
<path opacity="0.7" d="M346.696 294.613L329.645 148.1C329.645 147.884 329.429 147.452 329.429 147.237L330.94 146.589L327.486 144.647C325.976 143.784 324.249 143.784 322.522 144.647L116.833 263.541C114.891 264.62 113.811 266.778 114.027 269.151L131.078 415.664C131.294 417.39 132.373 418.901 133.884 419.548L137.121 421.49L136.69 419.764C137.121 419.764 137.769 419.548 138.201 419.117L343.89 300.223C345.832 298.928 346.911 296.771 346.696 294.613Z" fill="url(#paint8_linear_858_19296)"/>
<path d="M347.774 302.381L142.085 421.275C139.064 423.001 134.963 421.059 134.747 417.606L117.696 271.093C117.48 268.935 118.559 266.778 120.502 265.483L326.191 146.589C329.213 144.863 333.314 146.805 333.529 150.258L350.58 296.771C350.796 298.929 349.717 301.086 347.774 302.381Z" fill="url(#paint9_linear_858_19296)"/>
<path opacity="0.5" d="M347.774 302.381L142.085 421.275C139.064 423.001 134.963 421.059 134.747 417.606L117.696 271.093C117.48 268.935 118.559 266.778 120.502 265.483L326.191 146.589C329.213 144.863 333.314 146.805 333.529 150.258L350.58 296.771C350.796 298.929 349.717 301.086 347.774 302.381Z" fill="url(#paint10_radial_858_19296)"/>
<path opacity="0.9" d="M118.776 266.562L115.322 264.62C114.675 265.483 114.243 266.346 114.027 267.425L117.481 269.367C117.697 268.288 118.128 267.209 118.776 266.562Z" fill="url(#paint11_radial_858_19296)"/>
<path opacity="0.9" d="M135.395 417.822L118.344 271.309C117.912 268.719 118.775 267.425 121.15 265.698L326.839 146.805C328.349 145.942 330.076 145.942 331.371 146.589C329.86 145.51 327.702 145.294 325.975 146.373L120.286 265.267C118.344 266.346 117.265 268.504 117.48 270.877L134.531 417.39C134.747 419.332 135.826 420.627 137.337 421.274C136.258 420.627 135.61 419.332 135.395 417.822Z" fill="url(#paint12_linear_858_19296)"/>
<g opacity="0.4">
<g opacity="0.4">
<path opacity="0.4" d="M208.778 419.116L203.382 422.137C202.735 422.353 202.087 422.569 201.656 422.137L196.044 418.901C195.612 418.685 195.612 418.253 196.26 417.822L201.656 414.801C202.303 414.585 202.951 414.369 203.382 414.801L208.994 418.038C209.426 418.469 209.426 418.901 208.778 419.116Z" fill="#42E8E0"/>
<path opacity="0.4" d="M339.789 400.991L283.672 433.358C283.025 433.574 282.377 433.79 281.946 433.358L276.334 430.121C275.902 429.906 275.902 429.474 276.55 429.043L332.667 396.676C333.314 396.46 333.962 396.244 334.393 396.676L340.005 399.913C340.221 400.344 340.221 400.776 339.789 400.991Z" fill="#42E8E0"/>
<path opacity="0.4" d="M381.229 377.04L375.833 380.061C375.186 380.276 374.538 380.492 374.106 380.061L368.495 376.824C368.063 376.608 368.063 376.177 368.711 375.745L374.106 372.724C374.754 372.508 375.401 372.293 375.833 372.724L381.445 375.961C381.876 376.177 381.876 376.824 381.229 377.04Z" fill="#42E8E0"/>
<path opacity="0.4" d="M391.805 370.998L386.409 374.019C385.761 374.235 385.114 374.451 384.682 374.019L379.07 370.783C378.639 370.567 378.639 370.135 379.286 369.704L384.682 366.683C385.33 366.467 385.977 366.251 386.409 366.683L392.02 369.919C392.452 370.135 392.452 370.567 391.805 370.998Z" fill="#42E8E0"/>
<path opacity="0.4" d="M382.524 365.604L377.128 368.625C376.481 368.84 375.833 369.056 375.402 368.625L369.79 365.388C369.358 365.172 369.358 364.741 370.006 364.309L375.402 361.288C376.049 361.072 376.697 360.857 377.128 361.288L382.74 364.525C382.956 364.741 382.956 365.172 382.524 365.604Z" fill="#42E8E0"/>
<path opacity="0.4" d="M402.597 364.741L397.201 367.761C396.553 367.977 395.906 368.193 395.474 367.761L389.862 364.525C389.431 364.309 389.431 363.877 390.078 363.446L395.474 360.425C396.122 360.209 396.769 359.993 397.201 360.425L402.812 363.662C403.244 363.877 403.028 364.525 402.597 364.741Z" fill="#42E8E0"/>
</g>
<g opacity="0.4">
<path opacity="0.4" d="M262.952 445.226L252.808 451.052C252.161 451.268 251.513 451.483 251.081 451.052L245.47 447.815C245.038 447.599 245.038 447.168 245.686 446.736L255.83 440.91C256.477 440.695 257.125 440.479 257.556 440.91L263.168 444.147C263.6 444.579 263.6 445.01 262.952 445.226Z" fill="#42E8E0"/>
<path opacity="0.4" d="M278.277 436.379L268.132 442.205C267.485 442.42 266.837 442.636 266.406 442.205L260.794 438.968C260.362 438.752 260.362 438.321 261.01 437.889L271.154 432.063C271.802 431.847 272.449 431.632 272.881 432.063L278.492 435.3C278.924 435.731 278.924 436.163 278.277 436.379Z" fill="#42E8E0"/>
<path opacity="0.4" d="M355.545 391.928L345.4 397.754C344.753 397.97 344.105 398.186 343.674 397.754L338.062 394.518C337.63 394.302 337.63 393.87 338.278 393.439L348.422 387.613C349.07 387.397 349.717 387.181 350.149 387.613L355.76 390.85C356.192 391.065 355.976 391.497 355.545 391.928Z" fill="#42E8E0"/>
<path opacity="0.4" d="M370.869 383.082L360.725 388.908C360.077 389.124 359.43 389.339 358.998 388.908L353.386 385.671C352.955 385.455 352.955 385.024 353.602 384.592L363.746 378.766C364.394 378.55 365.041 378.335 365.473 378.766L371.085 382.003C371.516 382.219 371.516 382.65 370.869 383.082Z" fill="#42E8E0"/>
<path opacity="0.4" d="M227.124 408.76L221.728 411.78C221.081 411.996 220.433 412.212 220.001 411.78L214.39 408.544C213.958 408.328 213.958 407.896 214.606 407.465L220.001 404.444C220.649 404.228 221.296 404.012 221.728 404.444L227.34 407.681C227.556 407.896 227.556 408.328 227.124 408.76Z" fill="#42E8E0"/>
<path opacity="0.4" d="M363.099 342.084L213.311 428.611C212.663 428.827 212.016 429.043 211.584 428.611L205.972 425.374C205.541 425.159 205.541 424.727 206.188 424.296L355.976 337.769C356.624 337.553 357.271 337.337 357.703 337.769L363.315 341.005C363.746 341.221 363.746 341.653 363.099 342.084Z" fill="#42E8E0"/>
<path opacity="0.4" d="M373.243 347.694L223.455 434.221C222.807 434.437 222.16 434.653 221.728 434.221L216.116 430.984C215.685 430.769 215.685 430.337 216.332 429.905L366.12 343.379C366.768 343.163 367.415 342.947 367.847 343.379L373.459 346.615C373.675 347.047 373.675 347.478 373.243 347.694Z" fill="#42E8E0"/>
<path opacity="0.4" d="M383.172 353.52L233.383 440.047C232.736 440.263 232.088 440.479 231.657 440.047L226.045 436.81C225.613 436.595 225.613 436.163 226.261 435.732L376.049 349.205C376.697 348.989 377.344 348.773 377.776 349.205L383.388 352.441C383.819 352.873 383.603 353.305 383.172 353.52Z" fill="#42E8E0"/>
<path opacity="0.4" d="M371.948 371.646L243.527 445.873C242.88 446.089 242.232 446.305 241.801 445.873L236.189 442.637C235.757 442.421 235.757 441.989 236.405 441.558L364.826 367.33C365.473 367.114 366.121 366.899 366.552 367.33L372.164 370.567C372.38 370.783 372.38 371.43 371.948 371.646Z" fill="#42E8E0"/>
<path opacity="0.4" d="M237.052 402.933L231.656 405.954C231.009 406.17 230.361 406.386 229.93 405.954L224.318 402.718C223.886 402.502 223.886 402.07 224.534 401.639L229.93 398.618C230.577 398.402 231.225 398.186 231.656 398.618L237.268 401.854C237.7 402.07 237.484 402.502 237.052 402.933Z" fill="#42E8E0"/>
<path opacity="0.4" d="M246.98 397.107L241.584 400.128C240.937 400.344 240.29 400.56 239.858 400.128L234.246 396.892C233.814 396.676 233.814 396.244 234.462 395.813L239.858 392.792C240.505 392.576 241.153 392.36 241.584 392.792L247.196 396.028C247.628 396.46 247.628 396.891 246.98 397.107Z" fill="#42E8E0"/>
<path opacity="0.4" d="M256.909 391.282L251.513 394.302C250.866 394.518 250.218 394.734 249.787 394.302L244.175 391.066C243.743 390.85 243.743 390.418 244.391 389.987L249.787 386.966C250.434 386.75 251.082 386.534 251.513 386.966L257.125 390.203C257.557 390.634 257.557 391.066 256.909 391.282Z" fill="#42E8E0"/>
<path opacity="0.4" d="M280.003 378.119L274.607 381.14C273.96 381.356 273.312 381.571 272.881 381.14L267.269 377.903C266.837 377.687 266.837 377.256 267.485 376.824L272.881 373.803C273.528 373.588 274.176 373.372 274.607 373.803L280.219 377.04C280.435 377.256 280.435 377.903 280.003 378.119Z" fill="#42E8E0"/>
<path opacity="0.4" d="M289.931 372.293L284.536 375.314C283.888 375.529 283.241 375.745 282.809 375.314L277.197 372.077C276.766 371.861 276.766 371.43 277.413 370.998L282.809 367.977C283.457 367.761 284.104 367.546 284.536 367.977L290.147 371.214C290.579 371.645 290.363 372.077 289.931 372.293Z" fill="#42E8E0"/>
<path opacity="0.4" d="M299.86 366.683L294.464 369.704C293.816 369.92 293.169 370.135 292.737 369.704L287.126 366.467C286.694 366.251 286.694 365.82 287.341 365.388L292.737 362.367C293.385 362.152 294.032 361.936 294.464 362.367L300.076 365.604C300.507 365.82 300.507 366.251 299.86 366.683Z" fill="#42E8E0"/>
<path opacity="0.4" d="M309.788 360.857L304.392 363.878C303.745 364.093 303.097 364.309 302.665 363.878L297.054 360.641C296.622 360.425 296.622 359.994 297.27 359.562L302.665 356.541C303.313 356.325 303.96 356.11 304.392 356.541L310.004 359.778C310.436 359.994 310.436 360.641 309.788 360.857Z" fill="#42E8E0"/>
<path opacity="0.4" d="M332.882 347.694L327.486 350.715C326.839 350.931 326.191 351.147 325.76 350.715L320.148 347.478C319.716 347.263 319.716 346.831 320.364 346.399L325.76 343.379C326.407 343.163 327.055 342.947 327.486 343.379L333.098 346.615C333.314 346.831 333.314 347.263 332.882 347.694Z" fill="#42E8E0"/>
<path opacity="0.4" d="M392.884 359.131L387.488 362.151C386.84 362.367 386.193 362.583 385.761 362.151L380.15 358.915C379.718 358.699 379.718 358.267 380.365 357.836L385.761 354.815C386.409 354.599 387.056 354.384 387.488 354.815L393.1 358.052C393.531 358.483 393.315 358.915 392.884 359.131Z" fill="#42E8E0"/>
<path opacity="0.4" d="M342.81 341.868L337.415 344.889C336.767 345.105 336.12 345.321 335.688 344.889L330.076 341.653C329.645 341.437 329.645 341.005 330.292 340.574L335.688 337.553C336.335 337.337 336.983 337.121 337.415 337.553L343.026 340.79C343.458 341.005 343.242 341.437 342.81 341.868Z" fill="#42E8E0"/>
<path opacity="0.4" d="M352.739 336.042L347.343 339.063C346.696 339.279 346.048 339.495 345.617 339.063L340.005 335.826C339.573 335.611 339.573 335.179 340.221 334.748L345.617 331.727C346.264 331.511 346.912 331.295 347.343 331.727L352.955 334.963C353.387 335.395 353.387 335.826 352.739 336.042Z" fill="#42E8E0"/>
</g>
</g>
<path opacity="0.6" d="M144.244 419.764L422.453 425.806L492.599 385.24C494.542 384.161 494.757 382.435 493.031 381.356L354.897 301.518C353.171 300.439 350.149 300.655 348.207 301.734L144.244 419.764Z" fill="url(#paint13_radial_858_19296)"/>
<path opacity="0.2" d="M480.944 387.397C481.376 387.613 481.376 388.26 480.944 388.476C480.512 388.692 479.649 388.692 479.001 388.476C478.57 388.26 478.57 387.613 479.001 387.397C479.649 387.181 480.512 387.181 480.944 387.397Z" fill="#FCCC6B"/>
<path opacity="0.6" d="M483.966 385.671C484.397 385.887 484.397 386.534 483.966 386.75C483.534 386.966 482.671 386.966 482.023 386.75C481.591 386.534 481.591 385.887 482.023 385.671C482.455 385.455 483.318 385.455 483.966 385.671Z" fill="#FCCC6B"/>
<path d="M486.772 384.161C487.203 384.376 487.203 385.024 486.772 385.239C486.34 385.455 485.477 385.455 484.829 385.239C484.397 385.024 484.397 384.376 484.829 384.161C485.477 383.729 486.34 383.729 486.772 384.161Z" fill="#FCCC6B"/>
<path d="M198.634 292.239C198.418 292.239 198.202 292.239 197.986 292.023C197.555 291.808 197.339 291.376 197.123 290.729L195.828 279.508C195.612 278.429 196.26 277.135 197.123 276.703L272.017 233.548C272.449 233.332 272.881 233.332 273.312 233.548C273.744 233.763 273.96 234.195 274.175 234.842L275.471 246.063C275.686 247.142 275.039 248.436 274.175 248.868L199.281 292.023C199.065 292.239 198.85 292.239 198.634 292.239ZM272.88 233.979C272.665 233.979 272.665 233.979 272.449 234.195L197.555 277.35C196.907 277.782 196.476 278.645 196.691 279.508L197.986 290.729C197.986 291.16 198.202 291.376 198.418 291.376C198.634 291.376 198.85 291.376 199.065 291.376L273.96 248.22C274.607 247.789 275.039 246.926 274.823 246.063L273.528 234.842C273.528 234.411 273.312 234.195 272.88 233.979C272.88 233.979 273.096 233.979 272.88 233.979Z" fill="#42E8E0"/>
<path d="M201.224 314.033C201.008 314.033 200.792 314.033 200.576 313.817C200.144 313.601 199.929 313.169 199.713 312.522L198.418 301.302C198.202 300.223 198.849 298.928 199.713 298.497L274.607 255.341C275.039 255.125 275.47 255.125 275.902 255.341C276.334 255.557 276.549 255.988 276.765 256.636L278.06 267.856C278.276 268.935 277.629 270.23 276.765 270.661L201.871 313.817C201.871 313.817 201.439 314.033 201.224 314.033ZM275.47 255.773C275.254 255.773 275.254 255.773 275.039 255.988L200.144 299.144C199.497 299.575 199.065 300.439 199.281 301.302L200.576 312.522C200.576 312.954 200.792 313.169 201.008 313.169C201.224 313.169 201.439 313.169 201.655 313.169L276.549 270.014C277.197 269.582 277.629 268.719 277.413 267.856L276.118 256.636C276.118 256.204 275.902 255.988 275.47 255.773C275.686 255.773 275.686 255.773 275.47 255.773Z" fill="#42E8E0"/>
<path d="M279.356 292.023L204.461 335.179C203.814 335.611 202.951 335.179 202.951 334.316L201.656 323.095C201.44 322.232 202.087 321.153 202.735 320.722L277.629 277.566C278.277 277.135 279.14 277.566 279.14 278.429L280.435 289.65C280.651 290.513 280.219 291.592 279.356 292.023Z" fill="#42E8E0"/>
<path d="M207.915 302.381C208.13 303.459 207.483 304.538 206.62 305.186C205.756 305.833 204.677 305.401 204.677 304.323C204.461 303.244 205.109 302.165 205.972 301.517C206.835 301.086 207.699 301.517 207.915 302.381Z" fill="#42E8E0"/>
<path d="M213.526 299.144C213.742 300.223 213.095 301.302 212.231 301.949C211.368 302.597 210.289 302.165 210.289 301.086C210.073 300.007 210.721 298.928 211.584 298.281C212.447 297.85 213.526 298.065 213.526 299.144Z" fill="#42E8E0"/>
<path d="M219.354 295.907C219.57 296.986 218.922 298.065 218.059 298.713C217.196 299.36 216.117 298.928 216.117 297.849C215.901 296.771 216.548 295.692 217.411 295.044C218.059 294.613 219.138 294.829 219.354 295.907Z" fill="#42E8E0"/>
<path d="M224.965 292.671C225.181 293.75 224.534 294.828 223.67 295.476C222.807 296.123 221.728 295.692 221.728 294.613C221.512 293.534 222.16 292.455 223.023 291.808C223.886 291.376 224.75 291.592 224.965 292.671Z" fill="#42E8E0"/>
<path d="M230.577 289.434C230.793 290.513 230.146 291.592 229.282 292.239C228.419 292.887 227.34 292.455 227.34 291.376C227.124 290.297 227.771 289.219 228.635 288.571C229.498 288.14 230.361 288.355 230.577 289.434Z" fill="#42E8E0"/>
<path d="M236.189 286.198C236.405 287.276 235.757 288.355 234.894 289.003C234.03 289.65 232.951 289.218 232.951 288.14C232.951 287.061 233.383 285.982 234.246 285.334C235.11 284.687 235.973 285.119 236.189 286.198Z" fill="#42E8E0"/>
<path d="M241.8 282.961C242.016 284.04 241.369 285.118 240.505 285.766C239.642 286.413 238.563 285.982 238.563 284.903C238.347 283.824 238.995 282.745 239.858 282.098C240.721 281.45 241.584 281.882 241.8 282.961Z" fill="#42E8E0"/>
<path opacity="0.3" d="M362.02 565.845L318.206 540.599C316.479 539.736 316.695 538.01 318.638 536.931L402.597 488.381C404.539 487.302 407.345 487.086 409.072 488.165L452.886 513.411C454.613 514.275 454.397 516.001 452.454 517.08L368.495 565.63C366.553 566.708 363.747 566.924 362.02 565.845Z" fill="#0B0244"/>
<path d="M445.979 492.265L440.152 493.344L399.143 469.609C397.417 468.53 394.395 468.746 392.453 469.825L313.458 515.354L303.313 517.08V520.316C303.313 520.964 303.745 521.611 304.393 522.043L350.149 548.368C351.876 549.446 354.898 549.231 356.84 548.152L444.468 497.66C445.548 497.012 446.195 496.149 446.195 495.502V492.265H445.979Z" fill="#312A91"/>
<path opacity="0.5" d="M445.979 492.265L440.152 493.344L399.143 469.609C397.417 468.53 394.395 468.746 392.453 469.825L313.458 515.354L303.313 517.08V520.316C303.313 520.964 303.745 521.611 304.393 522.043L350.149 548.368C351.876 549.446 354.898 549.231 356.84 548.152L444.468 497.66C445.548 497.012 446.195 496.149 446.195 495.502V492.265H445.979Z" fill="url(#paint14_radial_858_19296)"/>
<path d="M444.468 495.934L356.84 546.426C354.898 547.505 351.876 547.72 350.149 546.641L304.393 520.317C303.529 519.885 303.313 519.238 303.313 518.59V519.453C303.313 520.101 303.745 520.748 304.393 521.18L350.149 547.505C351.876 548.583 354.898 548.368 356.84 547.289L444.468 496.797C445.548 496.149 446.195 495.286 446.195 494.639V493.776C445.979 494.423 445.548 495.286 444.468 495.934Z" fill="url(#paint15_radial_858_19296)"/>
<path d="M350.149 545.347L304.392 519.022C302.666 517.943 302.882 516.217 304.824 515.138L392.452 464.646C394.395 463.567 397.417 463.351 399.143 464.43L444.9 490.755C446.627 491.834 446.411 493.56 444.468 494.639L356.84 545.131C354.897 546.21 351.876 546.425 350.149 545.347Z" fill="#312A91"/>
<path opacity="0.7" d="M350.149 545.347L304.392 519.022C302.666 517.943 302.882 516.217 304.824 515.138L392.452 464.646C394.395 463.567 397.417 463.351 399.143 464.43L444.9 490.755C446.627 491.834 446.411 493.56 444.468 494.639L356.84 545.131C354.897 546.21 351.876 546.425 350.149 545.347Z" fill="url(#paint16_linear_858_19296)"/>
<g opacity="0.4">
<path opacity="0.5" d="M445.979 491.618L440.152 492.697L399.143 468.961C397.417 467.882 394.395 468.098 392.453 469.177L313.458 514.706L303.313 516.432V517.08C303.313 517.727 303.745 518.374 304.393 518.806L350.149 545.131C351.876 546.21 354.898 545.994 356.84 544.915L444.468 494.423C445.548 493.776 446.195 492.913 446.195 492.265V491.618H445.979Z" fill="url(#paint17_radial_858_19296)"/>
<path opacity="0.7" d="M350.149 544.699L304.392 518.374C302.666 517.295 302.882 515.569 304.824 514.49L392.452 463.998C394.395 462.919 397.417 462.704 399.143 463.783L444.9 490.107C446.627 491.186 446.411 492.913 444.468 493.991L356.84 544.483C354.897 545.562 351.876 545.778 350.149 544.699Z" fill="url(#paint18_radial_858_19296)"/>
<path opacity="0.4" d="M350.149 544.699L304.392 518.374C302.666 517.295 302.882 515.569 304.824 514.49L392.452 463.998C394.395 462.919 397.417 462.704 399.143 463.783L444.9 490.107C446.627 491.186 446.411 492.913 444.468 493.991L356.84 544.483C354.897 545.562 351.876 545.778 350.149 544.699Z" fill="#312A91"/>
</g>
<path d="M338.926 540.815C338.926 541.247 338.71 541.247 338.494 541.031C338.278 540.815 338.062 540.384 338.062 540.168C338.062 539.952 338.278 539.736 338.494 539.952C338.71 539.952 338.926 540.384 338.926 540.815Z" fill="#180D5B"/>
<path d="M341.084 541.894C341.084 542.326 340.868 542.326 340.652 542.11C340.437 541.894 340.221 541.462 340.221 541.247C340.221 540.815 340.437 540.815 340.652 541.031C340.652 541.247 341.084 541.462 341.084 541.894Z" fill="#180D5B"/>
<path d="M343.026 542.973C343.026 543.405 342.811 543.405 342.595 543.189C342.379 542.973 342.163 542.542 342.163 542.326C342.163 541.894 342.379 541.894 342.595 542.11C342.811 542.326 343.026 542.757 343.026 542.973Z" fill="#180D5B"/>
<path d="M311.083 524.632C311.083 525.063 310.867 525.063 310.651 524.848C310.436 524.632 310.22 524.2 310.22 523.984C310.22 523.769 310.436 523.553 310.651 523.769C310.867 523.984 311.083 524.416 311.083 524.632Z" fill="#180D5B"/>
<path d="M313.241 525.927C313.241 526.358 313.025 526.358 312.81 526.142C312.594 525.927 312.378 525.495 312.378 525.279C312.378 525.064 312.594 524.848 312.81 525.063C312.81 525.063 313.241 525.495 313.241 525.927Z" fill="#180D5B"/>
<path d="M315.184 527.005C315.184 527.437 314.968 527.437 314.752 527.221C314.537 527.005 314.321 526.574 314.321 526.358C314.321 525.926 314.537 525.926 314.752 526.142C314.968 526.358 315.184 526.574 315.184 527.005Z" fill="#180D5B"/>
<path opacity="0.5" d="M350.149 544.699L304.392 518.374C302.666 517.295 302.882 515.569 304.824 514.49L392.452 463.998C394.395 462.919 397.417 462.704 399.143 463.783L444.9 490.107C446.627 491.186 446.411 492.913 444.468 493.991L356.84 544.483C354.897 545.562 351.876 545.778 350.149 544.699Z" fill="url(#paint19_radial_858_19296)"/>
<path opacity="0.5" d="M350.149 544.699L304.392 518.374C302.666 517.295 302.882 515.569 304.824 514.49L392.452 463.998C394.395 462.919 397.417 462.704 399.143 463.783L444.9 490.107C446.627 491.186 446.411 492.913 444.468 493.991L356.84 544.483C354.897 545.562 351.876 545.778 350.149 544.699Z" fill="url(#paint20_radial_858_19296)"/>
<path opacity="0.9" d="M351.013 544.699L305.256 518.374C303.313 517.296 303.098 516.001 305.688 514.49L393.316 463.998C394.179 463.567 395.258 463.135 396.338 463.135C395.043 463.135 393.532 463.351 392.452 463.998L304.824 514.49C302.882 515.569 302.666 517.296 304.392 518.374L350.149 544.699C351.012 545.347 352.523 545.347 353.818 545.347C352.739 545.347 351.66 545.131 351.013 544.699Z" fill="url(#paint21_radial_858_19296)"/>
<path d="M328.997 534.989C328.997 535.421 328.782 535.637 328.35 535.421L324.681 533.263C324.465 533.047 324.033 532.616 324.033 532.184C324.033 531.753 324.249 531.537 324.681 531.753L328.35 533.91C328.566 534.126 328.997 534.558 328.997 534.989Z" fill="#180D5B"/>
<path opacity="0.2" d="M432.813 495.933C433.245 496.149 433.245 496.796 432.813 497.012C432.381 497.228 431.518 497.228 430.871 497.012C430.439 496.796 430.439 496.149 430.871 495.933C431.302 495.718 432.166 495.718 432.813 495.933Z" fill="#FCCC6B"/>
<path opacity="0.6" d="M435.619 494.423C436.05 494.639 436.05 495.286 435.619 495.502C435.187 495.718 434.324 495.718 433.676 495.502C433.245 495.286 433.245 494.639 433.676 494.423C434.324 493.992 435.187 493.992 435.619 494.423Z" fill="#FCCC6B"/>
<path d="M438.641 492.697C439.072 492.913 439.072 493.56 438.641 493.776C438.209 493.992 437.346 493.992 436.698 493.776C436.051 493.56 436.267 492.913 436.698 492.697C437.13 492.481 437.993 492.265 438.641 492.697Z" fill="#FCCC6B"/>
<path opacity="0.3" d="M568.788 556.135L427.849 474.787C426.122 473.924 426.338 472.198 428.281 471.119L512.24 422.569C514.182 421.49 516.988 421.274 518.715 422.353L659.654 503.701C661.381 504.564 661.165 506.29 659.222 507.369L575.263 555.919C573.321 556.998 570.515 556.998 568.788 556.135Z" fill="#0B0244"/>
<path d="M652.748 482.555L646.92 483.634L508.787 403.796C507.06 402.717 504.039 402.933 502.096 404.012L423.101 449.541L412.957 451.267V454.504C412.957 455.151 413.389 455.799 414.036 456.23L556.918 538.657C558.645 539.736 561.666 539.52 563.609 538.441L651.237 487.95C652.316 487.302 652.964 486.439 652.964 485.792V482.555H652.748Z" fill="#312A91"/>
<path opacity="0.5" d="M652.748 482.555L646.92 483.634L508.787 403.796C507.06 402.717 504.039 402.933 502.096 404.012L423.101 449.541L412.957 451.267V454.504C412.957 455.151 413.389 455.799 414.036 456.23L556.918 538.657C558.645 539.736 561.666 539.52 563.609 538.441L651.237 487.95C652.316 487.302 652.964 486.439 652.964 485.792V482.555H652.748Z" fill="url(#paint22_radial_858_19296)"/>
<path d="M651.237 486.008L563.609 536.715C561.666 537.794 558.645 538.01 556.918 536.931L414.036 454.504C413.173 454.072 412.957 453.425 412.957 452.778V453.641C412.957 454.288 413.389 454.936 414.036 455.367L556.918 537.794C558.645 538.873 561.666 538.657 563.609 537.578L651.237 487.086C652.316 486.439 652.964 485.576 652.964 484.929V484.066C652.748 484.713 652.316 485.576 651.237 486.008Z" fill="url(#paint23_radial_858_19296)"/>
<path d="M556.918 535.636L414.036 453.209C412.309 452.13 412.525 450.404 414.468 449.325L502.096 398.833C504.039 397.754 507.06 397.539 508.787 398.618L651.669 481.045C653.395 482.124 653.179 483.85 651.237 484.929L563.609 535.421C561.666 536.5 558.644 536.5 556.918 535.636Z" fill="#312A91"/>
<path opacity="0.7" d="M556.918 535.636L414.036 453.209C412.309 452.13 412.525 450.404 414.468 449.325L502.096 398.833C504.039 397.754 507.06 397.539 508.787 398.618L651.669 481.045C653.395 482.124 653.179 483.85 651.237 484.929L563.609 535.421C561.666 536.5 558.644 536.5 556.918 535.636Z" fill="url(#paint24_linear_858_19296)"/>
<g opacity="0.4">
<path opacity="0.5" d="M652.748 481.908L646.92 482.987L508.787 403.149C507.06 402.07 504.039 402.286 502.096 403.365L423.101 448.894L412.957 450.62V451.267C412.957 451.915 413.389 452.562 414.036 452.993L556.918 535.421C558.645 536.499 561.666 536.284 563.609 535.205L651.237 484.713C652.316 484.065 652.964 483.202 652.964 482.555V481.908H652.748Z" fill="url(#paint25_radial_858_19296)"/>
<path opacity="0.7" d="M556.918 534.989L414.036 452.562C412.309 451.483 412.525 449.757 414.468 448.678L502.096 398.186C504.039 397.107 507.06 396.891 508.787 397.97L651.669 480.397C653.395 481.476 653.179 483.202 651.237 484.281L563.609 534.557C561.666 535.852 558.644 535.852 556.918 534.989Z" fill="url(#paint26_radial_858_19296)"/>
<path opacity="0.4" d="M556.918 534.989L414.036 452.562C412.309 451.483 412.525 449.757 414.468 448.678L502.096 398.186C504.039 397.107 507.06 396.891 508.787 397.97L651.669 480.397C653.395 481.476 653.179 483.202 651.237 484.281L563.609 534.557C561.666 535.852 558.644 535.852 556.918 534.989Z" fill="#312A91"/>
</g>
<path opacity="0.5" d="M556.918 534.989L414.036 452.562C412.309 451.483 412.525 449.757 414.468 448.678L502.096 398.186C504.039 397.107 507.06 396.891 508.787 397.97L651.669 480.397C653.395 481.476 653.179 483.202 651.237 484.281L563.609 534.557C561.666 535.852 558.644 535.852 556.918 534.989Z" fill="url(#paint27_radial_858_19296)"/>
<path opacity="0.5" d="M556.918 534.989L414.036 452.562C412.309 451.483 412.525 449.757 414.468 448.678L502.096 398.186C504.039 397.107 507.06 396.891 508.787 397.97L651.669 480.397C653.395 481.476 653.179 483.202 651.237 484.281L563.609 534.557C561.666 535.852 558.644 535.852 556.918 534.989Z" fill="url(#paint28_radial_858_19296)"/>
<path opacity="0.6" d="M561.882 428.395L508.787 397.754C507.06 396.675 504.038 396.891 502.096 397.97L452.886 426.453L561.882 428.395Z" fill="url(#paint29_radial_858_19296)"/>
<path opacity="0.9" d="M557.781 534.989L414.899 452.562C412.957 451.483 412.741 450.188 415.331 448.678L502.959 398.186C503.823 397.754 504.902 397.323 505.981 397.323C504.686 397.323 503.175 397.539 502.096 398.186L414.468 448.678C412.525 449.757 412.309 451.483 414.036 452.562L556.918 534.989C557.781 535.636 559.076 535.636 560.587 535.636C559.508 535.636 558.428 535.421 557.781 534.989Z" fill="url(#paint30_radial_858_19296)"/>
<path opacity="0.2" d="M639.582 486.223C640.013 486.439 640.013 487.086 639.582 487.302C639.15 487.518 638.287 487.518 637.639 487.302C637.208 487.086 637.208 486.439 637.639 486.223C638.071 486.008 638.934 486.008 639.582 486.223Z" fill="#FCCC6B"/>
<path opacity="0.6" d="M642.387 484.497C642.819 484.713 642.819 485.36 642.387 485.576C641.956 485.791 641.092 485.791 640.445 485.576C640.013 485.36 640.013 484.713 640.445 484.497C640.877 484.281 641.956 484.281 642.387 484.497Z" fill="#FCCC6B"/>
<path d="M645.409 482.771C645.841 482.987 645.841 483.634 645.409 483.85C644.978 484.065 644.114 484.065 643.467 483.85C643.035 483.634 643.035 482.987 643.467 482.771C643.898 482.555 644.762 482.555 645.409 482.771Z" fill="#FCCC6B"/>
<path d="M595.336 518.806C595.336 519.237 595.552 519.237 595.983 519.021C596.199 518.806 596.631 518.374 596.631 518.158C596.631 517.727 596.415 517.727 595.983 517.943C595.552 517.943 595.336 518.374 595.336 518.806Z" fill="#180D5B"/>
<path d="M593.177 520.1C593.177 520.532 593.393 520.532 593.825 520.316C594.041 520.101 594.472 519.669 594.472 519.453C594.472 519.022 594.256 519.022 593.825 519.237C593.393 519.237 593.177 519.669 593.177 520.1Z" fill="#180D5B"/>
<path d="M591.019 521.395C591.019 521.826 591.235 521.826 591.667 521.611C591.882 521.395 592.314 520.963 592.314 520.748C592.314 520.316 592.098 520.316 591.667 520.532C591.235 520.532 591.019 520.963 591.019 521.395Z" fill="#180D5B"/>
<path d="M625.769 501.328C625.769 501.759 625.984 501.759 626.416 501.543C626.632 501.328 627.064 500.896 627.064 500.68C627.064 500.249 626.848 500.249 626.416 500.465C625.984 500.465 625.769 500.896 625.769 501.328Z" fill="#180D5B"/>
<path d="M623.394 502.622C623.394 503.054 623.61 503.054 624.042 502.838C624.257 502.622 624.689 502.19 624.689 501.975C624.689 501.543 624.473 501.543 624.042 501.759C623.826 501.759 623.394 502.191 623.394 502.622Z" fill="#180D5B"/>
<path d="M621.236 503.917C621.236 504.349 621.452 504.349 621.883 504.133C622.099 503.917 622.531 503.485 622.531 503.27C622.531 502.838 622.315 502.838 621.883 503.054C621.452 503.054 621.236 503.485 621.236 503.917Z" fill="#180D5B"/>
<path d="M606.343 512.548C606.343 512.979 606.559 513.195 606.991 512.979L610.876 510.822C611.307 510.606 611.523 510.174 611.523 509.743C611.523 509.311 611.307 509.095 610.876 509.311L606.991 511.469C606.559 511.469 606.343 512.116 606.343 512.548Z" fill="#180D5B"/>
<path d="M559.723 529.81C558.428 529.81 557.349 529.595 556.486 528.947L413.604 446.52C412.525 445.873 412.093 445.225 412.093 444.147C412.093 443.068 412.741 441.989 414.036 441.341L501.664 390.849C503.822 389.555 507.06 389.555 509.002 390.634L651.884 473.061C652.963 473.708 653.395 474.355 653.395 475.434C653.395 476.513 652.747 477.592 651.452 478.239L563.824 528.731C562.745 529.379 561.234 529.81 559.723 529.81ZM557.349 527.868C558.86 528.731 561.666 528.516 563.392 527.653L651.021 477.161C651.884 476.729 652.316 476.082 652.316 475.65C652.316 475.219 651.884 474.787 651.452 474.571L508.571 392.144C507.06 391.281 504.254 391.497 502.527 392.36L414.899 442.852C414.036 443.283 413.604 443.931 413.604 444.362C413.604 444.794 414.036 445.225 414.467 445.441L557.349 527.868Z" fill="#42E8E0"/>
<path opacity="0.8" d="M559.723 510.175C558.428 510.175 557.349 509.959 556.486 509.311L413.604 426.884C412.525 426.237 412.093 425.59 412.093 424.511C412.093 423.432 412.741 422.353 414.036 421.706L501.664 371.214C503.822 369.919 507.06 369.919 509.002 370.998L651.884 453.425C652.963 454.072 653.395 454.72 653.395 455.799C653.395 456.877 652.747 457.956 651.452 458.604L563.824 509.096C562.745 509.959 561.234 510.175 559.723 510.175ZM557.349 508.233C558.86 509.096 561.45 508.88 563.392 508.017L651.021 457.525C651.884 457.093 652.316 456.446 652.316 456.014C652.316 455.583 651.884 455.151 651.452 454.935L508.571 372.508C507.06 371.645 504.47 371.861 502.527 372.724L414.899 423.216C414.036 423.648 413.604 424.295 413.604 424.727C413.604 425.158 414.036 425.59 414.467 425.805L557.349 508.233Z" fill="#42E8E0"/>
<path opacity="0.5" d="M559.723 490.755C558.428 490.755 557.349 490.539 556.486 489.891L413.604 407.464C412.525 406.817 412.093 406.17 412.093 405.091C412.093 404.012 412.741 402.933 414.036 402.286L501.664 351.794C503.822 350.499 507.06 350.499 509.002 351.578L651.884 434.005C652.963 434.652 653.395 435.3 653.395 436.379C653.395 437.458 652.747 438.536 651.452 439.184L563.824 489.676C562.745 490.323 561.234 490.755 559.723 490.755ZM557.349 488.597C558.86 489.46 561.45 489.244 563.392 488.381L651.021 437.889C651.884 437.458 652.316 436.81 652.316 436.379C652.316 435.947 651.884 435.516 651.452 435.3L508.571 352.873C507.06 352.01 504.47 352.225 502.527 353.088L414.899 403.58C414.036 404.012 413.604 404.659 413.604 405.091C413.604 405.522 414.036 405.954 414.467 406.17L557.349 488.597Z" fill="#42E8E0"/>
<path opacity="0.2" d="M556.918 489.244L414.036 406.817C412.309 405.738 412.525 404.012 414.468 402.933L502.096 352.441C504.039 351.362 507.06 351.147 508.787 352.225L651.669 434.653C653.395 435.731 653.179 437.458 651.237 438.537L563.609 489.029C561.666 490.107 558.644 490.323 556.918 489.244Z" fill="#42E8E0"/>
<path d="M362.667 506.507L369.79 510.607L362.667 514.706L355.545 510.607L362.667 506.507Z" fill="#42E8E0"/>
<path d="M388.135 491.834L395.258 495.934L376.912 506.507L369.79 502.407L388.135 491.834Z" fill="#42E8E0"/>
<defs>
<radialGradient id="paint0_radial_858_19296" cx="0" cy="0" r="1" gradientUnits="userSpaceOnUse" gradientTransform="translate(85.4771 437.155) scale(279.804 279.732)">
<stop stop-color="#42E8E0"/>
<stop offset="0.0156766" stop-color="#40D8D7"/>
<stop offset="0.0606675" stop-color="#3AAFC0"/>
<stop offset="0.1112" stop-color="#3589AC"/>
<stop offset="0.1662" stop-color="#30699A"/>
<stop offset="0.227" stop-color="#2C4D8B"/>
<stop offset="0.2957" stop-color="#29377F"/>
<stop offset="0.3758" stop-color="#272675"/>
<stop offset="0.475" stop-color="#251B6F"/>
<stop offset="0.614" stop-color="#24146B"/>
<stop offset="1" stop-color="#24126A"/>
</radialGradient>
<radialGradient id="paint1_radial_858_19296" cx="0" cy="0" r="1" gradientUnits="userSpaceOnUse" gradientTransform="translate(263.936 520.365) scale(495.491 495.363)">
<stop stop-color="#42E8E0"/>
<stop offset="0.1022" stop-color="#3CCACE"/>
<stop offset="0.3445" stop-color="#2F87A5"/>
<stop offset="0.564" stop-color="#255385"/>
<stop offset="0.7534" stop-color="#1E2D6E"/>
<stop offset="0.905" stop-color="#1A1660"/>
<stop offset="1" stop-color="#180D5B"/>
</radialGradient>
<linearGradient id="paint2_linear_858_19296" x1="138.938" y1="404.352" x2="494.352" y2="404.352" gradientUnits="userSpaceOnUse">
<stop stop-color="#180D5B"/>
<stop offset="0.0949797" stop-color="#1A1660"/>
<stop offset="0.2466" stop-color="#1E2D6E"/>
<stop offset="0.436" stop-color="#255385"/>
<stop offset="0.6555" stop-color="#2F87A5"/>
<stop offset="0.8978" stop-color="#3CCACE"/>
<stop offset="1" stop-color="#42E8E0"/>
</linearGradient>
<radialGradient id="paint3_radial_858_19296" cx="0" cy="0" r="1" gradientUnits="userSpaceOnUse" gradientTransform="translate(135.41 437.376) scale(143.261 143.224)">
<stop stop-color="#42E8E0"/>
<stop offset="0.1022" stop-color="#3CCACE"/>
<stop offset="0.3445" stop-color="#2F87A5"/>
<stop offset="0.564" stop-color="#255385"/>
<stop offset="0.7534" stop-color="#1E2D6E"/>
<stop offset="0.905" stop-color="#1A1660"/>
<stop offset="1" stop-color="#180D5B"/>
</radialGradient>
<radialGradient id="paint4_radial_858_19296" cx="0" cy="0" r="1" gradientUnits="userSpaceOnUse" gradientTransform="translate(143.425 405.507) scale(295.298 295.222)">
<stop stop-color="#42E8E0"/>
<stop offset="0.1022" stop-color="#3CCACE"/>
<stop offset="0.3445" stop-color="#2F87A5"/>
<stop offset="0.564" stop-color="#255385"/>
<stop offset="0.7534" stop-color="#1E2D6E"/>
<stop offset="0.905" stop-color="#1A1660"/>
<stop offset="1" stop-color="#180D5B"/>
</radialGradient>
<radialGradient id="paint5_radial_858_19296" cx="0" cy="0" r="1" gradientUnits="userSpaceOnUse" gradientTransform="translate(166.85 419.695) scale(241.662 241.599)">
<stop stop-color="#42E8E0"/>
<stop offset="0.1022" stop-color="#3CCACE"/>
<stop offset="0.3445" stop-color="#2F87A5"/>
<stop offset="0.564" stop-color="#255385"/>
<stop offset="0.7534" stop-color="#1E2D6E"/>
<stop offset="0.905" stop-color="#1A1660"/>
<stop offset="1" stop-color="#180D5B"/>
</radialGradient>
<radialGradient id="paint6_radial_858_19296" cx="0" cy="0" r="1" gradientUnits="userSpaceOnUse" gradientTransform="translate(100.582 420.928) scale(482.14 482.016)">
<stop stop-color="#42E8E0"/>
<stop offset="0.1022" stop-color="#3CCACE"/>
<stop offset="0.3445" stop-color="#2F87A5"/>
<stop offset="0.564" stop-color="#255385"/>
<stop offset="0.7534" stop-color="#1E2D6E"/>
<stop offset="0.905" stop-color="#1A1660"/>
<stop offset="1" stop-color="#180D5B"/>
</radialGradient>
<radialGradient id="paint7_radial_858_19296" cx="0" cy="0" r="1" gradientUnits="userSpaceOnUse" gradientTransform="translate(135.691 419.694) scale(424.484 424.375)">
<stop stop-color="#42E8E0"/>
<stop offset="0.1022" stop-color="#3CCACE"/>
<stop offset="0.3445" stop-color="#2F87A5"/>
<stop offset="0.564" stop-color="#255385"/>
<stop offset="0.7534" stop-color="#1E2D6E"/>
<stop offset="0.905" stop-color="#1A1660"/>
<stop offset="1" stop-color="#180D5B"/>
</radialGradient>
<linearGradient id="paint8_linear_858_19296" x1="157.779" y1="201.117" x2="314.274" y2="373.425" gradientUnits="userSpaceOnUse">
<stop stop-color="#42E8E0"/>
<stop offset="0.0739698" stop-color="#3ED2D3"/>
<stop offset="0.2847" stop-color="#3297AF"/>
<stop offset="0.3474" stop-color="#2F87A5"/>
<stop offset="0.5646" stop-color="#255385"/>
<stop offset="0.7537" stop-color="#1E2D6E"/>
<stop offset="0.9051" stop-color="#1A1560"/>
<stop offset="1" stop-color="#180D5B"/>
</linearGradient>
<linearGradient id="paint9_linear_858_19296" x1="117.41" y1="283.82" x2="350.55" y2="283.82" gradientUnits="userSpaceOnUse">
<stop stop-color="#2B237C"/>
<stop offset="1" stop-color="#180D5B"/>
</linearGradient>
<radialGradient id="paint10_radial_858_19296" cx="0" cy="0" r="1" gradientUnits="userSpaceOnUse" gradientTransform="translate(147.866 234.264) scale(622.274 622.114)">
<stop stop-color="#42E8E0"/>
<stop offset="0.1022" stop-color="#3CCACE"/>
<stop offset="0.3445" stop-color="#2F87A5"/>
<stop offset="0.564" stop-color="#255385"/>
<stop offset="0.7534" stop-color="#1E2D6E"/>
<stop offset="0.905" stop-color="#1A1660"/>
<stop offset="1" stop-color="#180D5B"/>
</radialGradient>
<radialGradient id="paint11_radial_858_19296" cx="0" cy="0" r="1" gradientUnits="userSpaceOnUse" gradientTransform="translate(113.276 266.132) scale(25.1905 25.1837)">
<stop stop-color="#42E8E0"/>
<stop offset="0.1022" stop-color="#3CCACE"/>
<stop offset="0.3445" stop-color="#2F87A5"/>
<stop offset="0.564" stop-color="#255385"/>
<stop offset="0.7534" stop-color="#1E2D6E"/>
<stop offset="0.905" stop-color="#1A1660"/>
<stop offset="1" stop-color="#180D5B"/>
</radialGradient>
<linearGradient id="paint12_linear_858_19296" x1="187.643" y1="226.739" x2="322.29" y2="393.076" gradientUnits="userSpaceOnUse">
<stop stop-color="#42E8E0"/>
<stop offset="0.1022" stop-color="#3CCACE"/>
<stop offset="0.3445" stop-color="#2F87A5"/>
<stop offset="0.564" stop-color="#255385"/>
<stop offset="0.7534" stop-color="#1E2D6E"/>
<stop offset="0.905" stop-color="#1A1660"/>
<stop offset="1" stop-color="#180D5B"/>
</linearGradient>
<radialGradient id="paint13_radial_858_19296" cx="0" cy="0" r="1" gradientUnits="userSpaceOnUse" gradientTransform="translate(201.733 210.339) scale(226.981 226.923)">
<stop stop-color="#42E8E0"/>
<stop offset="0.1022" stop-color="#3CCACE"/>
<stop offset="0.3445" stop-color="#2F87A5"/>
<stop offset="0.564" stop-color="#255385"/>
<stop offset="0.7534" stop-color="#1E2D6E"/>
<stop offset="0.905" stop-color="#1A1660"/>
<stop offset="1" stop-color="#180D5B"/>
</radialGradient>
<radialGradient id="paint14_radial_858_19296" cx="0" cy="0" r="1" gradientUnits="userSpaceOnUse" gradientTransform="translate(281.772 520.498) scale(112.373 112.344)">
<stop stop-color="#42E8E0"/>
<stop offset="0.0156766" stop-color="#40D8D7"/>
<stop offset="0.0606675" stop-color="#3AAFC0"/>
<stop offset="0.1112" stop-color="#3589AC"/>
<stop offset="0.1662" stop-color="#30699A"/>
<stop offset="0.227" stop-color="#2C4D8B"/>
<stop offset="0.2957" stop-color="#29377F"/>
<stop offset="0.3758" stop-color="#272675"/>
<stop offset="0.475" stop-color="#251B6F"/>
<stop offset="0.614" stop-color="#24146B"/>
<stop offset="1" stop-color="#24126A"/>
</radialGradient>
<radialGradient id="paint15_radial_858_19296" cx="0" cy="0" r="1" gradientUnits="userSpaceOnUse" gradientTransform="translate(353.477 553.19) scale(199.138 199.087)">
<stop stop-color="#42E8E0"/>
<stop offset="0.1022" stop-color="#3CCACE"/>
<stop offset="0.3445" stop-color="#2F87A5"/>
<stop offset="0.564" stop-color="#255385"/>
<stop offset="0.7534" stop-color="#1E2D6E"/>
<stop offset="0.905" stop-color="#1A1660"/>
<stop offset="1" stop-color="#180D5B"/>
</radialGradient>
<linearGradient id="paint16_linear_858_19296" x1="303.251" y1="504.865" x2="446.062" y2="504.865" gradientUnits="userSpaceOnUse">
<stop stop-color="#180D5B"/>
<stop offset="0.0949797" stop-color="#1A1660"/>
<stop offset="0.2466" stop-color="#1E2D6E"/>
<stop offset="0.436" stop-color="#255385"/>
<stop offset="0.6555" stop-color="#2F87A5"/>
<stop offset="0.8978" stop-color="#3CCACE"/>
<stop offset="1" stop-color="#42E8E0"/>
</linearGradient>
<radialGradient id="paint17_radial_858_19296" cx="0" cy="0" r="1" gradientUnits="userSpaceOnUse" gradientTransform="translate(301.835 519.096) scale(57.4898 57.475)">
<stop stop-color="#42E8E0"/>
<stop offset="0.1022" stop-color="#3CCACE"/>
<stop offset="0.3445" stop-color="#2F87A5"/>
<stop offset="0.564" stop-color="#255385"/>
<stop offset="0.7534" stop-color="#1E2D6E"/>
<stop offset="0.905" stop-color="#1A1660"/>
<stop offset="1" stop-color="#180D5B"/>
</radialGradient>
<radialGradient id="paint18_radial_858_19296" cx="0" cy="0" r="1" gradientUnits="userSpaceOnUse" gradientTransform="translate(305.054 504.912) scale(118.646 118.615)">
<stop stop-color="#42E8E0"/>
<stop offset="0.1022" stop-color="#3CCACE"/>
<stop offset="0.3445" stop-color="#2F87A5"/>
<stop offset="0.564" stop-color="#255385"/>
<stop offset="0.7534" stop-color="#1E2D6E"/>
<stop offset="0.905" stop-color="#1A1660"/>
<stop offset="1" stop-color="#180D5B"/>
</radialGradient>
<radialGradient id="paint19_radial_858_19296" cx="0" cy="0" r="1" gradientUnits="userSpaceOnUse" gradientTransform="translate(314.467 510.607) scale(97.0965 97.0715)">
<stop stop-color="#42E8E0"/>
<stop offset="0.1022" stop-color="#3CCACE"/>
<stop offset="0.3445" stop-color="#2F87A5"/>
<stop offset="0.564" stop-color="#255385"/>
<stop offset="0.7534" stop-color="#1E2D6E"/>
<stop offset="0.905" stop-color="#1A1660"/>
<stop offset="1" stop-color="#180D5B"/>
</radialGradient>
<radialGradient id="paint20_radial_858_19296" cx="0" cy="0" r="1" gradientUnits="userSpaceOnUse" gradientTransform="translate(301.835 511.103) scale(137.248 137.213)">
<stop stop-color="#42E8E0"/>
<stop offset="0.1022" stop-color="#3CCACE"/>
<stop offset="0.3445" stop-color="#2F87A5"/>
<stop offset="0.564" stop-color="#255385"/>
<stop offset="0.7534" stop-color="#1E2D6E"/>
<stop offset="0.905" stop-color="#1A1660"/>
<stop offset="1" stop-color="#180D5B"/>
</radialGradient>
<radialGradient id="paint21_radial_858_19296" cx="0" cy="0" r="1" gradientUnits="userSpaceOnUse" gradientTransform="translate(301.834 510.607) scale(183.368 183.321)">
<stop stop-color="#42E8E0"/>
<stop offset="0.1022" stop-color="#3CCACE"/>
<stop offset="0.3445" stop-color="#2F87A5"/>
<stop offset="0.564" stop-color="#255385"/>
<stop offset="0.7534" stop-color="#1E2D6E"/>
<stop offset="0.905" stop-color="#1A1660"/>
<stop offset="1" stop-color="#180D5B"/>
</radialGradient>
<radialGradient id="paint22_radial_858_19296" cx="0" cy="0" r="1" gradientUnits="userSpaceOnUse" gradientTransform="translate(376.838 490.501) scale(188.829 188.78)">
<stop stop-color="#42E8E0"/>
<stop offset="0.0156766" stop-color="#40D8D7"/>
<stop offset="0.0606675" stop-color="#3AAFC0"/>
<stop offset="0.1112" stop-color="#3589AC"/>
<stop offset="0.1662" stop-color="#30699A"/>
<stop offset="0.227" stop-color="#2C4D8B"/>
<stop offset="0.2957" stop-color="#29377F"/>
<stop offset="0.3758" stop-color="#272675"/>
<stop offset="0.475" stop-color="#251B6F"/>
<stop offset="0.614" stop-color="#24146B"/>
<stop offset="1" stop-color="#24126A"/>
</radialGradient>
<radialGradient id="paint23_radial_858_19296" cx="0" cy="0" r="1" gradientUnits="userSpaceOnUse" gradientTransform="translate(497.293 546.188) scale(334.462 334.376)">
<stop stop-color="#42E8E0"/>
<stop offset="0.1022" stop-color="#3CCACE"/>
<stop offset="0.3445" stop-color="#2F87A5"/>
<stop offset="0.564" stop-color="#255385"/>
<stop offset="0.7534" stop-color="#1E2D6E"/>
<stop offset="0.905" stop-color="#1A1660"/>
<stop offset="1" stop-color="#180D5B"/>
</radialGradient>
<linearGradient id="paint24_linear_858_19296" x1="412.922" y1="467.036" x2="652.819" y2="467.036" gradientUnits="userSpaceOnUse">
<stop stop-color="#180D5B"/>
<stop offset="0.0949797" stop-color="#1A1660"/>
<stop offset="0.2466" stop-color="#1E2D6E"/>
<stop offset="0.436" stop-color="#255385"/>
<stop offset="0.6555" stop-color="#2F87A5"/>
<stop offset="0.8978" stop-color="#3CCACE"/>
<stop offset="1" stop-color="#42E8E0"/>
</linearGradient>
<radialGradient id="paint25_radial_858_19296" cx="0" cy="0" r="1" gradientUnits="userSpaceOnUse" gradientTransform="translate(410.541 489.84) scale(96.6554 96.6305)">
<stop stop-color="#42E8E0"/>
<stop offset="0.1022" stop-color="#3CCACE"/>
<stop offset="0.3445" stop-color="#2F87A5"/>
<stop offset="0.564" stop-color="#255385"/>
<stop offset="0.7534" stop-color="#1E2D6E"/>
<stop offset="0.905" stop-color="#1A1660"/>
<stop offset="1" stop-color="#180D5B"/>
</radialGradient>
<radialGradient id="paint26_radial_858_19296" cx="0" cy="0" r="1" gradientUnits="userSpaceOnUse" gradientTransform="translate(415.951 467.588) scale(199.308 199.257)">
<stop stop-color="#42E8E0"/>
<stop offset="0.1022" stop-color="#3CCACE"/>
<stop offset="0.3445" stop-color="#2F87A5"/>
<stop offset="0.564" stop-color="#255385"/>
<stop offset="0.7534" stop-color="#1E2D6E"/>
<stop offset="0.905" stop-color="#1A1660"/>
<stop offset="1" stop-color="#180D5B"/>
</radialGradient>
<radialGradient id="paint27_radial_858_19296" cx="0" cy="0" r="1" gradientUnits="userSpaceOnUse" gradientTransform="translate(431.762 477.158) scale(163.108 163.066)">
<stop stop-color="#42E8E0"/>
<stop offset="0.1022" stop-color="#3CCACE"/>
<stop offset="0.3445" stop-color="#2F87A5"/>
<stop offset="0.564" stop-color="#255385"/>
<stop offset="0.7534" stop-color="#1E2D6E"/>
<stop offset="0.905" stop-color="#1A1660"/>
<stop offset="1" stop-color="#180D5B"/>
</radialGradient>
<radialGradient id="paint28_radial_858_19296" cx="0" cy="0" r="1" gradientUnits="userSpaceOnUse" gradientTransform="translate(410.542 477.99) scale(230.557 230.498)">
<stop stop-color="#42E8E0"/>
<stop offset="0.1022" stop-color="#3CCACE"/>
<stop offset="0.3445" stop-color="#2F87A5"/>
<stop offset="0.564" stop-color="#255385"/>
<stop offset="0.7534" stop-color="#1E2D6E"/>
<stop offset="0.905" stop-color="#1A1660"/>
<stop offset="1" stop-color="#180D5B"/>
</radialGradient>
<radialGradient id="paint29_radial_858_19296" cx="0" cy="0" r="1" gradientUnits="userSpaceOnUse" gradientTransform="translate(338.423 415.618) scale(118.939 118.908)">
<stop stop-color="#42E8E0"/>
<stop offset="0.1022" stop-color="#3CCACE"/>
<stop offset="0.3445" stop-color="#2F87A5"/>
<stop offset="0.564" stop-color="#255385"/>
<stop offset="0.7534" stop-color="#1E2D6E"/>
<stop offset="0.905" stop-color="#1A1660"/>
<stop offset="1" stop-color="#180D5B"/>
</radialGradient>
<radialGradient id="paint30_radial_858_19296" cx="0" cy="0" r="1" gradientUnits="userSpaceOnUse" gradientTransform="translate(410.676 477.157) scale(292.695 292.62)">
<stop stop-color="#42E8E0"/>
<stop offset="0.1022" stop-color="#3CCACE"/>
<stop offset="0.3445" stop-color="#2F87A5"/>
<stop offset="0.564" stop-color="#255385"/>
<stop offset="0.7534" stop-color="#1E2D6E"/>
<stop offset="0.905" stop-color="#1A1660"/>
<stop offset="1" stop-color="#180D5B"/>
</radialGradient>
</defs>
</svg>
